SplineFontDB: 3.0
FontName: YuePrintMinchoSmall
FullName: YuePrintMin_Sml
FamilyName: Yue Print Mincho Sml
Weight: Regular
Copyright: Created by g,,, with FontForge 2.0 (http://fontforge.sf.net)
UComments: "2015-4-21: Created.+AAoA-Design by G J Wilson.+AAoA-Created for the typesetting of short pieces of poetry.+AAoACgAK-Previously worked on under the title +IBwA-YueMincho_ver2.4.sfd+IB0A." 
Version: 001.000
ItalicAngle: 0
UnderlinePosition: -100
UnderlineWidth: 50
Ascent: 800
Descent: 200
LayerCount: 2
Layer: 0 0 "Back"  1
Layer: 1 0 "Fore"  0
XUID: [1021 109 133594851 16623412]
FSType: 0
OS2Version: 0
OS2_WeightWidthSlopeOnly: 0
OS2_UseTypoMetrics: 1
CreationTime: 1429650512
ModificationTime: 1442418582
PfmFamily: 17
TTFWeight: 500
TTFWidth: 5
LineGap: 200
VLineGap: 400
OS2TypoAscent: 0
OS2TypoAOffset: 1
OS2TypoDescent: 0
OS2TypoDOffset: 1
OS2TypoLinegap: 200
OS2WinAscent: 0
OS2WinAOffset: 1
OS2WinDescent: 0
OS2WinDOffset: 1
HheadAscent: 0
HheadAOffset: 1
HheadDescent: 0
HheadDOffset: 1
OS2Vendor: 'PfEd'
Lookup: 260 0 0 "Accents"  {"Hiragana-Vu"  } ['mark' ('DFLT' <'dflt' > 'kana' <'dflt' > 'latn' <'dflt' > ) ]
MarkAttachClasses: 2
"Ten" 15 uni3099 uni309A
DEI: 91125
LangName: 1041 "" "+ZUVTcFI3Zg5nHf8IXA//CQAA" "" "" "" "" "" "" "" "" "" "" "" "" "" "" "" "" "" "+MEQwjTBvMGswezB4MGgwYTCKMGwwizCSMI8wSzCIMF8wjDBdMGQwbTBqMIkwgDBGMJAwbjBKME8whDB+MFEwdTBTMEgwZjBCMFUwTTCGMIEwfzBXMJEwcjCCMFswWQAA" "+ZUVmDmcdMEswagAA" 
LangName: 1033 
Encoding: UnicodeFull
Compacted: 1
UnicodeInterp: japanese
NameList: Adobe Glyph List
DisplaySize: -24
AntiAlias: 1
FitToEm: 1
WinInfo: 0 23 8
BeginPrivate: 0
EndPrivate
Grid
-1000 -80 m 0
 2000 -80 l 0
880 1300 m 0
 880 -700 l 0
-1000 680 m 0
 2000 680 l 0
120 1300 m 0
 120 -700 l 0
945 763 m 0
 945 772 953 780 962 780 c 0
 971 780 979 772 979 763 c 0
 979 754 971 746 962 746 c 0
 953 746 945 754 945 763 c 0
-1000 -120 m 0
 2000 -120 l 0
920 1300 m 0
 920 -700 l 0
-1000 720 m 0
 2000 720 l 0
80 1300 m 0
 80 -700 l 0
-1000 -125 m 0

StartChar: uni30FB
Encoding: 12539 12539 0
Width: 1000
VWidth: 0
Flags: HM
LayerCount: 2
Back
SplineSet
415 300 m 0
 415 347 453 385 500 385 c 0
 547 385 585 347 585 300 c 0
 585 253 547 215 500 215 c 0
 453 215 415 253 415 300 c 0
EndSplineSet
Fore
SplineSet
415 300 m 0
 415 347 453 385 500 385 c 0
 547 385 585 347 585 300 c 0
 585 253 547 215 500 215 c 0
 453 215 415 253 415 300 c 0
EndSplineSet
Validated: 1
EndChar

StartChar: uni3031
Encoding: 12337 12337 1
Width: 1000
VWidth: 0
Flags: HMW
LayerCount: 2
Back
SplineSet
615 1230 m 9
 630 1245 l 17
 695 1215 745 1160 745 1130 c 3
 745 1120 731.969 1113.42 705 1080 c 0
 475 795 240 450 240 360 c 3
 240 265 410 70 590 -230 c 0
 710 -430 755 -540 755 -580 c 3
 755 -605 725 -640 700 -640 c 3
 665 -640 685 -565 505 -220 c 0
 360.194 57.5449 200 250 200 355 c 3
 200 440 300 597 475 875 c 0
 601.67 1076.22 650 1140 650 1170 c 3
 650 1190 635 1215 615 1230 c 9
EndSplineSet
Fore
SplineSet
615 766 m 1
 630 774 l 1
 695 759 745 731 745 716 c 0
 745 711 732 708 705 691 c 0
 475 549 240 376 240 331 c 0
 240 283 410 186 590 36 c 0
 710 -64 755 -119 755 -139 c 0
 755 -151 725 -169 700 -169 c 0
 665 -169 685 -131 505 41 c 0
 360 180 200 277 200 329 c 0
 200 371 300 450 475 589 c 0
 602 690 650 721 650 736 c 0
 650 746 635 758 615 766 c 1
EndSplineSet
Validated: 1
EndChar

StartChar: uni3032
Encoding: 12338 12338 2
Width: 1000
VWidth: 0
Flags: HMW
LayerCount: 2
Back
SplineSet
615 1230 m 9
 630 1245 l 17
 695 1215 745 1160 745 1130 c 3
 745 1120 731.969 1113.42 705 1080 c 0
 475 795 240 450 240 360 c 3
 240 265 410 70 590 -230 c 0
 710 -430 755 -540 755 -580 c 3
 755 -605 725 -640 700 -640 c 3
 665 -640 685 -565 505 -220 c 0
 360.194 57.5449 200 250 200 355 c 3
 200 440 300 597 475 875 c 0
 601.67 1076.22 650 1140 650 1170 c 3
 650 1190 635 1215 615 1230 c 9
652 720 m 9
 667 735 l 17
 752 695 790 630 790 603 c 3
 790 590 770 570 750 570 c 3
 725 570 727 653 652 720 c 9
740 775 m 9
 755 790 l 17
 835 764 890 700 890 670 c 3
 890 655 870 635 850 635 c 3
 830 635 820 720 740 775 c 9
EndSplineSet
Fore
SplineSet
615 766 m 1
 630 774 l 1
 695 759 745 731 745 716 c 0
 745 711 732 708 705 691 c 0
 475 549 240 376 240 331 c 0
 240 283 410 186 590 36 c 0
 710 -64 755 -119 755 -139 c 0
 755 -151 725 -169 700 -169 c 0
 665 -169 685 -131 505 41 c 0
 360 180 200 277 200 329 c 0
 200 371 300 450 475 589 c 0
 602 690 650 721 650 736 c 0
 650 746 635 758 615 766 c 1
652 511 m 1
 667 519 l 1
 752 499 790 467 790 453 c 0
 790 447 770 436 750 436 c 0
 725 436 727 477 652 511 c 1
740 539 m 1
 755 546 l 1
 835 533 890 501 890 486 c 0
 890 478 870 469 850 469 c 0
 830 469 820 511 740 539 c 1
EndSplineSet
Validated: 1
EndChar

StartChar: uni3033
Encoding: 12339 12339 3
Width: 1000
VWidth: 0
Flags: HMW
LayerCount: 2
Back
SplineSet
255 -200 m 9
 211 -200 l 17
 203 -178 200 -159 200 -145 c 3
 200 -60 300 97 475 375 c 0
 601.67 576.224 650 640 650 670 c 3
 650 690 635 715 615 730 c 9
 630 745 l 17
 695 715 745 660 745 630 c 3
 745 620 731.969 613.42 705 580 c 0
 475 295 240 -50 240 -140 c 3
 240 -156 245 -176 255 -200 c 9
EndSplineSet
Fore
SplineSet
260 -200 m 1
 216 -200 l 1
 208 -178 205 -159 205 -145 c 0
 205 -60 305 97 480 375 c 0
 607 576 650 630 650 660 c 0
 650 680 635 705 615 720 c 1
 630 735 l 1
 695 705 740 650 740 620 c 0
 740 610 727 603 700 570 c 0
 470 285 245 -50 245 -140 c 0
 245 -156 250 -176 260 -200 c 1
EndSplineSet
Validated: 1
EndChar

StartChar: uni3034
Encoding: 12340 12340 4
Width: 1000
VWidth: 0
Flags: HMW
LayerCount: 2
Back
SplineSet
255 -200 m 9
 211 -200 l 17
 203 -178 200 -159 200 -145 c 3
 200 -60 300 97 475 375 c 0
 601.67 576.224 650 640 650 670 c 3
 650 690 635 715 615 730 c 9
 630 745 l 17
 695 715 745 660 745 630 c 3
 745 620 731.969 613.42 705 580 c 0
 475 295 240 -50 240 -140 c 3
 240 -156 245 -176 255 -200 c 9
652 220 m 9
 667 235 l 17
 752 195 790 130 790 103 c 3
 790 90 770 70 750 70 c 3
 725 70 727 153 652 220 c 9
740 275 m 9
 755 290 l 17
 835 264 890 200 890 170 c 3
 890 155 870 135 850 135 c 3
 830 135 820 220 740 275 c 9
EndSplineSet
Fore
SplineSet
652 220 m 1
 667 235 l 1
 752 195 790 130 790 103 c 0
 790 90 770 70 750 70 c 0
 725 70 727 153 652 220 c 1
740 275 m 1
 755 290 l 1
 835 264 890 200 890 170 c 0
 890 155 870 135 850 135 c 0
 830 135 820 220 740 275 c 1
260 -200 m 1
 216 -200 l 1
 208 -178 205 -159 205 -145 c 0
 205 -60 305 97 480 375 c 0
 607 576 650 630 650 660 c 0
 650 680 635 705 615 720 c 1
 630 735 l 1
 695 705 740 650 740 620 c 0
 740 610 727 603 700 570 c 0
 470 285 245 -50 245 -140 c 0
 245 -156 250 -176 260 -200 c 1
EndSplineSet
Validated: 1
EndChar

StartChar: uni3035
Encoding: 12341 12341 5
Width: 1000
VWidth: 0
Flags: HMW
LayerCount: 2
Back
SplineSet
255 800 m 17
 305 686 440 520 590 270 c 0
 710 70 755 -40 755 -80 c 3
 755 -105 725 -140 700 -140 c 3
 665 -140 685 -65 505 280 c 0
 383.03 513.776 250 687 211 800 c 9
 255 800 l 17
EndSplineSet
Fore
SplineSet
260 800 m 1
 310 686 445 520 595 270 c 0
 715 70 755 -35 755 -70 c 0
 755 -95 725 -130 700 -130 c 0
 665 -130 690 -65 510 280 c 0
 388 514 255 687 216 800 c 1
 260 800 l 1
EndSplineSet
Validated: 1
EndChar

StartChar: uni303B
Encoding: 12347 12347 6
Width: 1000
VWidth: 0
Flags: HMW
LayerCount: 2
Back
SplineSet
400 300 m 0
 400 355 445 400 500 400 c 0
 555 400 600 355 600 300 c 0
 600 245 555 200 500 200 c 0
 445 200 400 245 400 300 c 0
EndSplineSet
Fore
SplineSet
400 300 m 0
 400 355 445 400 500 400 c 0
 555 400 600 355 600 300 c 0
 600 245 555 200 500 200 c 0
 445 200 400 245 400 300 c 0
EndSplineSet
Validated: 1
EndChar

StartChar: uni303C
Encoding: 12348 12348 7
Width: 1000
VWidth: 0
Flags: HMW
LayerCount: 2
Back
SplineSet
800 635 m 1
 165 635 l 1
 165 0 l 1
 800 635 l 1
120 -80 m 1
 120 680 l 1
 880 680 l 1
 880 -80 l 1
 120 -80 l 1
200 -35 m 1
 835 -35 l 1
 835 600 l 1
 200 -35 l 1
EndSplineSet
Fore
SplineSet
790 625 m 1
 175 625 l 1
 175 10 l 1
 790 625 l 1
130 -70 m 1
 130 670 l 1
 870 670 l 1
 870 -70 l 1
 130 -70 l 1
210 -25 m 1
 825 -25 l 1
 825 590 l 1
 210 -25 l 1
EndSplineSet
Validated: 1
EndChar

StartChar: uni3041
Encoding: 12353 12353 8
Width: 1000
VWidth: 0
Flags: HMW
LayerCount: 2
Back
SplineSet
576 250 m 3
 397 250 221 87 221 -11 c 3
 221 -33 232 -47 251 -47 c 3
 355 -47 575 196 575 289 c 3
 575 305 564 325 550 338 c 9
 565 350 l 17
 595 330 625 293 625 263 c 3
 625 183 375 -102 225 -102 c 3
 191 -102 164 -75 164 -37 c 3
 164 100 377 283 597 283 c 3
 740 283 842 205 842 82 c 3
 842 -80 690 -148 483 -160 c 9
 478 -140 l 17
 645 -110 773 -50 773 90 c 3
 773 180 700 250 576 250 c 3
365 532 m 9
 360 552 l 17
 370 556 390 561 403 561 c 3
 445 561 484 529 484 514 c 3
 484 506 473 500 465 475 c 0
 457 450 435 353 435 192 c 3
 435 50 480 -7 480 -24 c 3
 480 -37 462 -55 445 -55 c 3
 424 -55 392 40 392 170 c 3
 392 352 413 487 413 508 c 3
 413 521 395 533 377 533 c 3
 375 533 369 533 365 532 c 9
223 430 m 9
 237 442 l 17
 262 418 306 404 344 404 c 3
 495 404 596 477 614 477 c 3
 631 477 650 461 650 449 c 3
 650 423 480 358 339 358 c 3
 288 358 247 390 223 430 c 9
EndSplineSet
Fore
SplineSet
407 47 m 1
 400 82 395 125 395 174 c 0
 395 183 395 191 395 200 c 1
 299 145 229 59 229 -2 c 0
 229 -23 240 -37 258 -37 c 0
 297 -37 353 -1 407 47 c 1
448 86 m 1
 501 141 546 204 564 251 c 1
 520 250 477 238 437 221 c 1
 437 213 437 204 437 195 c 0
 437 151 442 115 448 86 c 1
231 426 m 1
 245 438 l 1
 269 415 312 401 349 401 c 0
 369 401 388 403 406 405 c 1
 411 458 416 492 416 502 c 0
 416 515 398 526 381 526 c 0
 379 526 373 526 369 525 c 1
 364 544 l 1
 374 548 393 553 406 553 c 0
 447 553 484 523 484 508 c 0
 484 500 474 494 466 470 c 0
 463 461 458 442 453 413 c 1
 541 433 598 472 611 472 c 0
 627 472 646 457 646 445 c 0
 646 426 552 385 447 366 c 1
 443 335 440 298 438 254 c 1
 481 270 526 280 572 283 c 1
 572 285 573 287 573 289 c 0
 573 305 562 324 548 337 c 1
 563 348 l 1
 586 333 609 308 618 283 c 1
 744 275 832 201 832 89 c 0
 832 -68 685 -134 484 -146 c 1
 479 -127 l 1
 641 -98 765 -40 765 96 c 0
 765 172 712 233 619 248 c 1
 606 200 540 112 461 38 c 1
 471 9 481 -6 481 -14 c 0
 481 -27 463 -44 447 -44 c 0
 438 -44 427 -28 418 0 c 1
 355 -52 287 -90 233 -90 c 0
 200 -90 174 -64 174 -27 c 0
 174 63 269 173 396 235 c 1
 397 281 399 324 402 360 c 1
 382 358 363 356 344 356 c 0
 295 356 254 387 231 426 c 1
EndSplineSet
Validated: 1
EndChar

StartChar: uni3042
Encoding: 12354 12354 9
Width: 1000
VWidth: 0
Flags: HMW
LayerCount: 2
Back
SplineSet
590 360 m 3
 378 360 167 170 167 50 c 3
 167 20 180 5 205 5 c 3
 330 5 590 295 590 405 c 3
 590 425 575 450 560 465 c 9
 575 475 l 17
 610 450 645 410 645 375 c 3
 645 280 350 -54 175 -54 c 3
 140 -54 105 -25 105 20 c 3
 105 180 355 395 615 395 c 3
 780 395 900 304 900 160 c 3
 900 -26 725 -110 480 -125 c 9
 475 -105 l 17
 675 -70 827 5 827 170 c 3
 827 280 740 360 590 360 c 3
340 695 m 9
 335 715 l 17
 347 720 370 725 385 725 c 3
 435 725 478 690 478 672 c 3
 478 663 465 655 455 625 c 0
 445 595 420 480 420 290 c 3
 420 125 473 55 473 35 c 3
 473 20 455 0 435 0 c 3
 410 0 373 125 373 265 c 3
 373 480 400 640 400 665 c 3
 400 680 380 697 355 697 c 3
 350 697 345 696 340 695 c 9
175 575 m 9
 190 585 l 17
 220 555 270 540 315 540 c 3
 500 540 614 625 632 625 c 3
 652 625 675 607 675 593 c 3
 675 568 475 490 310 490 c 3
 250 490 205 525 175 575 c 9
EndSplineSet
Fore
SplineSet
392 114 m 1
 383 157 377 210 377 266 c 0
 377 277 377 288 377 299 c 1
 262 235 177 133 177 58 c 0
 177 29 190 14 214 14 c 0
 261 14 328 56 392 114 c 1
436 157 m 1
 500 224 556 301 578 358 c 1
 525 357 472 343 423 322 c 1
 423 312 422 301 422 290 c 0
 422 236 428 192 436 157 c 1
185 567 m 1
 199 576 l 1
 228 547 277 533 321 533 c 0
 346 533 369 534 391 537 c 1
 397 600 403 642 403 654 c 0
 403 669 383 685 359 685 c 0
 354 685 350 684 345 683 c 1
 340 703 l 1
 352 708 373 712 388 712 c 0
 436 712 479 678 479 661 c 0
 479 652 466 644 456 615 c 0
 452 604 447 580 441 545 c 1
 549 568 615 615 628 615 c 0
 647 615 670 598 670 584 c 0
 670 566 558 518 434 496 c 1
 429 458 425 410 423 355 c 1
 475 375 531 388 587 391 c 1
 587 395 587 399 587 402 c 0
 587 421 573 445 558 460 c 1
 573 470 l 1
 601 450 629 420 638 391 c 1
 784 382 888 296 888 164 c 0
 888 -16 719 -97 481 -112 c 1
 476 -93 l 1
 670 -59 817 14 817 174 c 0
 817 268 752 339 638 355 c 1
 623 298 545 194 451 106 c 1
 463 72 474 52 474 43 c 0
 474 28 456 9 437 9 c 0
 427 9 415 30 404 64 c 1
 329 2 249 -43 185 -43 c 0
 151 -43 117 -16 117 28 c 0
 117 133 228 263 378 336 c 1
 380 393 382 445 386 489 c 1
 362 486 339 484 316 484 c 0
 258 484 214 519 185 567 c 1
EndSplineSet
Validated: 1
EndChar

StartChar: uni3043
Encoding: 12355 12355 10
Width: 1000
VWidth: 0
Flags: HMW
LayerCount: 2
Back
SplineSet
642 325 m 9
 654 345 l 17
 750 307 850 190 850 94 c 3
 850 73 825 46 804 46 c 3
 773 46 780 104 755 180 c 0
 738 231 692 287 642 325 c 9
182 505 m 17
 230 487 272 437 272 411 c 3
 272 401 263 396 255 373 c 0
 246.377 348.208 235 293 235 217 c 3
 235 155 260 80 284 45 c 9
 420 225 l 25
 440 210 l 17
 380 120 338 31 338 -12 c 3
 338 -32 356 -45 356 -64 c 3
 356 -78 338 -94 322 -94 c 3
 285 -94 189 52 189 234 c 3
 189 306 199 403 199 428 c 3
 199 445 188 473 167 490 c 9
 182 505 l 17
EndSplineSet
Fore
SplineSet
638 324 m 1
 649 344 l 1
 742 307 840 193 840 100 c 0
 840 80 815 54 795 54 c 0
 765 54 771 110 747 184 c 0
 731 233 686 287 638 324 c 1
192 499 m 1
 239 482 279 433 279 408 c 0
 279 398 270 393 262 371 c 0
 254 347 243 293 243 219 c 0
 243 159 267 87 290 53 c 1
 422 227 l 1
 442 213 l 1
 384 126 343 39 343 -3 c 0
 343 -22 360 -35 360 -53 c 0
 360 -67 343 -82 327 -82 c 0
 291 -82 198 59 198 236 c 0
 198 306 208 400 208 424 c 0
 208 440 197 468 177 484 c 1
 192 499 l 1
EndSplineSet
Validated: 1
EndChar

StartChar: uni3044
Encoding: 12356 12356 11
Width: 1000
VWidth: 0
Flags: HMW
LayerCount: 2
Back
SplineSet
670 450 m 9
 680 470 l 17
 795 425 910 285 910 175 c 3
 910 150 880 120 860 120 c 3
 830 120 835 190 805 280 c 0
 785 340 730 405 670 450 c 9
122 660 m 17
 175 640 227 580 227 550 c 3
 227 540 217 535 207 505 c 0
 197 475 184 410 184 320 c 3
 184 240 215 150 245 110 c 9
 408 328 l 25
 425 315 l 17
 355 210 305 100 305 49 c 3
 305 25 327 10 327 -10 c 3
 327 -25 308 -45 290 -45 c 3
 250 -45 135 125 135 340 c 3
 135 425 147 540 147 570 c 3
 147 590 132 625 107 645 c 9
 122 660 l 17
EndSplineSet
Fore
SplineSet
665 446 m 1
 675 465 l 1
 787 421 898 286 898 179 c 0
 898 155 868 125 849 125 c 0
 820 125 825 194 796 281 c 0
 777 339 723 402 665 446 c 1
133 649 m 1
 184 630 235 571 235 542 c 0
 235 532 226 528 216 499 c 0
 206 470 193 406 193 319 c 0
 193 241 224 155 253 116 c 1
 411 327 l 1
 427 315 l 1
 359 213 311 106 311 57 c 0
 311 34 332 18 332 -1 c 0
 332 -16 313 -35 296 -35 c 0
 257 -35 146 130 146 339 c 0
 146 421 158 533 158 562 c 0
 158 581 143 616 119 635 c 1
 133 649 l 1
EndSplineSet
Validated: 1
EndChar

StartChar: uni3045
Encoding: 12357 12357 12
Width: 1000
VWidth: 0
Flags: HMW
LayerCount: 2
Back
SplineSet
282 332 m 9
 300 337 l 17
 304 317 321 302 335 302 c 3
 365 302 458 350 538 350 c 3
 620 350 690 285 690 175 c 3
 690 -10 560 -130 380 -168 c 9
 370 -152 l 17
 515 -99 620 5 620 183 c 3
 620 255 585 311 525 311 c 3
 473 311 398 264 377 247 c 0
 356 230 352 225 343 225 c 3
 320 225 282 275 282 332 c 9
364 555 m 9
 380 564 l 17
 402 525 460 507 530 507 c 3
 547 507 562 509 570 509 c 3
 593 509 616 480 616 460 c 3
 616 454 610 447 601 447 c 3
 593 447 585 448 572 448 c 3
 546 448 479 432 420 405 c 9
 410 420 l 25
 480 465 l 17
 408 473 377 508 364 555 c 9
EndSplineSet
Fore
SplineSet
289 331 m 1
 306 336 l 1
 310 317 326 302 340 302 c 0
 369 302 459 348 537 348 c 0
 617 348 684 286 684 179 c 0
 684 0 559 -117 384 -154 c 1
 374 -138 l 1
 515 -87 616 14 616 187 c 0
 616 257 582 311 524 311 c 0
 474 311 401 265 381 249 c 0
 361 233 357 227 348 227 c 0
 326 227 289 276 289 331 c 1
368 547 m 1
 384 556 l 1
 405 518 461 501 529 501 c 0
 545 501 560 503 568 503 c 0
 590 503 613 474 613 455 c 0
 613 449 607 443 598 443 c 0
 590 443 583 444 570 444 c 0
 545 444 479 428 422 402 c 1
 413 416 l 1
 481 460 l 1
 411 468 381 501 368 547 c 1
EndSplineSet
Validated: 1
EndChar

StartChar: uni3046
Encoding: 12358 12358 13
Width: 1000
VWidth: 0
Flags: HMW
LayerCount: 2
Back
SplineSet
245 455 m 9
 265 460 l 17
 270 435 288 418 305 418 c 3
 340 418 450 475 545 475 c 3
 640 475 720 395 720 270 c 3
 720 55 570 -90 360 -135 c 9
 350 -120 l 17
 520 -55 645 65 645 280 c 3
 645 370 600 435 530 435 c 3
 470 435 380 380 355 360 c 0
 330 340 325 334 315 334 c 3
 290 334 245 390 245 455 c 9
340 720 m 9
 355 730 l 17
 380 685 450 660 530 660 c 3
 550 660 575 662 585 662 c 3
 610 662 635 630 635 610 c 3
 635 603 628 596 620 596 c 3
 610 596 600 597 585 597 c 3
 554 597 475 577 405 545 c 9
 395 560 l 25
 480 615 l 17
 395 625 355 665 340 720 c 9
EndSplineSet
Fore
SplineSet
253 450 m 1
 272 455 l 1
 277 431 295 414 311 414 c 0
 345 414 452 470 544 470 c 0
 636 470 713 392 713 271 c 0
 713 62 568 -78 364 -122 c 1
 354 -107 l 1
 519 -44 641 72 641 281 c 0
 641 368 597 431 529 431 c 0
 471 431 383 377 359 358 c 0
 335 339 331 333 321 333 c 0
 297 333 253 387 253 450 c 1
345 707 m 1
 359 717 l 1
 383 673 451 649 529 649 c 0
 548 649 572 651 582 651 c 0
 606 651 631 620 631 601 c 0
 631 594 624 587 616 587 c 0
 606 587 597 588 582 588 c 0
 552 588 476 569 408 538 c 1
 398 552 l 1
 481 606 l 1
 399 616 360 654 345 707 c 1
EndSplineSet
Validated: 1
EndChar

StartChar: uni3047
Encoding: 12359 12359 14
Width: 1000
VWidth: 0
Flags: HMW
LayerCount: 2
Back
SplineSet
365 561 m 17
 390 510 465 502 553 502 c 3
 575 502 595 475 595 455 c 3
 595 449 590 443 580 443 c 3
 573 443 562 445 551 445 c 3
 515 445 467 435 395 405 c 9
 385 420 l 25
 455 460 l 17
 387 473 358 510 345 555 c 9
 365 561 l 17
242 325 m 9
 263 330 l 17
 267 312 280 299 301 299 c 3
 356 299 487 337 538 354 c 0
 563 362 572 370 580 370 c 3
 602 370 647 334 647 314 c 3
 647 293 610 300 418 75 c 1
 435 88 466 105 500 105 c 3
 545 105 567 81 584 -3 c 0
 601 -87 625 -95 699 -95 c 3
 770 -95 793 -83 808 -83 c 3
 825 -83 850 -105 850 -124 c 3
 850 -138 805 -150 728 -150 c 3
 579 -150 549.492 -115.916 532 -15 c 0
 519 60 502 67 475 67 c 3
 441 67 400 45 370 15 c 0
 258 -97 236 -156 215 -156 c 3
 200 -156 180 -132 180 -114 c 3
 180 -95 216 -69 250 -35 c 0
 444 159 550 292 550 309 c 3
 550 312 547 313 542 313 c 3
 521 313 420 276 348 242 c 0
 331 234 318 225 310 225 c 3
 289 225 247 275 242 325 c 9
EndSplineSet
Fore
SplineSet
369 553 m 1
 393 504 466 496 551 496 c 0
 572 496 592 469 592 450 c 0
 592 444 588 439 578 439 c 0
 571 439 560 441 549 441 c 0
 514 441 468 431 398 402 c 1
 388 416 l 1
 456 455 l 1
 390 468 363 503 350 547 c 1
 369 553 l 1
250 324 m 1
 270 329 l 1
 274 312 287 299 307 299 c 0
 360 299 488 336 537 352 c 0
 561 360 570 368 578 368 c 0
 599 368 643 333 643 314 c 0
 643 294 606 300 420 82 c 1
 436 95 467 111 500 111 c 0
 544 111 565 87 581 6 c 0
 597 -75 621 -83 693 -83 c 0
 762 -83 784 -72 799 -72 c 0
 815 -72 840 -93 840 -111 c 0
 840 -125 796 -136 721 -136 c 0
 576 -136 548 -104 531 -6 c 0
 518 67 502 74 476 74 c 0
 443 74 403 53 374 24 c 0
 265 -85 244 -142 224 -142 c 0
 209 -142 190 -119 190 -102 c 0
 190 -84 225 -58 258 -25 c 0
 446 163 548 293 548 309 c 0
 548 312 546 313 541 313 c 0
 521 313 423 277 353 244 c 0
 337 236 324 227 316 227 c 0
 296 227 255 276 250 324 c 1
EndSplineSet
Validated: 1
EndChar

StartChar: uni3048
Encoding: 12360 12360 15
Width: 1000
VWidth: 0
Flags: HMW
LayerCount: 2
Back
SplineSet
340 725 m 17
 370 665 455 655 565 655 c 3
 590 655 610 620 610 602 c 3
 610 595 603 590 595 590 c 3
 587 590 573 592 560 592 c 3
 515 592 460 580 375 545 c 9
 365 560 l 25
 450 608 l 17
 370 625 335 665 320 720 c 9
 340 725 l 17
200 448 m 9
 220 453 l 17
 225 430 240 415 265 415 c 3
 330 415 485 460 545 480 c 0
 575 490 585 498 595 498 c 3
 620 498 670 455 670 435 c 3
 670 410 620 420 395 145 c 1
 415 160 460 185 500 185 c 3
 550 185 577 160 597 60 c 0
 617 -40 645 -53 735 -53 c 3
 815 -53 845 -37 865 -37 c 3
 885 -37 910 -64 910 -84 c 3
 910 -99 860 -113 770 -113 c 3
 600 -113 560 -75 540 45 c 0
 525 135 505 145 470 145 c 3
 430 145 377 115 342 80 c 0
 210 -52 184 -120 159 -120 c 3
 144 -120 124 -90 124 -70 c 3
 124 -52 165 -20 205 20 c 0
 435 250 570 415 570 435 c 3
 570 438 565 440 560 440 c 3
 535 440 405 395 320 355 c 0
 300 345 285 335 275 335 c 3
 250 335 205 390 200 448 c 9
EndSplineSet
Fore
SplineSet
345 712 m 1
 374 654 456 644 563 644 c 0
 587 644 607 610 607 593 c 0
 607 586 600 581 592 581 c 0
 584 581 571 583 558 583 c 0
 514 583 461 572 379 538 c 1
 369 552 l 1
 452 599 l 1
 374 615 340 654 325 707 c 1
 345 712 l 1
209 444 m 1
 228 448 l 1
 233 426 248 412 272 412 c 0
 335 412 486 456 544 475 c 0
 573 485 582 492 592 492 c 0
 616 492 665 450 665 431 c 0
 665 407 616 417 398 150 c 1
 417 165 461 188 500 188 c 0
 548 188 575 164 594 67 c 0
 613 -30 641 -42 728 -42 c 0
 806 -42 835 -27 854 -27 c 0
 873 -27 898 -53 898 -72 c 0
 898 -87 849 -101 762 -101 c 0
 597 -101 558 -63 539 53 c 0
 524 140 505 150 471 150 c 0
 432 150 381 121 347 87 c 0
 219 -41 193 -107 169 -107 c 0
 154 -107 135 -78 135 -59 c 0
 135 -42 175 -11 214 28 c 0
 437 251 568 412 568 431 c 0
 568 434 563 436 558 436 c 0
 534 436 407 392 325 353 c 0
 306 343 292 334 282 334 c 0
 258 334 214 388 209 444 c 1
EndSplineSet
Validated: 1
EndChar

StartChar: uni3049
Encoding: 12361 12361 16
Width: 1000
VWidth: 0
Flags: HMW
LayerCount: 2
Back
SplineSet
142 0 m 3
 142 12 174 20 208 37 c 0
 292 79 529 209 677 209 c 3
 780 209 840 142 840 69 c 3
 840 -30 740 -110 635 -110 c 3
 575.966 -110 522 -70 505 10 c 9
 525 15 l 17
 542 -27 582 -56 627 -56 c 3
 705 -56 777 10 777 82 c 3
 777 128 730 173 661 173 c 3
 480 173 205 -47 187 -47 c 3
 173 -47 142 -17 142 0 c 3
665 389 m 3
 661 389 651 388 647 387 c 9
 642 406 l 17
 655 411 682 417 703 417 c 3
 804 417 871 365 871 331 c 3
 871 314 847 290 830 290 c 3
 817 290 808 307 800 320 c 0
 775 358 725 389 665 389 c 3
497 388 m 3
 512 388 530 370 530 355 c 3
 530 334 395 285 272 285 c 3
 230 285 185 317 165 360 c 9
 179 370 l 17
 204 347 238 332 280 332 c 3
 400 332 482 388 497 388 c 3
301 532 m 9
 297 552 l 17
 304 554 317 555 323 555 c 3
 375 555 421 527 421 508 c 3
 421 504 413 491 409 466 c 0
 405 441 397 335 397 158 c 3
 397 10 402 -67 402 -92 c 3
 402 -122 369 -152 348 -152 c 3
 335 -152 333 -129 320 -104 c 0
 303 -70 263 -40 225 -10 c 9
 238 1 l 17
 276 -20 335 -54 348 -60 c 1
 351 3 354 162 354 306 c 3
 354 458 349.301 490.097 345 503 c 0
 337 527 314 532 301 532 c 9
EndSplineSet
Fore
SplineSet
255 2 m 1
 290 -19 342 -48 353 -53 c 1
 354 -28 355 19 356 67 c 1
 319 45 281 20 255 2 c 1
660 386 m 0
 656 386 647 385 643 384 c 1
 638 403 l 1
 651 408 677 413 697 413 c 0
 795 413 860 363 860 330 c 0
 860 314 836 290 820 290 c 0
 807 290 799 306 791 319 c 0
 767 356 718 386 660 386 c 0
307 525 m 1
 303 544 l 1
 310 546 322 547 328 547 c 0
 378 547 423 520 423 502 c 0
 423 498 416 485 412 461 c 0
 410 448 407 410 404 349 c 1
 455 365 488 385 497 385 c 0
 512 385 529 368 529 353 c 0
 529 340 474 316 402 300 c 1
 401 261 400 214 400 162 c 0
 400 152 400 144 400 135 c 1
 491 175 594 212 672 212 c 0
 772 212 830 147 830 76 c 0
 830 -20 733 -98 631 -98 c 0
 574 -98 521 -59 505 19 c 1
 524 24 l 1
 540 -17 579 -45 623 -45 c 0
 699 -45 769 19 769 89 c 0
 769 134 723 177 656 177 c 0
 579 177 485 135 401 89 c 1
 402 -8 405 -60 405 -80 c 0
 405 -109 373 -138 353 -138 c 0
 340 -138 338 -116 325 -92 c 0
 310 -62 277 -35 243 -8 c 1
 217 -25 200 -37 196 -37 c 0
 182 -37 153 -7 153 9 c 0
 153 21 184 29 217 45 c 0
 247 60 298 87 357 115 c 1
 358 170 358 232 358 292 c 1
 332 288 305 285 279 285 c 0
 238 285 194 316 175 358 c 1
 189 368 l 1
 213 346 246 331 287 331 c 0
 313 331 336 334 358 338 c 1
 357 458 354 485 350 497 c 0
 342 520 320 525 307 525 c 1
EndSplineSet
Validated: 1
EndChar

StartChar: uni304A
Encoding: 12362 12362 17
Width: 1000
VWidth: 0
Flags: HMW
LayerCount: 2
Back
SplineSet
80 65 m 3
 80 77 115 85 155 105 c 0
 255 155 535 307 710 307 c 3
 830 307 900 230 900 145 c 3
 900 30 780 -65 660 -65 c 3
 590 -65 530 -20 510 75 c 9
 530 80 l 17
 550 30 597 -5 650 -5 c 3
 745 -5 830 71 830 160 c 3
 830 215 775 270 690 270 c 3
 475 270 145 10 130 10 c 3
 115 10 80 45 80 65 c 3
695 525 m 3
 691 525 680 524 675 523 c 9
 670 542 l 17
 685 548 715 555 740 555 c 3
 860 555 935 490 935 455 c 3
 935 435 910 410 890 410 c 3
 875 410 865 430 855 445 c 0
 825 490 770 525 695 525 c 3
495 520 m 3
 510 520 535 500 535 485 c 3
 535 462 375 404 230 404 c 3
 180 404 130 440 105 490 c 9
 120 500 l 17
 150 470 190 455 240 455 c 3
 385 455 480 520 495 520 c 3
265 695 m 9
 262 715 l 17
 270 717 283 718 290 718 c 3
 350 718 403 685 403 665 c 3
 403 660 394 645 389 615 c 0
 384 585 375 460 375 250 c 3
 375 75 380 -15 380 -45 c 3
 380 -80 345 -115 320 -115 c 3
 305 -115 305 -90 290 -60 c 0
 270 -20 220 20 175 55 c 9
 190 65 l 17
 235 40 305 5 320 0 c 1
 325 75 330 255 330 425 c 3
 330 605 325 645 320 660 c 0
 310 690 280 695 265 695 c 9
EndSplineSet
Fore
SplineSet
210 65 m 1
 250 42 312 9 325 5 c 1
 327 34 329 87 331 142 c 1
 286 115 242 87 210 65 c 1
689 518 m 0
 685 518 675 517 670 516 c 1
 665 535 l 1
 680 541 709 547 733 547 c 0
 849 547 922 484 922 450 c 0
 922 431 897 407 878 407 c 0
 863 407 854 426 844 441 c 0
 815 485 762 518 689 518 c 0
272 683 m 1
 269 703 l 1
 277 705 289 705 296 705 c 0
 354 705 406 673 406 654 c 0
 406 649 397 635 392 606 c 0
 389 590 386 543 383 470 c 1
 446 489 486 513 495 513 c 0
 510 513 534 494 534 479 c 0
 534 464 467 435 381 417 c 1
 380 370 379 315 379 252 c 0
 379 239 379 227 379 215 c 1
 488 263 611 307 704 307 c 0
 820 307 888 232 888 150 c 0
 888 38 771 -54 655 -54 c 0
 587 -54 529 -10 510 82 c 1
 529 87 l 1
 548 39 595 4 646 4 c 0
 738 4 820 78 820 164 c 0
 820 217 766 271 684 271 c 0
 592 271 479 222 379 167 c 1
 380 52 384 -11 384 -35 c 0
 384 -69 349 -103 325 -103 c 0
 310 -103 311 -78 296 -49 c 0
 278 -14 236 22 196 54 c 1
 165 33 144 19 141 19 c 0
 126 19 93 53 93 72 c 0
 93 84 126 92 165 111 c 0
 201 129 262 161 332 194 c 1
 334 260 335 335 335 409 c 1
 303 404 270 401 238 401 c 0
 190 401 141 436 117 484 c 1
 131 494 l 1
 160 465 200 450 248 450 c 0
 280 450 309 453 335 458 c 1
 334 601 329 636 325 649 c 0
 315 678 287 683 272 683 c 1
EndSplineSet
Validated: 1
EndChar

StartChar: uni304B
Encoding: 12363 12363 18
Width: 1000
VWidth: 0
Flags: HMW
LayerCount: 2
Back
SplineSet
705 480 m 9
 715 500 l 17
 830 455 930 345 930 235 c 3
 930 211 905 185 890 185 c 3
 870 185 870 210 840 210 c 3
 830 210 770 205 735 200 c 9
 730 220 l 17
 815 245 850 260 850 285 c 3
 850 325 810 415 705 480 c 9
405 450 m 0
 285 150 180 -100 140 -100 c 3
 125 -100 105 -80 105 -60 c 3
 105 -35 160 10 315 360 c 0
 375 495 410 625 410 656 c 3
 410 675 390 690 357 692 c 9
 360 712 l 17
 365 713 380 715 390 715 c 3
 450 715 505 675 505 655 c 3
 505 647 493 639 483 625 c 0
 473 611 445 550 405 450 c 0
108 465 m 17
 115 442 130 425 150 425 c 3
 210 425 375 495 495 495 c 3
 565 495 617 420 617 313 c 3
 617 165 555 -5 500 -60 c 0
 470 -90 430 -105 402 -105 c 3
 390 -105 385 -95 380 -80 c 0
 373 -59 350 -35 295 -5 c 9
 305 13 l 17
 350 -7 395 -25 420 -25 c 3
 435 -25 447 -20 457 -10 c 0
 512 45 565 220 565 335 c 3
 565 410 530 458 480 458 c 3
 400 458 292 415 252 395 c 0
 212 375 185 348 170 348 c 3
 147 348 102 390 90 455 c 9
 108 465 l 17
EndSplineSet
Fore
SplineSet
699 475 m 1
 709 494 l 1
 821 450 917 344 917 237 c 0
 917 214 893 188 878 188 c 0
 859 188 859 213 830 213 c 0
 820 213 762 208 728 203 c 1
 723 222 l 1
 805 246 840 261 840 285 c 0
 840 324 801 412 699 475 c 1
120 460 m 1
 127 438 141 421 160 421 c 0
 198 421 281 451 366 471 c 1
 396 556 413 624 413 645 c 0
 413 663 393 678 361 680 c 1
 364 700 l 1
 369 701 383 703 393 703 c 0
 451 703 505 663 505 644 c 0
 505 636 494 629 484 615 c 0
 476 603 454 557 423 482 c 1
 448 486 472 489 495 489 c 0
 563 489 613 417 613 313 c 0
 613 169 553 4 500 -49 c 0
 471 -78 432 -93 405 -93 c 0
 393 -93 389 -84 384 -69 c 0
 377 -49 354 -25 301 4 c 1
 311 22 l 1
 355 3 398 -15 422 -15 c 0
 437 -15 448 -11 458 -1 c 0
 511 52 563 222 563 334 c 0
 563 407 529 453 481 453 c 0
 458 453 432 450 407 444 c 1
 291 154 190 -88 151 -88 c 0
 136 -88 117 -68 117 -49 c 0
 117 -25 171 19 321 358 c 0
 332 382 341 405 350 428 c 1
 312 416 277 401 259 392 c 0
 220 373 195 347 180 347 c 0
 158 347 114 387 102 450 c 1
 120 460 l 1
EndSplineSet
Validated: 1
EndChar

StartChar: uni304C
Encoding: 12364 12364 19
Width: 1000
VWidth: 0
Flags: HMW
LayerCount: 2
Back
Refer: 94 12441 N 1 0 0 1 -10 0 2
Refer: 18 12363 N 1 0 0 1 0 0 2
Fore
SplineSet
694 672 m 1
 708 686 l 1
 795 649 834 591 834 565 c 0
 834 552 815 533 796 533 c 0
 772 533 772 609 694 672 c 1
781 727 m 1
 796 741 l 1
 878 716 931 659 931 630 c 0
 931 615 912 596 893 596 c 0
 874 596 863 674 781 727 c 1
699 475 m 1
 709 494 l 1
 821 450 917 344 917 237 c 0
 917 214 893 188 878 188 c 0
 859 188 859 213 830 213 c 0
 820 213 762 208 728 203 c 1
 723 222 l 1
 805 246 840 261 840 285 c 0
 840 324 801 412 699 475 c 1
120 460 m 1
 127 438 141 421 160 421 c 0
 198 421 281 451 366 471 c 1
 396 556 413 624 413 645 c 0
 413 663 393 678 361 680 c 1
 364 700 l 1
 369 701 383 703 393 703 c 0
 451 703 505 663 505 644 c 0
 505 636 494 629 484 615 c 0
 476 603 454 557 423 482 c 1
 448 486 472 489 495 489 c 0
 563 489 613 417 613 313 c 0
 613 169 553 4 500 -49 c 0
 471 -78 432 -93 405 -93 c 0
 393 -93 389 -84 384 -69 c 0
 377 -49 354 -25 301 4 c 1
 311 22 l 1
 355 3 398 -15 422 -15 c 0
 437 -15 448 -11 458 -1 c 0
 511 52 563 222 563 334 c 0
 563 407 529 453 481 453 c 0
 458 453 432 450 407 444 c 1
 291 154 190 -88 151 -88 c 0
 136 -88 117 -68 117 -49 c 0
 117 -25 171 19 321 358 c 0
 332 382 341 405 350 428 c 1
 312 416 277 401 259 392 c 0
 220 373 195 347 180 347 c 0
 158 347 114 387 102 450 c 1
 120 460 l 1
EndSplineSet
Validated: 1
EndChar

StartChar: uni304D
Encoding: 12365 12365 20
Width: 1000
VWidth: 0
Flags: HMW
LayerCount: 2
Back
SplineSet
770 500 m 3
 785 500 812 477 812 462 c 3
 812 435 535 307 345 307 c 3
 285 307 225 345 205 395 c 9
 220 405 l 17
 245 370 297 355 347 355 c 3
 452 355 605 410 685 450 c 0
 745 480 760 500 770 500 c 3
645 645 m 3
 660 645 685 620 685 605 c 3
 685 585 480 495 325 495 c 3
 280 495 225 532 200 572 c 9
 213 585 l 17
 240 557 280 542 330 542 c 3
 421 542 520 580 580 610 c 0
 620 630 635 645 645 645 c 3
452 687 m 0
 452 662 475 625 525 555 c 0
 625 415 750 215 750 175 c 3
 750 145 715 95 695 95 c 3
 670 95 615 160 445 160 c 3
 345 160 285 120 285 60 c 3
 285 -15 365 -60 475 -60 c 3
 565 -60 610 -40 629 -40 c 3
 650 -40 665 -70 665 -85 c 3
 665 -105 580 -120 510 -120 c 3
 325 -120 237 -40 237 45 c 3
 237 130 325 195 470 195 c 3
 540 195 645 178 660 178 c 3
 668 178 672 182 672 188 c 3
 672 273 415 661 353 692 c 0
 343 697 332 699 322 699 c 3
 317 699 310 698 305 697 c 9
 300 716 l 17
 315 724 340 730 360 730 c 3
 405 730 452 707 452 687 c 0
EndSplineSet
Fore
SplineSet
641 635 m 0
 656 635 679 611 679 596 c 0
 679 585 618 553 538 527 c 1
 563 492 589 454 614 416 c 1
 639 426 661 437 679 446 c 0
 737 475 752 494 762 494 c 0
 777 494 803 472 803 457 c 0
 803 444 734 406 642 371 c 1
 698 282 742 202 742 179 c 0
 742 150 708 101 689 101 c 0
 665 101 612 164 447 164 c 0
 350 164 291 125 291 67 c 0
 291 -6 369 -49 476 -49 c 0
 563 -49 607 -30 625 -30 c 0
 645 -30 660 -58 660 -73 c 0
 660 -92 578 -107 510 -107 c 0
 331 -107 245 -29 245 53 c 0
 245 135 330 198 471 198 c 0
 539 198 640 182 655 182 c 0
 663 182 667 185 667 191 c 0
 667 219 637 283 596 355 c 1
 516 328 426 307 350 307 c 0
 292 307 233 344 214 392 c 1
 228 402 l 1
 252 368 304 353 352 353 c 0
 416 353 498 375 570 400 c 1
 547 439 520 478 495 515 c 1
 441 500 383 489 330 489 c 0
 286 489 233 525 209 564 c 1
 222 576 l 1
 248 549 287 535 335 535 c 0
 379 535 424 543 466 556 c 1
 420 620 377 670 357 680 c 0
 347 685 337 687 327 687 c 0
 322 687 316 686 311 685 c 1
 306 704 l 1
 321 712 345 717 364 717 c 0
 408 717 453 694 453 675 c 0
 453 654 471 623 508 570 c 1
 534 580 558 591 578 601 c 0
 617 620 631 635 641 635 c 0
EndSplineSet
Validated: 1
EndChar

StartChar: uni304E
Encoding: 12366 12366 21
Width: 1000
VWidth: 0
Flags: HMW
LayerCount: 2
Back
Refer: 94 12441 N 1 0 0 1 0 5 2
Refer: 20 12365 N 1 0 0 1 0 0 2
Fore
SplineSet
705 680 m 1
 719 694 l 1
 806 657 845 599 845 573 c 0
 845 560 826 541 807 541 c 0
 783 541 783 617 705 680 c 1
792 735 m 1
 807 749 l 1
 889 724 942 667 942 638 c 0
 942 623 923 604 904 604 c 0
 885 604 874 682 792 735 c 1
641 635 m 0
 656 635 679 611 679 596 c 0
 679 585 618 553 538 527 c 1
 563 492 589 454 614 416 c 1
 639 426 661 437 679 446 c 0
 737 475 752 494 762 494 c 0
 777 494 803 472 803 457 c 0
 803 444 734 406 642 371 c 1
 698 282 742 202 742 179 c 0
 742 150 708 101 689 101 c 0
 665 101 612 164 447 164 c 0
 350 164 291 125 291 67 c 0
 291 -6 369 -49 476 -49 c 0
 563 -49 607 -30 625 -30 c 0
 645 -30 660 -58 660 -73 c 0
 660 -92 578 -107 510 -107 c 0
 331 -107 245 -29 245 53 c 0
 245 135 330 198 471 198 c 0
 539 198 640 182 655 182 c 0
 663 182 667 185 667 191 c 0
 667 219 637 283 596 355 c 1
 516 328 426 307 350 307 c 0
 292 307 233 344 214 392 c 1
 228 402 l 1
 252 368 304 353 352 353 c 0
 416 353 498 375 570 400 c 1
 547 439 520 478 495 515 c 1
 441 500 383 489 330 489 c 0
 286 489 233 525 209 564 c 1
 222 576 l 1
 248 549 287 535 335 535 c 0
 379 535 424 543 466 556 c 1
 420 620 377 670 357 680 c 0
 347 685 337 687 327 687 c 0
 322 687 316 686 311 685 c 1
 306 704 l 1
 321 712 345 717 364 717 c 0
 408 717 453 694 453 675 c 0
 453 654 471 623 508 570 c 1
 534 580 558 591 578 601 c 0
 617 620 631 635 641 635 c 0
EndSplineSet
Validated: 1
EndChar

StartChar: uni304F
Encoding: 12367 12367 22
Width: 1000
VWidth: 0
Flags: HMW
LayerCount: 2
Back
SplineSet
530 735 m 9
 545 745 l 17
 595 720 635 665 635 640 c 3
 635 630 615 625 585 600 c 0
 525 550 325 370 325 320 c 3
 325 275 432 185 572 25 c 0
 607 -15 642 -60 642 -85 c 3
 642 -110 618 -142 595 -142 c 3
 573 -142 567 -90 507 0 c 0
 387 180 285 260 285 315 c 3
 285 370 390 485 450 555 c 0
 510 625 555 670 555 695 c 3
 555 705 545 725 530 735 c 9
EndSplineSet
Fore
SplineSet
529 722 m 1
 544 732 l 1
 592 708 631 654 631 630 c 0
 631 620 611 615 582 591 c 0
 524 543 330 367 330 319 c 0
 330 275 434 188 570 33 c 0
 604 -6 638 -49 638 -73 c 0
 638 -97 614 -129 592 -129 c 0
 571 -129 565 -78 507 9 c 0
 391 184 291 262 291 315 c 0
 291 368 394 479 452 547 c 0
 510 615 553 659 553 683 c 0
 553 693 544 712 529 722 c 1
EndSplineSet
Validated: 1
EndChar

StartChar: uni3050
Encoding: 12368 12368 23
Width: 1000
VWidth: 0
Flags: HMW
LayerCount: 2
Back
Refer: 94 12441 N 1 0 0 1 -110 -180 2
Refer: 22 12367 N 1 0 0 1 0 0 2
Fore
SplineSet
594 492 m 1
 608 506 l 1
 695 469 734 411 734 385 c 0
 734 372 715 353 696 353 c 0
 672 353 672 429 594 492 c 1
681 547 m 1
 696 561 l 1
 778 536 831 479 831 450 c 0
 831 435 812 416 793 416 c 0
 774 416 763 494 681 547 c 1
529 722 m 1
 544 732 l 1
 592 708 631 654 631 630 c 0
 631 620 611 615 582 591 c 0
 524 543 330 367 330 319 c 0
 330 275 434 188 570 33 c 0
 604 -6 638 -49 638 -73 c 0
 638 -97 614 -129 592 -129 c 0
 571 -129 565 -78 507 9 c 0
 391 184 291 262 291 315 c 0
 291 368 394 479 452 547 c 0
 510 615 553 659 553 683 c 0
 553 693 544 712 529 722 c 1
EndSplineSet
Validated: 1
EndChar

StartChar: uni3051
Encoding: 12369 12369 24
Width: 1000
VWidth: 0
Flags: HMW
LayerCount: 2
Back
SplineSet
195 695 m 9
 210 710 l 17
 260 675 307 610 307 585 c 3
 307 573 298 566 280 535 c 0
 240 465 200 345 200 230 c 3
 200 170 205 120 215 90 c 9
 340 355 l 25
 360 345 l 17
 305 215 255 65 255 15 c 3
 255 -20 270 -35 270 -50 c 3
 270 -70 250 -90 230 -90 c 3
 200 -90 155 55 155 187 c 3
 155 410 230 565 230 620 c 3
 230 645 215 675 195 695 c 9
675 670 m 0
 672 685 652 700 620 700 c 9
 615 720 l 17
 625 723 644 725 654 725 c 3
 710 725 760 695 760 675 c 3
 760 668 753 655 750 640 c 0
 745 615 742 540 742 475 c 3
 742 385 745 335 745 265 c 3
 745 120 690 -55 485 -130 c 9
 475 -115 l 17
 635 -20 685 105 685 365 c 9
 685 465 l 17
 685 605 680 645 675 670 c 0
865 530 m 3
 880 530 900 507 900 492 c 3
 900 470 710 420 570 420 c 3
 535 420 495 455 465 495 c 9
 475 510 l 17
 505 485 545 470 580 470 c 3
 740 470 850 530 865 530 c 3
EndSplineSet
Fore
SplineSet
204 683 m 1
 219 698 l 1
 268 664 313 600 313 576 c 0
 313 564 304 558 287 528 c 0
 248 460 209 344 209 232 c 0
 209 174 214 125 224 96 c 1
 345 353 l 1
 364 344 l 1
 311 218 262 72 262 24 c 0
 262 -10 277 -25 277 -40 c 0
 277 -59 257 -78 238 -78 c 0
 209 -78 165 62 165 190 c 0
 165 406 238 557 238 610 c 0
 238 634 223 664 204 683 c 1
864 523 m 0
 879 523 898 501 898 486 c 0
 898 473 830 449 745 432 c 1
 746 367 747 324 747 266 c 0
 747 125 694 -44 495 -117 c 1
 485 -103 l 1
 640 -11 689 111 689 363 c 2
 689 422 l 1
 646 415 603 412 563 412 c 0
 529 412 490 445 461 484 c 1
 471 499 l 1
 500 475 539 460 573 460 c 0
 615 460 654 465 689 471 c 1
 689 598 684 635 679 659 c 0
 676 674 657 688 626 688 c 1
 621 707 l 1
 631 710 649 712 659 712 c 0
 713 712 762 683 762 664 c 0
 762 657 755 645 752 630 c 0
 747 607 744 543 744 483 c 1
 811 501 855 523 864 523 c 0
EndSplineSet
Validated: 1
EndChar

StartChar: uni3052
Encoding: 12370 12370 25
Width: 1000
VWidth: 0
Flags: HMW
LayerCount: 2
Back
SplineSet
865 535 m 3
 880 535 900 512 900 497 c 3
 900 475 700 420 555 420 c 3
 520 420 480 455 450 495 c 9
 460 510 l 17
 490 485 530 470 565 470 c 3
 730 470 850 535 865 535 c 3
743 744 m 9
 760 758 l 17
 845 713 879 654 879 624 c 0
 879 610 860 593 838 593 c 0
 810 593 818 673 743 744 c 9
833 783 m 9
 849 797 l 17
 932 764 979 706 979 673 c 0
 979 659 961 639 938 639 c 0
 915 639 914 720 833 783 c 9
195 695 m 9
 210 710 l 17
 260 675 307 610 307 585 c 3
 307 573 298 566 280 535 c 0
 240 465 200 345 200 230 c 3
 200 170 205 120 215 90 c 9
 340 355 l 25
 360 345 l 17
 305 215 255 65 255 15 c 3
 255 -20 270 -35 270 -50 c 3
 270 -70 250 -90 230 -90 c 3
 200 -90 155 55 155 187 c 3
 155 410 230 565 230 620 c 3
 230 645 215 675 195 695 c 9
670 670 m 0
 667 685 647 700 615 700 c 9
 610 720 l 17
 620 723 639 725 649 725 c 3
 705 725 750 695 750 675 c 3
 750 668 744 655 742 640 c 0
 739 615 737 530 737 475 c 3
 737 385 740 335 740 265 c 3
 740 120 685 -55 480 -130 c 9
 470 -115 l 17
 630 -20 680 105 680 365 c 9
 680 465 l 17
 680 605 675 645 670 670 c 0
EndSplineSet
Fore
SplineSet
736 731 m 1
 752 744 l 1
 834 700 868 643 868 614 c 0
 868 600 849 584 828 584 c 0
 801 584 809 662 736 731 c 1
823 769 m 1
 839 782 l 1
 920 750 965 694 965 662 c 0
 965 648 947 629 925 629 c 0
 903 629 902 708 823 769 c 1
204 683 m 1
 219 698 l 1
 268 664 313 600 313 576 c 0
 313 564 304 558 287 528 c 0
 248 460 209 344 209 232 c 0
 209 174 214 125 224 96 c 1
 345 353 l 1
 364 344 l 1
 311 218 262 72 262 24 c 0
 262 -10 277 -25 277 -40 c 0
 277 -59 257 -78 238 -78 c 0
 209 -78 165 62 165 190 c 0
 165 406 238 557 238 610 c 0
 238 634 223 664 204 683 c 1
665 659 m 0
 662 674 643 688 612 688 c 1
 607 707 l 1
 617 710 635 712 645 712 c 0
 699 712 742 683 742 664 c 0
 742 657 737 645 735 630 c 0
 732 608 730 539 730 487 c 1
 800 505 845 528 854 528 c 0
 869 528 888 506 888 491 c 0
 888 478 817 453 730 436 c 1
 731 369 733 325 733 266 c 0
 733 125 680 -44 481 -117 c 1
 471 -103 l 1
 626 -11 675 111 675 363 c 2
 675 426 l 1
 634 420 591 416 553 416 c 0
 519 416 481 450 452 489 c 1
 461 504 l 1
 490 480 529 465 563 465 c 0
 603 465 641 469 675 475 c 1
 675 599 670 636 665 659 c 0
EndSplineSet
Validated: 1
EndChar

StartChar: uni3053
Encoding: 12371 12371 26
Width: 1000
VWidth: 0
Flags: HMW
LayerCount: 2
Back
SplineSet
625 550 m 0
 565 538 465 485 372 415 c 9
 360 430 l 25
 485 547 l 17
 350 547 283 592 253 652 c 9
 265 665 l 17
 300 625 365 605 455 605 c 3
 625 605 675 627 695 627 c 3
 715 627 740 600 740 580 c 3
 740 557 685 562 625 550 c 0
200 195 m 9
 220 190 l 17
 218 180 217 170 217 165 c 3
 217 85 300 5 495 5 c 3
 675 5 750 37 765 37 c 3
 787 37 810 5 810 -10 c 3
 810 -43 660 -60 535 -60 c 3
 273 -60 188 42 188 140 c 3
 188 160 194 184 200 195 c 9
EndSplineSet
Fore
SplineSet
621 542 m 0
 563 530 466 480 376 412 c 1
 364 426 l 1
 485 540 l 1
 354 540 289 583 260 641 c 1
 272 654 l 1
 306 615 369 596 456 596 c 0
 621 596 670 617 689 617 c 0
 708 617 733 591 733 572 c 0
 733 550 679 554 621 542 c 0
209 198 m 1
 228 193 l 1
 226 183 225 174 225 169 c 0
 225 91 306 14 495 14 c 0
 670 14 742 45 757 45 c 0
 778 45 801 14 801 -1 c 0
 801 -33 655 -49 534 -49 c 0
 280 -49 197 50 197 145 c 0
 197 164 203 187 209 198 c 1
EndSplineSet
Validated: 1
EndChar

StartChar: uni3054
Encoding: 12372 12372 27
Width: 1000
VWidth: 0
Flags: HMW
LayerCount: 2
Back
SplineSet
625 550 m 0
 565 538 465 485 372 415 c 9
 360 430 l 25
 485 547 l 17
 350 547 283 592 253 652 c 9
 265 665 l 17
 300 625 365 605 455 605 c 3
 625 605 670 627 690 627 c 3
 710 627 735 600 735 580 c 3
 735 557 685 562 625 550 c 0
200 195 m 9
 220 190 l 17
 218 180 217 170 217 165 c 3
 217 85 300 5 495 5 c 3
 675 5 750 37 765 37 c 3
 787 37 810 5 810 -10 c 3
 810 -43 660 -60 535 -60 c 3
 273 -60 188 42 188 140 c 3
 188 160 194 184 200 195 c 9
EndSplineSet
Refer: 94 12441 N 1 0 0 1 10 15 2
Fore
SplineSet
715 689 m 1
 730 704 l 1
 817 667 856 608 856 582 c 0
 856 569 836 550 817 550 c 0
 793 550 793 626 715 689 c 1
803 744 m 1
 817 759 l 1
 899 734 953 676 953 647 c 0
 953 632 933 613 914 613 c 0
 895 613 885 691 803 744 c 1
621 542 m 0
 563 530 466 480 376 412 c 1
 364 426 l 1
 485 540 l 1
 354 540 289 583 260 641 c 1
 272 654 l 1
 306 615 369 596 456 596 c 0
 621 596 665 617 684 617 c 0
 703 617 728 591 728 572 c 0
 728 550 679 554 621 542 c 0
209 198 m 1
 228 193 l 1
 226 183 225 174 225 169 c 0
 225 91 306 14 495 14 c 0
 670 14 742 45 757 45 c 0
 778 45 801 14 801 -1 c 0
 801 -33 655 -49 534 -49 c 0
 280 -49 197 50 197 145 c 0
 197 164 203 187 209 198 c 1
EndSplineSet
Validated: 1
EndChar

StartChar: uni3055
Encoding: 12373 12373 28
Width: 1000
VWidth: 0
Flags: HMW
LayerCount: 2
Back
SplineSet
462 687 m 0
 462 670 480 630 525 570 c 0
 615 450 750 240 750 205 c 3
 750 175 710 120 685 120 c 3
 660 120 595 190 450 190 c 3
 340 190 265 155 265 75 c 3
 265 -5 365 -55 495 -55 c 3
 575 -55 620 -40 639 -40 c 3
 660 -40 675 -70 675 -85 c 3
 675 -105 595 -117 525 -117 c 3
 325 -117 217 -30 217 65 c 3
 217 170 320 225 470 225 c 3
 550 225 645 205 665 205 c 3
 669 205 672 208 672 212 c 3
 672 295 445 615 380 680 c 0
 370 690 353 694 340 694 c 3
 335 694 327 693 323 692 c 9
 315 710 l 17
 330 718 353 723 375 723 c 3
 425 723 462 700 462 687 c 0
767 600 m 3
 783 600 815 585 815 570 c 3
 815 537 525 393 325 393 c 3
 265 393 200 430 165 495 c 9
 180 505 l 17
 215 465 275 445 330 445 c 3
 435 445 579 493 659 533 c 0
 739 573 752 600 767 600 c 3
EndSplineSet
Fore
SplineSet
759 591 m 0
 775 591 806 577 806 562 c 0
 806 544 717 492 604 450 c 1
 675 345 742 232 742 208 c 0
 742 179 703 125 679 125 c 0
 655 125 593 193 452 193 c 0
 345 193 272 160 272 82 c 0
 272 4 369 -44 495 -44 c 0
 573 -44 617 -30 635 -30 c 0
 655 -30 670 -58 670 -73 c 0
 670 -92 592 -104 524 -104 c 0
 330 -104 225 -20 225 72 c 0
 225 174 325 227 471 227 c 0
 549 227 641 208 660 208 c 0
 664 208 667 211 667 215 c 0
 667 253 617 343 558 434 c 1
 482 409 400 390 330 390 c 0
 272 390 209 426 175 489 c 1
 190 499 l 1
 224 460 282 441 335 441 c 0
 394 441 465 456 530 477 c 1
 472 562 412 641 384 669 c 0
 374 679 358 682 345 682 c 0
 340 682 332 681 328 680 c 1
 321 698 l 1
 336 706 358 710 379 710 c 0
 427 710 463 688 463 675 c 0
 463 659 480 620 524 562 c 0
 540 541 557 517 575 492 c 1
 605 503 632 515 654 526 c 0
 732 565 744 591 759 591 c 0
EndSplineSet
Validated: 1
EndChar

StartChar: uni3056
Encoding: 12374 12374 29
Width: 1000
VWidth: 0
Flags: HMW
LayerCount: 2
Back
SplineSet
735 704 m 9
 750 720 l 17
 835 689 885 630 885 600 c 3
 885 585 863 566 846 566 c 3
 820 566 820 642 735 704 c 9
823 765 m 9
 837 781 l 17
 920 760 982 702 982 671 c 3
 982 654 960 635 943 635 c 3
 922 635 915 708 823 765 c 9
462 687 m 0
 462 670 480 630 525 570 c 0
 615 450 750 240 750 205 c 3
 750 175 710 120 685 120 c 3
 660 120 595 190 450 190 c 3
 340 190 265 155 265 75 c 3
 265 -5 365 -55 495 -55 c 3
 575 -55 620 -40 639 -40 c 3
 660 -40 675 -70 675 -85 c 3
 675 -105 595 -117 525 -117 c 3
 325 -117 217 -30 217 65 c 3
 217 170 320 225 470 225 c 3
 550 225 645 205 665 205 c 3
 669 205 672 208 672 212 c 3
 672 295 445 615 380 680 c 0
 370 690 353 694 340 694 c 3
 335 694 327 693 323 692 c 9
 315 710 l 17
 330 718 353 723 375 723 c 3
 425 723 462 700 462 687 c 0
757 592 m 3
 773 592 805 577 805 562 c 3
 805 532 520 393 325 393 c 3
 265 393 200 430 165 495 c 9
 180 505 l 17
 215 465 275 445 330 445 c 3
 430 445 574 490 654 530 c 0
 734 570 742 592 757 592 c 3
EndSplineSet
Fore
SplineSet
728 692 m 1
 744 710 l 1
 826 680 875 623 875 594 c 0
 875 579 854 561 838 561 c 0
 813 561 810 632 728 692 c 1
815 754 m 1
 829 770 l 1
 910 750 970 693 970 663 c 0
 970 647 948 628 932 628 c 0
 912 628 904 699 815 754 c 1
749 583 m 0
 765 583 796 569 796 554 c 0
 796 538 712 490 604 450 c 1
 675 345 742 232 742 208 c 0
 742 179 703 125 679 125 c 0
 655 125 593 193 452 193 c 0
 345 193 272 160 272 82 c 0
 272 4 369 -44 495 -44 c 0
 573 -44 617 -30 635 -30 c 0
 655 -30 670 -58 670 -73 c 0
 670 -92 592 -104 524 -104 c 0
 330 -104 225 -20 225 72 c 0
 225 174 325 227 471 227 c 0
 549 227 641 208 660 208 c 0
 664 208 667 211 667 215 c 0
 667 253 617 343 558 434 c 1
 482 409 400 390 330 390 c 0
 272 390 209 426 175 489 c 1
 190 499 l 1
 224 460 282 441 335 441 c 0
 392 441 465 456 530 476 c 1
 472 561 412 641 384 669 c 0
 374 679 358 682 345 682 c 0
 340 682 332 681 328 680 c 1
 321 698 l 1
 336 706 358 710 379 710 c 0
 427 710 463 688 463 675 c 0
 463 659 480 620 524 562 c 0
 540 541 557 517 575 492 c 1
 603 502 628 513 649 523 c 0
 727 562 734 583 749 583 c 0
EndSplineSet
Validated: 1
EndChar

StartChar: uni3057
Encoding: 12375 12375 30
Width: 1000
VWidth: 0
Flags: HMW
LayerCount: 2
Back
SplineSet
225 713 m 9
 223 733 l 17
 226 734 237 735 240 735 c 3
 320 735 379 677 379 655 c 3
 379 642 368 634 359 598 c 0
 341 527 310 300 310 130 c 3
 310 -15 355 -60 460 -60 c 3
 620 -60 740 35 835 160 c 9
 850 145 l 17
 780 15 640 -125 455 -125 c 3
 335 -125 255 -45 255 110 c 3
 255 290 285 565 285 655 c 3
 285 680 265 710 225 713 c 9
EndSplineSet
Fore
SplineSet
233 701 m 1
 231 720 l 1
 234 721 245 722 248 722 c 0
 326 722 383 665 383 644 c 0
 383 631 372 624 363 589 c 0
 346 520 316 300 316 135 c 0
 316 -6 359 -49 461 -49 c 0
 616 -49 733 43 825 164 c 1
 840 150 l 1
 772 24 635 -112 456 -112 c 0
 340 -112 262 -34 262 116 c 0
 262 291 291 557 291 644 c 0
 291 668 272 698 233 701 c 1
EndSplineSet
Validated: 1
EndChar

StartChar: uni3058
Encoding: 12376 12376 31
Width: 1000
VWidth: 0
Flags: HMW
LayerCount: 2
Back
Refer: 94 12441 N 1 0 0 1 -110 -80 2
Refer: 30 12375 N 1 0 0 1 0 0 2
Fore
SplineSet
594 592 m 1
 608 606 l 1
 695 569 734 511 734 485 c 0
 734 472 715 453 696 453 c 0
 672 453 672 529 594 592 c 1
681 647 m 1
 696 661 l 1
 778 636 831 579 831 550 c 0
 831 535 812 516 793 516 c 0
 774 516 763 594 681 647 c 1
233 701 m 1
 231 720 l 1
 234 721 245 722 248 722 c 0
 326 722 383 665 383 644 c 0
 383 631 372 624 363 589 c 0
 346 520 316 300 316 135 c 0
 316 -6 359 -49 461 -49 c 0
 616 -49 733 43 825 164 c 1
 840 150 l 1
 772 24 635 -112 456 -112 c 0
 340 -112 262 -34 262 116 c 0
 262 291 291 557 291 644 c 0
 291 668 272 698 233 701 c 1
EndSplineSet
Validated: 1
EndChar

StartChar: uni3059
Encoding: 12377 12377 32
Width: 1000
VWidth: 0
Flags: HMW
LayerCount: 2
Back
SplineSet
325 -130 m 9
 315 -115 l 17
 460 -50 510 45 515 160 c 1
 505 140 480 120 445 120 c 3
 390 120 335 170 335 255 c 3
 335 330 390 382 455 382 c 3
 530 382 585 310 585 210 c 3
 585 65 520 -80 325 -130 c 9
445 345 m 3
 405 345 372 310 372 265 c 3
 372 210 405 172 450 172 c 3
 495 172 517 210 517 261 c 3
 517 305 490 345 445 345 c 3
440 720 m 9
 447 702 l 17
 451 703 455 703 457 703 c 3
 480 703 502 690 505 675 c 0
 510 650 515 550 512 360 c 9
 558 300 l 17
 558 375 563 610 570 645 c 0
 575 670 580 675 580 682 c 3
 580 697 540 728 480 728 c 3
 468 728 452 725 440 720 c 9
65 525 m 9
 80 535 l 17
 95 510 120 495 145 495 c 3
 200 495 325 515 465 535 c 0
 605 555 775 565 830 565 c 3
 875 565 930 547 930 532 c 3
 930 517 910 492 895 492 c 3
 875 492 825 511 715 511 c 3
 580 511 390 500 210 440 c 0
 195 435 173 425 165 425 c 3
 130 425 85 470 65 525 c 9
EndSplineSet
Fore
SplineSet
447 344 m 0
 408 344 376 310 376 266 c 0
 376 213 408 176 452 176 c 0
 496 176 516 213 516 262 c 0
 516 305 491 344 447 344 c 0
78 518 m 1
 93 528 l 1
 108 504 132 489 156 489 c 0
 209 489 330 509 466 528 c 0
 481 530 496 532 512 534 c 1
 511 607 508 649 505 664 c 0
 502 679 480 691 458 691 c 0
 456 691 453 691 449 690 c 1
 442 707 l 1
 454 712 469 715 481 715 c 0
 539 715 578 686 578 671 c 0
 578 664 573 659 568 635 c 0
 566 623 563 586 561 540 c 1
 671 552 779 557 820 557 c 0
 864 557 917 540 917 525 c 0
 917 510 898 486 883 486 c 0
 864 486 816 505 709 505 c 0
 665 505 614 504 560 500 c 1
 558 435 556 362 556 318 c 1
 573 290 582 254 582 213 c 0
 582 72 519 -68 330 -117 c 1
 321 -103 l 1
 462 -40 510 52 515 164 c 1
 505 145 481 125 447 125 c 0
 394 125 340 174 340 256 c 0
 340 329 393 380 456 380 c 0
 476 380 496 374 512 364 c 1
 512 414 512 459 512 496 c 1
 419 487 318 469 219 436 c 0
 204 431 183 421 175 421 c 0
 141 421 97 465 78 518 c 1
EndSplineSet
Validated: 1
EndChar

StartChar: uni305A
Encoding: 12378 12378 33
Width: 1000
VWidth: 0
Flags: HMW
LayerCount: 2
Back
SplineSet
690 738 m 9
 705 753 l 17
 795 715 835 655 835 628 c 3
 835 615 815 595 795 595 c 3
 770 595 770 673 690 738 c 9
790 780 m 9
 805 795 l 17
 890 769 945 710 945 680 c 3
 945 665 925 645 905 645 c 3
 885 645 875 725 790 780 c 9
EndSplineSet
Refer: 32 12377 N 1 0 0 1 0 0 2
Fore
SplineSet
690 738 m 1
 705 753 l 1
 795 715 835 655 835 628 c 0
 835 615 815 595 795 595 c 0
 770 595 770 673 690 738 c 1
790 780 m 1
 805 795 l 1
 890 769 945 710 945 680 c 0
 945 665 925 645 905 645 c 0
 885 645 875 725 790 780 c 1
447 344 m 0
 408 344 376 310 376 266 c 0
 376 213 408 176 452 176 c 0
 496 176 516 213 516 262 c 0
 516 305 491 344 447 344 c 0
78 518 m 1
 93 528 l 1
 108 504 132 489 156 489 c 0
 209 489 330 509 466 528 c 0
 481 530 496 532 512 534 c 1
 511 607 508 649 505 664 c 0
 502 679 480 691 458 691 c 0
 456 691 453 691 449 690 c 1
 442 707 l 1
 454 712 469 715 481 715 c 0
 539 715 578 686 578 671 c 0
 578 664 573 659 568 635 c 0
 566 623 563 586 561 540 c 1
 671 552 779 557 820 557 c 0
 864 557 917 540 917 525 c 0
 917 510 898 486 883 486 c 0
 864 486 816 505 709 505 c 0
 665 505 614 504 560 500 c 1
 558 435 556 362 556 318 c 1
 573 290 582 254 582 213 c 0
 582 72 519 -68 330 -117 c 1
 321 -103 l 1
 462 -40 510 52 515 164 c 1
 505 145 481 125 447 125 c 0
 394 125 340 174 340 256 c 0
 340 329 393 380 456 380 c 0
 476 380 496 374 512 364 c 1
 512 414 512 459 512 496 c 1
 419 487 318 469 219 436 c 0
 204 431 183 421 175 421 c 0
 141 421 97 465 78 518 c 1
EndSplineSet
Validated: 1
EndChar

StartChar: uni305B
Encoding: 12379 12379 34
Width: 1000
VWidth: 0
Flags: HMW
LayerCount: 2
Back
SplineSet
605 205 m 0
 640 275 645 505 645 610 c 3
 645 645 625 667 583 667 c 9
 577 687 l 17
 587 691 605 693 615 693 c 3
 675 693 720 665 720 645 c 3
 720 640 714 631 710 615 c 0
 690 535 700 265 650 165 c 0
 625 115 580 95 555 95 c 3
 535 95 540 110 520 130 c 0
 510 140 480 155 440 170 c 9
 445 190 l 17
 500 175 540 170 560 170 c 3
 580 170 595 185 605 205 c 0
230 560 m 9
 225 580 l 17
 235 583 250 585 260 585 c 3
 325 585 370 555 370 530 c 3
 370 525 364 517 360 505 c 0
 350 475 340 340 340 115 c 3
 340 10 370 -23 490 -23 c 3
 655 -23 720 0 740 0 c 3
 760 0 790 -27 790 -47 c 3
 790 -65 685 -80 530 -80 c 3
 340 -80 287 -25 287 140 c 0
 287 215 290 400 290 500 c 3
 290 538 270 560 230 560 c 9
135 250 m 3
 110 250 65 295 55 340 c 9
 70 350 l 17
 80 330 95 320 120 320 c 3
 225 320 625 465 855 465 c 3
 890 465 925 457 925 445 c 3
 925 430 907 400 890 400 c 3
 875 400 845 405 810 405 c 3
 475 405 165 250 135 250 c 3
EndSplineSet
Fore
SplineSet
146 252 m 0
 122 252 78 295 68 339 c 1
 83 348 l 1
 93 329 107 319 131 319 c 0
 163 319 222 333 295 352 c 1
 296 405 296 456 296 494 c 0
 296 531 277 552 238 552 c 1
 233 572 l 1
 243 575 257 576 267 576 c 0
 330 576 374 547 374 523 c 0
 374 518 368 511 364 499 c 0
 359 483 354 438 350 366 c 1
 438 389 540 416 637 435 c 1
 640 498 641 560 641 601 c 0
 641 635 622 656 581 656 c 1
 575 675 l 1
 585 679 602 681 612 681 c 0
 670 681 713 654 713 635 c 0
 713 630 708 622 704 606 c 0
 696 575 693 512 689 444 c 1
 745 454 798 460 844 460 c 0
 878 460 912 453 912 441 c 0
 912 426 894 397 878 397 c 0
 863 397 835 402 801 402 c 0
 762 402 724 400 686 396 c 1
 680 308 670 218 646 169 c 0
 622 121 577 101 553 101 c 0
 534 101 538 116 519 135 c 0
 509 145 481 159 442 174 c 1
 447 193 l 1
 500 178 539 174 558 174 c 0
 577 174 592 189 602 208 c 0
 619 242 629 314 634 390 c 1
 527 375 428 348 348 322 c 1
 346 267 345 200 345 121 c 0
 345 19 374 -13 490 -13 c 0
 650 -13 714 9 733 9 c 0
 752 9 781 -18 781 -37 c 0
 781 -54 679 -69 529 -69 c 0
 345 -69 293 -15 293 145 c 0
 293 180 294 240 295 304 c 1
 213 275 158 252 146 252 c 0
EndSplineSet
Validated: 1
EndChar

StartChar: uni305C
Encoding: 12380 12380 35
Width: 1000
VWidth: 0
Flags: HMW
LayerCount: 2
Back
Refer: 94 12441 N 1 0 0 1 5 15 2
Refer: 34 12379 N 1 0 0 1 0 0 2
Fore
SplineSet
709 687 m 1
 723 701 l 1
 810 664 849 606 849 580 c 0
 849 567 830 548 811 548 c 0
 787 548 787 624 709 687 c 1
796 742 m 1
 811 756 l 1
 893 731 946 674 946 645 c 0
 946 630 927 611 908 611 c 0
 889 611 878 689 796 742 c 1
146 252 m 0
 122 252 78 295 68 339 c 1
 83 348 l 1
 93 329 107 319 131 319 c 0
 163 319 222 333 295 352 c 1
 296 405 296 456 296 494 c 0
 296 531 277 552 238 552 c 1
 233 572 l 1
 243 575 257 576 267 576 c 0
 330 576 374 547 374 523 c 0
 374 518 368 511 364 499 c 0
 359 483 354 438 350 366 c 1
 438 389 540 416 637 435 c 1
 640 498 641 560 641 601 c 0
 641 635 622 656 581 656 c 1
 575 675 l 1
 585 679 602 681 612 681 c 0
 670 681 713 654 713 635 c 0
 713 630 708 622 704 606 c 0
 696 575 693 512 689 444 c 1
 745 454 798 460 844 460 c 0
 878 460 912 453 912 441 c 0
 912 426 894 397 878 397 c 0
 863 397 835 402 801 402 c 0
 762 402 724 400 686 396 c 1
 680 308 670 218 646 169 c 0
 622 121 577 101 553 101 c 0
 534 101 538 116 519 135 c 0
 509 145 481 159 442 174 c 1
 447 193 l 1
 500 178 539 174 558 174 c 0
 577 174 592 189 602 208 c 0
 619 242 629 314 634 390 c 1
 527 375 428 348 348 322 c 1
 346 267 345 200 345 121 c 0
 345 19 374 -13 490 -13 c 0
 650 -13 714 9 733 9 c 0
 752 9 781 -18 781 -37 c 0
 781 -54 679 -69 529 -69 c 0
 345 -69 293 -15 293 145 c 0
 293 180 294 240 295 304 c 1
 213 275 158 252 146 252 c 0
EndSplineSet
Validated: 1
EndChar

StartChar: uni305D
Encoding: 12381 12381 36
Width: 1000
VWidth: 0
Flags: HMW
LayerCount: 2
Back
SplineSet
740 -105 m 3
 740 -115 720 -125 689 -125 c 3
 530 -125 420 -45 420 80 c 3
 420 180 485 260 550 315 c 1
 255 245 205 185 180 185 c 3
 165 185 140 210 140 225 c 3
 140 245 198 260 242 300 c 0
 407 450 602 637 602 662 c 3
 602 667 598 672 592 672 c 3
 557 672 433 620 373 590 c 0
 353 580 340 570 330 570 c 3
 305 570 270 613 258 683 c 9
 280 690 l 17
 285 665 305 650 325 650 c 3
 360 650 440 667 530 697 c 0
 575 712 586 722 600 722 c 3
 630 722 690 660 690 640 c 3
 690 625 670 615 650 600 c 0
 630 585 525 505 280 285 c 1
 620 370 700 400 785 400 c 3
 825 400 860 390 860 380 c 3
 860 365 845 337 830 337 c 3
 820 337 785 340 750 340 c 3
 705 340 630 325 590 305 c 0
 530 275 465 190 465 95 c 3
 465 28 500 -10 540 -30 c 0
 590 -55 635 -60 700 -60 c 3
 720 -60 740 -90 740 -105 c 3
EndSplineSet
Fore
SplineSet
733 -93 m 0
 733 -103 713 -112 683 -112 c 0
 529 -112 422 -34 422 87 c 0
 422 184 485 262 548 315 c 1
 262 247 214 188 190 188 c 0
 175 188 151 212 151 227 c 0
 151 246 207 261 250 300 c 0
 410 446 599 627 599 651 c 0
 599 656 595 661 589 661 c 0
 555 661 435 610 377 581 c 0
 358 571 345 562 335 562 c 0
 311 562 277 604 265 672 c 1
 287 678 l 1
 292 654 311 640 330 640 c 0
 364 640 442 656 529 685 c 0
 573 700 583 709 597 709 c 0
 626 709 684 649 684 630 c 0
 684 615 665 606 646 591 c 0
 627 576 525 498 287 285 c 1
 617 367 694 397 776 397 c 0
 815 397 849 388 849 378 c 0
 849 363 835 336 820 336 c 0
 810 336 776 339 742 339 c 0
 698 339 626 324 587 305 c 0
 529 276 466 193 466 101 c 0
 466 36 500 -1 539 -20 c 0
 587 -44 631 -49 694 -49 c 0
 713 -49 733 -78 733 -93 c 0
EndSplineSet
Validated: 1
EndChar

StartChar: uni305E
Encoding: 12382 12382 37
Width: 1000
VWidth: 0
Flags: HMW
LayerCount: 2
Back
SplineSet
717 693 m 9
 732 708 l 17
 820 670 860 610 860 583 c 3
 860 570 840 550 820 550 c 3
 795 550 795 628 717 693 c 9
805 750 m 9
 820 765 l 17
 902 739 955 680 955 650 c 3
 955 635 935 615 915 615 c 3
 895 615 887 695 805 750 c 9
EndSplineSet
Refer: 36 12381 N 1 0 0 1 0 0 2
Fore
SplineSet
710 686 m 1
 725 701 l 1
 810 664 849 606 849 580 c 0
 849 567 829 548 810 548 c 0
 786 548 786 623 710 686 c 1
796 742 m 1
 810 756 l 1
 890 731 941 673 941 644 c 0
 941 629 922 611 903 611 c 0
 884 611 876 689 796 742 c 1
733 -93 m 0
 733 -103 713 -112 683 -112 c 0
 529 -112 422 -34 422 87 c 0
 422 184 485 262 548 315 c 1
 262 247 214 188 190 188 c 0
 175 188 151 212 151 227 c 0
 151 246 207 261 250 300 c 0
 410 446 599 627 599 651 c 0
 599 656 595 661 589 661 c 0
 555 661 435 610 377 581 c 0
 358 571 345 562 335 562 c 0
 311 562 277 604 265 672 c 1
 287 678 l 1
 292 654 311 640 330 640 c 0
 364 640 442 656 529 685 c 0
 573 700 583 709 597 709 c 0
 626 709 684 649 684 630 c 0
 684 615 665 606 646 591 c 0
 627 576 525 498 287 285 c 1
 617 367 694 397 776 397 c 0
 815 397 849 388 849 378 c 0
 849 363 835 336 820 336 c 0
 810 336 776 339 742 339 c 0
 698 339 626 324 587 305 c 0
 529 276 466 193 466 101 c 0
 466 36 500 -1 539 -20 c 0
 587 -44 631 -49 694 -49 c 0
 713 -49 733 -78 733 -93 c 0
EndSplineSet
Validated: 1
EndChar

StartChar: uni305F
Encoding: 12383 12383 38
Width: 1000
VWidth: 0
Flags: HMW
LayerCount: 2
Back
SplineSet
320 695 m 9
 322 715 l 17
 330 717 345 718 350 718 c 3
 405 718 458 680 458 660 c 3
 458 653 445 645 435 625 c 0
 425 605 408.847 560.339 380 460 c 0
 265 60 205 -90 173 -90 c 3
 158 -90 135 -70 135 -50 c 3
 135 -25 200 50 305 387 c 0
 344.892 515.034 375 640 375 665 c 3
 375 680 350 695 320 695 c 9
465 100 m 9
 485 105 l 17
 505 20 575 -17 715 -17 c 3
 785 -17 815 -5 830 -5 c 3
 850 -5 875 -32 875 -47 c 3
 875 -67 810 -80 735 -80 c 3
 550 -80 475 -10 465 100 c 9
525 565 m 3
 540 565 565 540 565 530 c 3
 565 510 380 432 235 432 c 3
 185 432 135 467 110 520 c 9
 125 530 l 17
 150 502 200 485 240 485 c 3
 375 485 510 565 525 565 c 3
520 365 m 17
 585 417 665 437 735 437 c 3
 800 437 860 415 860 395 c 3
 860 380 843 355 823 355 c 3
 816 355 806 360 788 360 c 3
 758 360 697 340 615 280 c 9
 605 295 l 25
 692 377 l 17
 688 378 680 380 670 380 c 3
 630 380 585 375 535 350 c 9
 520 365 l 17
EndSplineSet
Fore
SplineSet
466 106 m 1
 485 111 l 1
 504 29 573 -7 709 -7 c 0
 777 -7 805 4 820 4 c 0
 839 4 864 -22 864 -37 c 0
 864 -56 801 -69 728 -69 c 0
 549 -69 476 -1 466 106 c 1
524 557 m 0
 539 557 563 533 563 523 c 0
 563 510 479 471 381 447 c 1
 271 65 214 -78 183 -78 c 0
 168 -78 146 -59 146 -40 c 0
 146 -16 209 57 311 384 c 0
 316 401 321 418 326 435 c 1
 298 430 270 428 243 428 c 0
 195 428 146 462 122 513 c 1
 136 523 l 1
 160 496 209 479 248 479 c 0
 280 479 312 484 342 491 c 1
 364 572 379 637 379 654 c 0
 379 669 354 683 325 683 c 1
 327 703 l 1
 335 705 349 705 354 705 c 0
 407 705 459 668 459 649 c 0
 459 642 447 634 437 615 c 0
 429 599 418 569 399 507 c 1
 466 529 515 557 524 557 c 0
519 363 m 1
 582 413 660 433 728 433 c 0
 791 433 849 411 849 392 c 0
 849 377 832 353 813 353 c 0
 806 353 796 358 779 358 c 0
 750 358 692 339 612 281 c 1
 602 295 l 1
 686 375 l 1
 682 376 675 378 665 378 c 0
 626 378 582 372 534 348 c 1
 519 363 l 1
EndSplineSet
Validated: 1
EndChar

StartChar: uni3060
Encoding: 12384 12384 39
Width: 1000
VWidth: 0
Flags: HMW
LayerCount: 2
Back
Refer: 94 12441 N 1 0 0 1 -15 -10 2
Refer: 38 12383 N 1 0 0 1 0 0 2
Fore
SplineSet
689 662 m 1
 703 676 l 1
 790 639 829 581 829 555 c 0
 829 542 810 523 791 523 c 0
 767 523 767 599 689 662 c 1
776 717 m 1
 791 731 l 1
 873 706 926 649 926 620 c 0
 926 605 907 586 888 586 c 0
 869 586 858 664 776 717 c 1
466 106 m 1
 485 111 l 1
 504 29 573 -7 709 -7 c 0
 777 -7 805 4 820 4 c 0
 839 4 864 -22 864 -37 c 0
 864 -56 801 -69 728 -69 c 0
 549 -69 476 -1 466 106 c 1
524 557 m 0
 539 557 563 533 563 523 c 0
 563 510 479 471 381 447 c 1
 271 65 214 -78 183 -78 c 0
 168 -78 146 -59 146 -40 c 0
 146 -16 209 57 311 384 c 0
 316 401 321 418 326 435 c 1
 298 430 270 428 243 428 c 0
 195 428 146 462 122 513 c 1
 136 523 l 1
 160 496 209 479 248 479 c 0
 280 479 312 484 342 491 c 1
 364 572 379 637 379 654 c 0
 379 669 354 683 325 683 c 1
 327 703 l 1
 335 705 349 705 354 705 c 0
 407 705 459 668 459 649 c 0
 459 642 447 634 437 615 c 0
 429 599 418 569 399 507 c 1
 466 529 515 557 524 557 c 0
519 363 m 1
 582 413 660 433 728 433 c 0
 791 433 849 411 849 392 c 0
 849 377 832 353 813 353 c 0
 806 353 796 358 779 358 c 0
 750 358 692 339 612 281 c 1
 602 295 l 1
 686 375 l 1
 682 376 675 378 665 378 c 0
 626 378 582 372 534 348 c 1
 519 363 l 1
EndSplineSet
Validated: 1
EndChar

StartChar: uni3061
Encoding: 12385 12385 40
Width: 1000
VWidth: 0
Flags: HMW
LayerCount: 2
Back
SplineSet
333 703 m 9
 330 723 l 17
 335 724 345 725 355 725 c 3
 410 725 462 692 462 677 c 3
 462 667 450 663 435 628 c 0
 390 523 317 250 317 195 c 3
 317 186 321 182 325 182 c 3
 340 182 490 280 628 280 c 3
 750 280 840 220 840 125 c 3
 840 -50 620 -115 375 -120 c 9
 370 -103 l 17
 575 -85 770 -5 770 135 c 3
 770 195 710 247 610 247 c 3
 510 247 420 182 350 122 c 0
 328 104 322 90 310 90 c 3
 295 90 250 125 250 160 c 3
 250 245 385 620 385 670 c 3
 385 685 358 702 333 703 c 9
110 505 m 9
 125 515 l 17
 150 485 195 470 240 470 c 3
 355 470 465 513 505 533 c 0
 545 553 565 570 575 570 c 3
 595 570 620 552 620 537 c 3
 620 505 390 418 245 418 c 3
 185 418 130 460 110 505 c 9
EndSplineSet
Fore
SplineSet
122 499 m 1
 136 509 l 1
 160 480 204 465 248 465 c 0
 279 465 309 468 338 473 c 1
 365 561 388 638 388 659 c 0
 388 674 362 690 338 691 c 1
 335 710 l 1
 340 711 349 712 359 712 c 0
 412 712 463 681 463 666 c 0
 463 656 452 652 437 618 c 0
 423 586 407 538 391 485 c 1
 443 498 484 515 505 526 c 0
 544 545 563 562 573 562 c 0
 592 562 616 545 616 530 c 0
 616 507 494 455 374 429 c 1
 346 330 322 229 322 198 c 0
 322 189 326 186 330 186 c 0
 345 186 490 281 624 281 c 0
 742 281 830 222 830 130 c 0
 830 -40 617 -102 379 -107 c 1
 374 -91 l 1
 573 -74 762 4 762 140 c 0
 762 198 704 249 607 249 c 0
 510 249 422 185 354 127 c 0
 333 110 328 96 316 96 c 0
 301 96 258 130 258 164 c 0
 258 205 290 314 322 420 c 1
 298 417 274 414 253 414 c 0
 195 414 141 455 122 499 c 1
EndSplineSet
Validated: 1
EndChar

StartChar: uni3062
Encoding: 12386 12386 41
Width: 1000
VWidth: 0
Flags: HMW
LayerCount: 2
Back
Refer: 94 12441 N 1 0 0 1 -70 -10 2
Refer: 40 12385 N 1 0 0 1 0 0 2
Fore
SplineSet
634 662 m 1
 648 676 l 1
 735 639 774 581 774 555 c 0
 774 542 755 523 736 523 c 0
 712 523 712 599 634 662 c 1
721 717 m 1
 736 731 l 1
 818 706 871 649 871 620 c 0
 871 605 852 586 833 586 c 0
 814 586 803 664 721 717 c 1
122 499 m 1
 136 509 l 1
 160 480 204 465 248 465 c 0
 279 465 309 468 338 473 c 1
 365 561 388 638 388 659 c 0
 388 674 362 690 338 691 c 1
 335 710 l 1
 340 711 349 712 359 712 c 0
 412 712 463 681 463 666 c 0
 463 656 452 652 437 618 c 0
 423 586 407 538 391 485 c 1
 443 498 484 515 505 526 c 0
 544 545 563 562 573 562 c 0
 592 562 616 545 616 530 c 0
 616 507 494 455 374 429 c 1
 346 330 322 229 322 198 c 0
 322 189 326 186 330 186 c 0
 345 186 490 281 624 281 c 0
 742 281 830 222 830 130 c 0
 830 -40 617 -102 379 -107 c 1
 374 -91 l 1
 573 -74 762 4 762 140 c 0
 762 198 704 249 607 249 c 0
 510 249 422 185 354 127 c 0
 333 110 328 96 316 96 c 0
 301 96 258 130 258 164 c 0
 258 205 290 314 322 420 c 1
 298 417 274 414 253 414 c 0
 195 414 141 455 122 499 c 1
EndSplineSet
Validated: 1
EndChar

StartChar: uni3063
Encoding: 12387 12387 42
Width: 1000
VWidth: 0
Flags: HMW
LayerCount: 2
Back
SplineSet
130 317 m 9
 147 325 l 17
 157 300 172 292 185 292 c 3
 240 292 440 425 600 425 c 3
 750 425 850 350 850 225 c 3
 850 40 635 -50 390 -57 c 9
 385 -38 l 17
 580 -18 780 70 780 235 c 3
 780 325 715 390 608 390 c 3
 488 390 364 322 244 242 c 0
 229 232 214 217 205 217 c 3
 190 217 145 250 130 317 c 9
EndSplineSet
Fore
SplineSet
141 316 m 1
 158 324 l 1
 168 300 181 292 194 292 c 0
 247 292 442 421 597 421 c 0
 743 421 840 348 840 227 c 0
 840 48 631 -39 393 -46 c 1
 388 -28 l 1
 577 -9 772 77 772 237 c 0
 772 324 709 387 605 387 c 0
 489 387 368 322 252 244 c 0
 237 234 223 219 214 219 c 0
 199 219 156 251 141 316 c 1
EndSplineSet
Validated: 1
EndChar

StartChar: uni3064
Encoding: 12388 12388 43
Width: 1000
VWidth: 0
Flags: HMW
LayerCount: 2
Back
SplineSet
65 430 m 9
 85 440 l 17
 95 415 112 400 135 400 c 3
 195 400 440 557 620 557 c 3
 800 557 915 480 915 325 c 3
 915 115 675 5 375 -5 c 9
 370 15 l 17
 605 40 838 150 838 340 c 3
 838 445 760 520 630 520 c 3
 475 520 295 405 205 345 c 0
 175 325 165 315 155 315 c 3
 135 315 80 358 65 430 c 9
EndSplineSet
Fore
SplineSet
78 426 m 1
 97 436 l 1
 107 412 124 397 146 397 c 0
 204 397 441 549 616 549 c 0
 791 549 903 474 903 324 c 0
 903 120 670 14 379 4 c 1
 374 24 l 1
 602 48 828 155 828 339 c 0
 828 441 752 513 626 513 c 0
 476 513 301 402 214 344 c 0
 185 325 175 315 165 315 c 0
 146 315 93 356 78 426 c 1
EndSplineSet
Validated: 1
EndChar

StartChar: uni3065
Encoding: 12389 12389 44
Width: 1000
VWidth: 0
Flags: HMW
LayerCount: 2
Back
Refer: 94 12441 N 1 0 0 1 10 15 2
Refer: 43 12388 N 1 0 0 1 0 0 2
Fore
SplineSet
714 687 m 1
 728 701 l 1
 815 664 854 606 854 580 c 0
 854 567 835 548 816 548 c 0
 792 548 792 624 714 687 c 1
801 742 m 1
 816 756 l 1
 898 731 951 674 951 645 c 0
 951 630 932 611 913 611 c 0
 894 611 883 689 801 742 c 1
78 426 m 1
 97 436 l 1
 107 412 124 397 146 397 c 0
 204 397 441 549 616 549 c 0
 791 549 903 474 903 324 c 0
 903 120 670 14 379 4 c 1
 374 24 l 1
 602 48 828 155 828 339 c 0
 828 441 752 513 626 513 c 0
 476 513 301 402 214 344 c 0
 185 325 175 315 165 315 c 0
 146 315 93 356 78 426 c 1
EndSplineSet
Validated: 1
EndChar

StartChar: uni3066
Encoding: 12390 12390 45
Width: 1000
VWidth: 0
Flags: HMW
LayerCount: 2
Back
SplineSet
600 568 m 1
 300 518 195 440 165 440 c 3
 135 440 90 495 80 545 c 9
 95 555 l 17
 105 530 125 515 150 515 c 3
 250 515 610 642 810 642 c 3
 860 642 905 630 905 610 c 3
 905 595 890 567 870 567 c 3
 850 567 815 578 750 578 c 3
 700 578 620 560 560 500 c 0
 490 430 445 340 445 210 c 3
 445 47 535 -7 685 -7 c 3
 710 -7 725 -40 725 -55 c 3
 725 -65 705 -75 675 -75 c 3
 510 -75 390 15 390 200 c 3
 390 350 480 500 600 568 c 1
EndSplineSet
Fore
SplineSet
597 560 m 1
 306 511 204 436 175 436 c 0
 146 436 103 489 93 538 c 1
 107 547 l 1
 117 523 136 509 160 509 c 0
 257 509 607 632 801 632 c 0
 849 632 893 620 893 601 c 0
 893 586 878 559 859 559 c 0
 840 559 805 570 742 570 c 0
 694 570 616 552 558 494 c 0
 490 426 447 339 447 213 c 0
 447 55 533 2 679 2 c 0
 703 2 718 -29 718 -44 c 0
 718 -54 699 -64 670 -64 c 0
 510 -64 393 24 393 203 c 0
 393 349 481 494 597 560 c 1
EndSplineSet
Validated: 1
EndChar

StartChar: uni3067
Encoding: 12391 12391 46
Width: 1000
VWidth: 0
Flags: HMW
LayerCount: 2
Back
Refer: 94 12441 N 1 0 0 1 -30 -240 2
Refer: 45 12390 N 1 0 0 1 0 0 2
Fore
SplineSet
674 432 m 1
 688 446 l 1
 775 409 814 351 814 325 c 0
 814 312 795 293 776 293 c 0
 752 293 752 369 674 432 c 1
761 487 m 1
 776 501 l 1
 858 476 911 419 911 390 c 0
 911 375 892 356 873 356 c 0
 854 356 843 434 761 487 c 1
597 560 m 1
 306 511 204 436 175 436 c 0
 146 436 103 489 93 538 c 1
 107 547 l 1
 117 523 136 509 160 509 c 0
 257 509 607 632 801 632 c 0
 849 632 893 620 893 601 c 0
 893 586 878 559 859 559 c 0
 840 559 805 570 742 570 c 0
 694 570 616 552 558 494 c 0
 490 426 447 339 447 213 c 0
 447 55 533 2 679 2 c 0
 703 2 718 -29 718 -44 c 0
 718 -54 699 -64 670 -64 c 0
 510 -64 393 24 393 203 c 0
 393 349 481 494 597 560 c 1
EndSplineSet
Validated: 1
EndChar

StartChar: uni3068
Encoding: 12392 12392 47
Width: 1000
VWidth: 0
Flags: HMW
LayerCount: 2
Back
SplineSet
683 532 m 17
 730 510 780 450 780 420 c 3
 780 398 748 398 708 383 c 0
 463 293 240 178 240 70 c 3
 240 -15 335 -43 495 -43 c 3
 665 -43 730 -12 750 -12 c 3
 770 -12 795 -42 795 -57 c 3
 795 -85 670 -105 515 -105 c 3
 310 -105 195 -50 195 57 c 3
 195 195 375 295 635 420 c 0
 675 439 700 455 700 470 c 3
 700 480 690 500 670 515 c 9
 683 532 l 17
315 707 m 17
 342 700 359 683 365 665 c 0
 375 635 375 490 380 440 c 0
 385 390 410 340 435 315 c 9
 470 335 l 17
 440 385 433 420 433 525 c 3
 433 620 452 645 452 655 c 3
 452 675 395 722 320 725 c 9
 315 707 l 17
EndSplineSet
Fore
SplineSet
321 695 m 1
 325 712 l 1
 398 709 453 663 453 644 c 0
 453 634 435 610 435 518 c 0
 435 417 442 384 470 336 c 1
 519 362 573 388 631 416 c 0
 670 434 694 450 694 465 c 0
 694 475 684 494 665 509 c 1
 678 525 l 1
 724 504 772 445 772 416 c 0
 772 395 741 396 702 381 c 0
 464 294 248 182 248 77 c 0
 248 -5 340 -33 495 -33 c 0
 660 -33 723 -3 742 -3 c 0
 761 -3 786 -31 786 -46 c 0
 786 -73 665 -93 515 -93 c 0
 316 -93 204 -40 204 64 c 0
 204 159 293 236 435 316 c 1
 411 341 389 389 384 436 c 0
 379 484 379 625 369 654 c 0
 363 671 347 688 321 695 c 1
EndSplineSet
Validated: 1
EndChar

StartChar: uni3069
Encoding: 12393 12393 48
Width: 1000
VWidth: 0
Flags: HMW
LayerCount: 2
Back
Refer: 94 12441 N 1 0 0 1 -5 -5 2
Refer: 47 12392 N 1 0 0 1 0 0 2
Fore
SplineSet
699 667 m 1
 713 681 l 1
 800 644 839 586 839 560 c 0
 839 547 820 528 801 528 c 0
 777 528 777 604 699 667 c 1
786 722 m 1
 801 736 l 1
 883 711 936 654 936 625 c 0
 936 610 917 591 898 591 c 0
 879 591 868 669 786 722 c 1
321 695 m 1
 325 712 l 1
 398 709 453 663 453 644 c 0
 453 634 435 610 435 518 c 0
 435 417 442 384 470 336 c 1
 519 362 573 388 631 416 c 0
 670 434 694 450 694 465 c 0
 694 475 684 494 665 509 c 1
 678 525 l 1
 724 504 772 445 772 416 c 0
 772 395 741 396 702 381 c 0
 464 294 248 182 248 77 c 0
 248 -5 340 -33 495 -33 c 0
 660 -33 723 -3 742 -3 c 0
 761 -3 786 -31 786 -46 c 0
 786 -73 665 -93 515 -93 c 0
 316 -93 204 -40 204 64 c 0
 204 159 293 236 435 316 c 1
 411 341 389 389 384 436 c 0
 379 484 379 625 369 654 c 0
 363 671 347 688 321 695 c 1
EndSplineSet
Validated: 1
EndChar

StartChar: uni306A
Encoding: 12394 12394 49
Width: 1000
VWidth: 0
Flags: HMW
LayerCount: 2
Back
SplineSet
505 580 m 3
 520 580 550 560 550 550 c 3
 550 525 375 453 225 453 c 3
 180 453 135 488 110 533 c 9
 128 540 l 17
 150 520 190 505 230 505 c 3
 375 505 490 580 505 580 c 3
595 487 m 17
 615 493 647 498 673 498 c 3
 788 498 887 430 887 395 c 3
 887 380 865 360 850 360 c 3
 830 360 815 400 780 400 c 3
 710 400 660 350 660 280 c 3
 660 225 683 85 683 20 c 3
 683 -60 630 -112 525 -112 c 3
 427 -112 382 -55 382 -5 c 3
 382 55 442 100 545 100 c 3
 690 100 875 -27 875 -55 c 3
 875 -75 850 -95 835 -95 c 3
 825 -95 810 -75 785 -55 c 0
 735 -15 627 58 515 58 c 3
 462 58 420 35 420 0 c 3
 420 -30 452 -65 515 -65 c 3
 590 -65 625 -35 625 40 c 3
 625 110 620 196 620 270 c 3
 620 340 675 400 745 435 c 1
 710 455 660 469 600 467 c 9
 595 487 l 17
301 700 m 9
 302 720 l 17
 308 722 320 723 325 723 c 3
 385 723 437 690 437 672 c 3
 437 664 425 657 415 632 c 0
 405 607 379.868 525.044 350 435 c 0
 282 230 195 5 158 5 c 3
 138 5 118 32 118 47 c 3
 118 65 190 145 280 385 c 0
 317.817 485.847 355 625 355 665 c 3
 355 685 330 700 301 700 c 9
EndSplineSet
Fore
SplineSet
621 45 m 1
 587 57 552 65 515 65 c 0
 464 65 422 43 422 9 c 0
 422 -20 454 -54 515 -54 c 0
 587 -54 620 -26 621 45 c 1
592 481 m 1
 611 487 643 492 668 492 c 0
 780 492 875 426 875 392 c 0
 875 377 855 358 840 358 c 0
 821 358 806 397 772 397 c 0
 704 397 655 349 655 281 c 0
 655 239 669 147 675 79 c 1
 776 41 864 -25 864 -44 c 0
 864 -63 840 -83 825 -83 c 0
 815 -83 800 -63 776 -44 c 0
 753 -26 719 -2 677 20 c 1
 674 -53 622 -100 524 -100 c 0
 429 -100 386 -44 386 4 c 0
 386 62 444 106 544 106 c 0
 569 106 595 102 621 96 c 1
 620 153 616 215 616 271 c 0
 616 339 670 397 738 431 c 1
 704 450 657 462 597 462 c 1
 592 481 l 1
307 688 m 1
 308 707 l 1
 314 709 326 710 330 710 c 0
 388 710 439 678 439 661 c 0
 439 653 428 646 418 622 c 0
 412 607 400 570 385 523 c 1
 451 544 496 572 505 572 c 0
 520 572 548 552 548 542 c 0
 548 525 465 486 365 464 c 1
 361 453 358 442 354 431 c 0
 288 232 204 14 168 14 c 0
 149 14 129 40 129 55 c 0
 129 72 200 149 287 382 c 0
 295 405 304 429 311 454 c 1
 285 450 259 448 233 448 c 0
 189 448 146 482 122 526 c 1
 139 533 l 1
 160 514 199 499 238 499 c 0
 270 499 300 502 328 508 c 1
 346 572 359 631 359 654 c 0
 359 673 335 688 307 688 c 1
EndSplineSet
Validated: 1
EndChar

StartChar: uni306B
Encoding: 12395 12395 50
Width: 1000
VWidth: 0
Flags: HMW
LayerCount: 2
Back
SplineSet
445 170 m 17
 475 70 573 19 715 19 c 3
 800 19 840 34 855 34 c 3
 872 34 895 3 895 -12 c 3
 895 -32 835 -45 750 -45 c 3
 547 -45 450 25 425 165 c 9
 445 170 l 17
450 520 m 17
 520 575 630 602 725 602 c 3
 795 602 875 580 875 555 c 3
 875 538 858 513 840 513 c 3
 832 513 815 520 795 520 c 3
 765 520 685 490 600 420 c 9
 585 432 l 17
 620 465 675 515 705 542 c 1
 700 543 680 545 665 545 c 3
 605 545 515 530 460 502 c 9
 450 520 l 17
190 700 m 17
 230 670 285 600 285 572 c 3
 285 565 277 557 267 542 c 0
 247 512 175 355 175 195 c 3
 175 170 180 105 185 85 c 9
 303 305 l 25
 320 295 l 17
 270 190 220 60 220 5 c 3
 220 -25 240 -47 240 -65 c 3
 240 -80 220 -100 202 -100 c 3
 165 -100 130 60 130 155 c 3
 130 380 205 565 205 610 c 3
 205 630 195 665 175 685 c 9
 190 700 l 17
EndSplineSet
Fore
SplineSet
447 174 m 1
 476 77 571 27 709 27 c 0
 791 27 829 42 844 42 c 0
 860 42 883 12 883 -3 c 0
 883 -22 824 -35 742 -35 c 0
 545 -35 451 33 427 169 c 1
 447 174 l 1
452 513 m 1
 520 566 626 593 718 593 c 0
 786 593 864 571 864 547 c 0
 864 531 847 507 830 507 c 0
 822 507 805 513 786 513 c 0
 757 513 679 484 597 416 c 1
 582 428 l 1
 616 460 670 509 699 535 c 1
 694 536 675 538 660 538 c 0
 602 538 514 523 461 496 c 1
 452 513 l 1
199 688 m 1
 238 659 291 591 291 564 c 0
 291 557 284 550 274 535 c 0
 255 506 185 353 185 198 c 0
 185 174 189 110 194 91 c 1
 309 305 l 1
 325 295 l 1
 277 193 228 67 228 14 c 0
 228 -15 248 -37 248 -54 c 0
 248 -69 228 -88 211 -88 c 0
 175 -88 141 67 141 159 c 0
 141 377 214 557 214 601 c 0
 214 620 204 654 185 673 c 1
 199 688 l 1
EndSplineSet
Validated: 1
EndChar

StartChar: uni306C
Encoding: 12396 12396 51
Width: 1000
VWidth: 0
Flags: HMW
LayerCount: 2
Back
SplineSet
575 595 m 3
 575 475 370 -40 190 -40 c 3
 145 -40 108 15 108 75 c 3
 108 285 355 540 625 540 c 3
 775 540 890 435 890 270 c 3
 890 75 800 -60 635 -60 c 3
 555 -60 506 -15 506 35 c 3
 506 85 555 133 645 133 c 3
 770 133 925 15 925 -20 c 3
 925 -35 905 -55 890 -55 c 3
 875 -55 850 -15 800 25 c 0
 750 65 695 95 625 95 c 3
 575 95 540 70 540 42 c 3
 540 10 570 -13 625 -13 c 3
 750 -13 820 100 820 255 c 3
 820 405 745 505 610 505 c 3
 375 505 165 275 165 95 c 3
 165 55 190 30 210 30 c 3
 330 30 515 460 515 620 c 3
 515 640 505 665 485 675 c 9
 495 690 l 17
 545 675 575 630 575 595 c 3
140 535 m 9
 147 553 l 17
 173 547 220 525 240 505 c 0
 275 470 260 405 330 265 c 0
 390 145 450 110 450 90 c 3
 450 75 430 57 415 57 c 3
 395 57 345 115 315 175 c 0
 195 415 250 465 140 535 c 9
EndSplineSet
Fore
SplineSet
754 60 m 1
 715 85 672 101 621 101 c 0
 573 101 539 77 539 50 c 0
 539 19 568 -4 621 -4 c 0
 677 -4 722 20 754 60 c 1
341 143 m 1
 334 155 327 167 321 179 c 0
 293 235 275 280 262 317 c 1
 208 249 175 171 175 101 c 0
 175 62 200 38 219 38 c 0
 256 38 299 80 341 143 c 1
375 198 m 1
 424 284 467 390 492 480 c 1
 418 456 350 412 297 357 c 1
 306 331 318 301 335 266 c 0
 348 239 362 217 375 198 c 1
151 528 m 1
 158 545 l 1
 183 539 229 518 248 499 c 0
 269 478 271 447 285 395 c 1
 346 450 421 493 501 516 c 1
 510 553 515 585 515 610 c 0
 515 629 504 654 485 664 c 1
 495 678 l 1
 544 663 573 620 573 586 c 0
 573 572 569 553 564 529 c 1
 583 532 602 533 621 533 c 0
 767 533 878 431 878 271 c 0
 878 192 863 122 833 69 c 1
 880 38 912 6 912 -10 c 0
 912 -25 893 -44 878 -44 c 0
 865 -44 843 -12 802 24 c 1
 761 -23 703 -49 631 -49 c 0
 553 -49 506 -5 506 43 c 0
 506 92 554 138 641 138 c 0
 686 138 735 122 779 100 c 1
 800 143 810 196 810 256 c 0
 810 402 738 499 607 499 c 0
 590 499 573 497 556 495 c 1
 529 400 474 265 407 155 c 1
 433 123 452 107 452 96 c 0
 452 81 433 64 418 64 c 0
 408 64 391 79 372 101 c 1
 317 24 256 -30 199 -30 c 0
 155 -30 120 24 120 82 c 0
 120 175 169 276 248 359 c 1
 222 446 222 483 151 528 c 1
EndSplineSet
Validated: 1
EndChar

StartChar: uni306D
Encoding: 12397 12397 52
Width: 1000
VWidth: 0
Flags: HMW
LayerCount: 2
Back
SplineSet
90 425 m 1
 105 435 l 1
 115 420 130 415 140 415 c 0
 205 415 345 490 375 490 c 0
 385 490 405 460 405 445 c 0
 405 430 365 385 330 340 c 1
 320 320 l 1
 335 300 l 1
 425 400 570 539 713 539 c 0
 820 539 890 430 890 260 c 3
 890 75 840 -85 675 -85 c 3
 590 -85 540 -37 540 15 c 0
 540 62 595 108 685 108 c 0
 810 108 965 -10 965 -45 c 3
 965 -63 944 -80 927 -80 c 0
 917 -80 900 -57 885 -42 c 0
 860 -17 770 70 670 70 c 3
 605 70 575 45 575 18 c 0
 575 -8 605 -38 662 -38 c 3
 790 -38 825 90 825 250 c 3
 825 410 775 498 695 498 c 0
 580 498 445 375 330 255 c 9
 320 255 l 17
 170 75 140 5 123 5 c 0
 108 5 85 30 85 45 c 0
 85 65 140 105 315 325 c 9
 325 345 l 17
 320 435 l 1
 205 390 180 350 165 350 c 0
 145 350 105 390 90 425 c 1
240 705 m 9
 245 725 l 17
 330 720 375 669 375 650 c 3
 375 643 367 632 362 607 c 0
 357 582 348 495 348 290 c 3
 348 90 355 -10 355 -60 c 3
 355 -85 325 -122 295 -122 c 3
 280 -122 285 -102 280 -82 c 0
 270 -42 240 20 210 60 c 9
 225 70 l 25
 297 -5 l 17
 302 60 305 185 305 370 c 3
 305 595 300 650 290 670 c 0
 280 690 255 702 240 705 c 9
EndSplineSet
Fore
SplineSet
777 43 m 1
 744 62 706 77 665 77 c 0
 602 77 573 52 573 26 c 0
 573 1 602 -28 657 -28 c 0
 715 -28 753 -1 777 43 c 1
248 693 m 1
 253 712 l 1
 335 707 379 658 379 640 c 0
 379 633 371 622 366 598 c 0
 363 584 359 548 356 479 c 1
 366 482 374 484 379 484 c 0
 389 484 408 456 408 441 c 0
 408 429 381 396 353 361 c 1
 353 346 353 331 353 314 c 1
 441 409 575 532 707 532 c 0
 811 532 878 426 878 261 c 0
 878 186 870 117 849 60 c 1
 908 26 951 -17 951 -35 c 0
 951 -52 930 -69 914 -69 c 0
 904 -69 888 -47 873 -32 c 0
 864 -23 848 -7 825 11 c 1
 792 -41 743 -73 670 -73 c 0
 588 -73 539 -26 539 24 c 0
 539 70 592 114 679 114 c 0
 717 114 757 102 795 86 c 1
 809 132 815 190 815 252 c 0
 815 407 767 492 689 492 c 0
 583 492 461 384 353 274 c 1
 353 91 359 -2 359 -49 c 0
 359 -73 330 -109 301 -109 c 0
 286 -109 292 -90 287 -71 c 0
 277 -32 248 28 219 67 c 1
 233 77 l 1
 303 4 l 1
 307 50 309 128 310 238 c 1
 178 77 150 14 134 14 c 0
 119 14 97 38 97 53 c 0
 97 72 149 109 311 312 c 1
 311 330 311 349 311 368 c 0
 311 388 311 407 311 425 c 1
 212 384 189 348 175 348 c 0
 156 348 117 387 102 421 c 1
 117 431 l 1
 127 416 141 412 151 412 c 0
 190 412 258 440 310 461 c 1
 309 602 304 643 296 659 c 0
 286 678 263 690 248 693 c 1
EndSplineSet
Validated: 1
EndChar

StartChar: uni306E
Encoding: 12398 12398 53
Width: 1000
VWidth: 0
Flags: HMW
LayerCount: 2
Back
SplineSet
465 590 m 9
 485 595 l 17
 510 565 532 520 532 485 c 3
 532 300 370 0 250 0 c 3
 180 0 105 85 105 200 c 3
 105 430 295 630 550 630 c 3
 745 630 900 495 900 315 c 3
 900 85 724 -40 484 -55 c 9
 479 -35 l 17
 669 -5 825 110 825 325 c 3
 825 470 710 595 530 595 c 3
 315 595 163 400 163 220 c 3
 163 140 205 75 245 75 c 3
 335 75 488 345 488 505 c 3
 488 530 480 565 465 590 c 9
EndSplineSet
Fore
SplineSet
488 584 m 1
 511 555 531 512 531 479 c 0
 531 300 374 9 258 9 c 0
 190 9 117 91 117 203 c 0
 117 426 301 620 548 620 c 0
 737 620 888 490 888 315 c 0
 888 92 717 -29 484 -44 c 1
 480 -25 l 1
 664 4 815 115 815 324 c 0
 815 465 704 586 529 586 c 0
 515 586 502 586 488 584 c 1
467 580 m 1
 292 547 173 379 173 222 c 0
 173 144 214 82 253 82 c 0
 340 82 488 344 488 499 c 0
 488 523 481 556 467 580 c 1
EndSplineSet
Validated: 1
EndChar

StartChar: uni306F
Encoding: 12399 12399 54
Width: 1000
VWidth: 0
Flags: HMW
LayerCount: 2
Back
SplineSet
590 701 m 17
 602 705 618 707 630 707 c 3
 685 707 743 675 743 655 c 3
 743 646 733 637 728 607 c 0
 723 577 720 495 720 390 c 3
 720 255 730 115 730 50 c 3
 730 -45 670 -93 570 -93 c 3
 475 -93 420 -45 420 15 c 3
 420 75 482 120 585 120 c 3
 730 120 920 2 920 -30 c 3
 920 -45 900 -70 880 -70 c 3
 867 -70 845 -35 770 10 c 0
 720 40 645 77 560 77 c 3
 502 77 458 55 458 20 c 3
 458 -18 500 -45 560 -45 c 3
 635 -45 670 -8 670 75 c 3
 670 295 664 585 659 635 c 0
 656 665 627 682 595 681 c 9
 590 701 l 17
845 520 m 3
 860 520 890 500 890 485 c 3
 890 465 720 405 545 405 c 3
 500 405 440 440 410 485 c 9
 425 495 l 17
 455 470 500 455 550 455 c 3
 715 455 830 520 845 520 c 3
270 567 m 3
 270 552 255 545 235 505 c 0
 215 465 170 340 170 185 c 3
 170 150 175 95 185 65 c 9
 290 285 l 25
 310 275 l 17
 260 155 225 35 225 -10 c 3
 225 -50 240 -65 240 -80 c 3
 240 -95 220 -115 200 -115 c 3
 170 -115 125 40 125 150 c 3
 125 365 195 570 195 615 c 3
 195 640 180 670 160 690 c 9
 175 705 l 17
 225 665 270 595 270 567 c 3
EndSplineSet
Fore
SplineSet
664 65 m 1
 632 76 596 84 558 84 c 0
 502 84 459 62 459 28 c 0
 459 -9 500 -35 558 -35 c 0
 626 -35 659 -4 664 65 c 1
835 513 m 0
 850 513 878 494 878 479 c 0
 878 466 808 438 713 419 c 1
 713 409 713 398 713 387 c 0
 713 279 720 168 722 97 c 1
 821 61 907 1 907 -20 c 0
 907 -35 888 -59 869 -59 c 0
 856 -59 835 -25 762 19 c 0
 750 26 736 34 722 41 c 1
 715 -40 659 -81 568 -81 c 0
 476 -81 422 -34 422 24 c 0
 422 82 482 125 582 125 c 0
 608 125 637 122 665 115 c 1
 665 212 663 318 661 410 c 1
 623 405 584 402 544 402 c 0
 500 402 442 435 413 479 c 1
 427 489 l 1
 456 465 500 450 548 450 c 0
 589 450 626 455 660 461 c 1
 658 542 656 604 654 625 c 0
 651 654 623 670 592 670 c 1
 587 689 l 1
 599 693 614 695 626 695 c 0
 679 695 736 663 736 644 c 0
 736 635 726 627 721 598 c 0
 718 578 715 533 714 473 c 1
 782 491 826 513 835 513 c 0
277 559 m 0
 277 544 262 538 243 499 c 0
 224 460 180 338 180 188 c 0
 180 154 184 101 194 72 c 1
 296 285 l 1
 316 276 l 1
 268 160 233 43 233 -1 c 0
 233 -40 248 -54 248 -69 c 0
 248 -84 228 -103 209 -103 c 0
 180 -103 136 47 136 154 c 0
 136 363 204 562 204 606 c 0
 204 630 189 659 170 678 c 1
 185 693 l 1
 233 654 277 586 277 559 c 0
EndSplineSet
Validated: 1
EndChar

StartChar: uni3070
Encoding: 12400 12400 55
Width: 1000
VWidth: 0
Flags: HMW
LayerCount: 2
Back
SplineSet
590 701 m 17
 602 705 618 707 630 707 c 3
 685 707 740 675 740 655 c 3
 740 646 733 637 728 607 c 0
 723 577 720 495 720 390 c 3
 720 255 730 115 730 50 c 3
 730 -45 670 -93 570 -93 c 3
 475 -93 420 -45 420 15 c 3
 420 75 482 120 585 120 c 3
 730 120 920 2 920 -30 c 3
 920 -45 900 -70 880 -70 c 3
 867 -70 845 -35 770 10 c 0
 720 40 645 77 560 77 c 3
 502 77 458 55 458 20 c 3
 458 -18 500 -45 560 -45 c 3
 635 -45 670 -8 670 75 c 3
 670 295 664 585 659 635 c 0
 656 665 627 682 595 681 c 9
 590 701 l 17
845 520 m 3
 860 520 890 500 890 485 c 3
 890 465 720 405 545 405 c 3
 500 405 440 440 410 485 c 9
 425 495 l 17
 455 470 500 455 550 455 c 3
 715 455 830 520 845 520 c 3
270 567 m 3
 270 552 255 545 235 505 c 0
 215 465 170 340 170 185 c 3
 170 150 175 95 185 65 c 9
 290 285 l 25
 310 275 l 17
 260 155 225 35 225 -10 c 3
 225 -50 240 -65 240 -80 c 3
 240 -95 220 -115 200 -115 c 3
 170 -115 125 40 125 150 c 3
 125 365 195 570 195 615 c 3
 195 640 180 670 160 690 c 9
 175 705 l 17
 225 665 270 595 270 567 c 3
747 725 m 9
 763 740 l 17
 852 697 887 635 887 610 c 0
 887 596 867 577 846 577 c 0
 819 577 823 660 747 725 c 9
836 777 m 9
 851 792 l 17
 930 764 985 703 985 672 c 0
 985 655 965 637 945 637 c 0
 922 637 918 720 836 777 c 9
EndSplineSet
Fore
SplineSet
664 65 m 1
 632 76 596 84 558 84 c 0
 502 84 459 62 459 28 c 0
 459 -9 500 -35 558 -35 c 0
 626 -35 659 -4 664 65 c 1
835 513 m 0
 850 513 878 494 878 479 c 0
 878 466 808 438 713 419 c 1
 713 409 713 398 713 387 c 0
 713 279 720 168 722 97 c 1
 821 61 907 1 907 -20 c 0
 907 -35 888 -59 869 -59 c 0
 856 -59 835 -25 762 19 c 0
 750 26 736 34 722 41 c 1
 715 -40 659 -81 568 -81 c 0
 476 -81 422 -34 422 24 c 0
 422 82 482 125 582 125 c 0
 608 125 637 122 665 115 c 1
 665 212 663 318 661 410 c 1
 623 405 584 402 544 402 c 0
 500 402 442 435 413 479 c 1
 427 489 l 1
 456 465 500 450 548 450 c 0
 589 450 626 455 660 461 c 1
 658 542 656 604 654 625 c 0
 651 654 623 670 592 670 c 1
 587 689 l 1
 599 693 614 695 626 695 c 0
 679 695 733 663 733 644 c 0
 733 635 726 627 721 598 c 0
 718 578 715 533 714 473 c 1
 782 491 826 513 835 513 c 0
277 559 m 0
 277 544 262 538 243 499 c 0
 224 460 180 338 180 188 c 0
 180 154 184 101 194 72 c 1
 296 285 l 1
 316 276 l 1
 268 160 233 43 233 -1 c 0
 233 -40 248 -54 248 -69 c 0
 248 -84 228 -103 209 -103 c 0
 180 -103 136 47 136 154 c 0
 136 363 204 562 204 606 c 0
 204 630 189 659 170 678 c 1
 185 693 l 1
 233 654 277 586 277 559 c 0
740 712 m 1
 755 727 l 1
 841 685 875 625 875 601 c 0
 875 587 856 569 836 569 c 0
 810 569 814 649 740 712 c 1
826 763 m 1
 840 777 l 1
 917 750 970 691 970 661 c 0
 970 645 951 627 932 627 c 0
 910 627 906 708 826 763 c 1
EndSplineSet
Validated: 1
EndChar

StartChar: uni3071
Encoding: 12401 12401 56
Width: 1000
VWidth: 0
Flags: HMW
AnchorPoint: "Dakuten" 912 712 basechar 0
LayerCount: 2
Back
SplineSet
590 701 m 17
 602 705 618 707 630 707 c 3
 685 707 740 675 740 655 c 3
 740 646 733 637 728 607 c 0
 723 577 720 495 720 390 c 3
 720 255 730 115 730 50 c 3
 730 -45 670 -93 570 -93 c 3
 475 -93 420 -45 420 15 c 3
 420 75 482 120 585 120 c 3
 730 120 920 2 920 -30 c 3
 920 -45 900 -70 880 -70 c 3
 867 -70 845 -35 770 10 c 0
 720 40 645 77 560 77 c 3
 502 77 458 55 458 20 c 3
 458 -18 500 -45 560 -45 c 3
 635 -45 670 -8 670 75 c 3
 670 295 664 585 659 635 c 0
 656 665 627 682 595 681 c 9
 590 701 l 17
845 520 m 3
 860 520 890 500 890 485 c 3
 890 465 720 405 545 405 c 3
 500 405 440 440 410 485 c 9
 425 495 l 17
 455 470 500 455 550 455 c 3
 715 455 830 520 845 520 c 3
270 567 m 3
 270 552 255 545 235 505 c 0
 215 465 170 340 170 185 c 3
 170 150 175 95 185 65 c 9
 290 285 l 25
 310 275 l 17
 260 155 225 35 225 -10 c 3
 225 -50 240 -65 240 -80 c 3
 240 -95 220 -115 200 -115 c 3
 170 -115 125 40 125 150 c 3
 125 365 195 570 195 615 c 3
 195 640 180 670 160 690 c 9
 175 705 l 17
 225 665 270 595 270 567 c 3
EndSplineSet
Refer: 95 12442 N 1 0 0 1 35 45 2
Fore
SplineSet
664 65 m 1
 632 76 596 84 558 84 c 0
 502 84 459 62 459 28 c 0
 459 -9 500 -35 558 -35 c 0
 626 -35 659 -4 664 65 c 1
774 678 m 0
 774 730 817 773 869 773 c 0
 921 773 964 730 964 678 c 0
 964 626 921 583 869 583 c 0
 817 583 774 626 774 678 c 0
803 678 m 0
 803 641 832 612 869 612 c 0
 906 612 935 641 935 678 c 0
 935 715 906 744 869 744 c 0
 832 744 803 715 803 678 c 0
835 513 m 0
 850 513 878 494 878 479 c 0
 878 466 808 438 713 419 c 1
 713 409 713 398 713 387 c 0
 713 279 720 168 722 97 c 1
 821 61 907 1 907 -20 c 0
 907 -35 888 -59 869 -59 c 0
 856 -59 835 -25 762 19 c 0
 750 26 736 34 722 41 c 1
 715 -40 659 -81 568 -81 c 0
 476 -81 422 -34 422 24 c 0
 422 82 482 125 582 125 c 0
 608 125 637 122 665 115 c 1
 665 212 663 318 661 410 c 1
 623 405 584 402 544 402 c 0
 500 402 442 435 413 479 c 1
 427 489 l 1
 456 465 500 450 548 450 c 0
 589 450 626 455 660 461 c 1
 658 542 656 604 654 625 c 0
 651 654 623 670 592 670 c 1
 587 689 l 1
 599 693 614 695 626 695 c 0
 679 695 733 663 733 644 c 0
 733 635 726 627 721 598 c 0
 718 578 715 533 714 473 c 1
 782 491 826 513 835 513 c 0
277 559 m 0
 277 544 262 538 243 499 c 0
 224 460 180 338 180 188 c 0
 180 154 184 101 194 72 c 1
 296 285 l 1
 316 276 l 1
 268 160 233 43 233 -1 c 0
 233 -40 248 -54 248 -69 c 0
 248 -84 228 -103 209 -103 c 0
 180 -103 136 47 136 154 c 0
 136 363 204 562 204 606 c 0
 204 630 189 659 170 678 c 1
 185 693 l 1
 233 654 277 586 277 559 c 0
EndSplineSet
Validated: 1
EndChar

StartChar: uni3072
Encoding: 12402 12402 57
Width: 1000
VWidth: 0
Flags: HMW
LayerCount: 2
Back
SplineSet
100 545 m 9
 110 560 l 17
 120 553 131 550 145 550 c 3
 255 550 370 660 400 660 c 3
 430 660 465 630 465 610 c 3
 465 595 425 575 390 540 c 0
 285 435 220 315 220 180 c 3
 220 40 295 -45 425 -45 c 3
 605 -45 685 120 685 345 c 3
 685 505 615 655 615 682 c 3
 615 690 622 695 628 695 c 3
 645 695 680 690 685 680 c 0
 695 660 690 625 730 545 c 0
 800 405 945 320 945 295 c 3
 945 280 925 255 905 255 c 3
 875 255 755 370 690 525 c 1
 710 460 725 370 725 300 c 3
 725 65 640 -110 415 -110 c 3
 270 -110 170 5 170 155 c 3
 170 310 260 450 370 580 c 1
 305 540 220 503 170 503 c 3
 150 503 120 515 100 545 c 9
EndSplineSet
Fore
SplineSet
112 538 m 1
 122 552 l 1
 132 545 142 542 156 542 c 0
 263 542 374 649 403 649 c 0
 432 649 466 620 466 601 c 0
 466 586 427 567 393 533 c 0
 291 431 228 310 228 184 c 0
 228 48 301 -35 427 -35 c 0
 602 -35 679 126 679 344 c 0
 679 499 612 645 612 671 c 0
 612 679 618 683 624 683 c 0
 640 683 674 679 679 669 c 0
 689 650 684 616 723 538 c 0
 791 402 932 319 932 295 c 0
 932 280 912 256 893 256 c 0
 864 256 747 368 684 518 c 1
 703 455 718 368 718 300 c 0
 718 72 636 -98 418 -98 c 0
 277 -98 180 13 180 159 c 0
 180 304 267 446 374 572 c 1
 311 533 228 497 180 497 c 0
 161 497 131 509 112 538 c 1
EndSplineSet
Validated: 1
EndChar

StartChar: uni3073
Encoding: 12403 12403 58
Width: 1000
VWidth: 0
Flags: HMW
LayerCount: 2
Back
Refer: 94 12441 N 1 0 0 1 20 25 2
Refer: 57 12402 N 1 0 0 1 0 0 2
Fore
SplineSet
724 697 m 1
 738 711 l 1
 825 674 864 616 864 590 c 0
 864 577 845 558 826 558 c 0
 802 558 802 634 724 697 c 1
811 752 m 1
 826 766 l 1
 908 741 961 684 961 655 c 0
 961 640 942 621 923 621 c 0
 904 621 893 699 811 752 c 1
112 538 m 1
 122 552 l 1
 132 545 142 542 156 542 c 0
 263 542 374 649 403 649 c 0
 432 649 466 620 466 601 c 0
 466 586 427 567 393 533 c 0
 291 431 228 310 228 184 c 0
 228 48 301 -35 427 -35 c 0
 602 -35 679 126 679 344 c 0
 679 499 612 645 612 671 c 0
 612 679 618 683 624 683 c 0
 640 683 674 679 679 669 c 0
 689 650 684 616 723 538 c 0
 791 402 932 319 932 295 c 0
 932 280 912 256 893 256 c 0
 864 256 747 368 684 518 c 1
 703 455 718 368 718 300 c 0
 718 72 636 -98 418 -98 c 0
 277 -98 180 13 180 159 c 0
 180 304 267 446 374 572 c 1
 311 533 228 497 180 497 c 0
 161 497 131 509 112 538 c 1
EndSplineSet
Validated: 1
EndChar

StartChar: uni3074
Encoding: 12404 12404 59
Width: 1000
VWidth: 0
Flags: HMW
LayerCount: 2
Back
Refer: 95 12442 N 1 0 0 1 20 30 2
Refer: 57 12402 N 1 0 0 1 0 0 2
Fore
SplineSet
760 665 m 0
 760 717 803 760 855 760 c 0
 907 760 950 717 950 665 c 0
 950 613 907 570 855 570 c 0
 803 570 760 613 760 665 c 0
789 665 m 0
 789 628 818 599 855 599 c 0
 892 599 921 628 921 665 c 0
 921 702 892 731 855 731 c 0
 818 731 789 702 789 665 c 0
112 538 m 1
 122 552 l 1
 132 545 142 542 156 542 c 0
 263 542 374 649 403 649 c 0
 432 649 466 620 466 601 c 0
 466 586 427 567 393 533 c 0
 291 431 228 310 228 184 c 0
 228 48 301 -35 427 -35 c 0
 602 -35 679 126 679 344 c 0
 679 499 612 645 612 671 c 0
 612 679 618 683 624 683 c 0
 640 683 674 679 679 669 c 0
 689 650 684 616 723 538 c 0
 791 402 932 319 932 295 c 0
 932 280 912 256 893 256 c 0
 864 256 747 368 684 518 c 1
 703 455 718 368 718 300 c 0
 718 72 636 -98 418 -98 c 0
 277 -98 180 13 180 159 c 0
 180 304 267 446 374 572 c 1
 311 533 228 497 180 497 c 0
 161 497 131 509 112 538 c 1
EndSplineSet
Validated: 1
EndChar

StartChar: uni3075
Encoding: 12405 12405 60
Width: 1000
VWidth: 0
Flags: HMW
LayerCount: 2
Back
SplineSet
605 217 m 3
 400 217 160 -85 130 -85 c 3
 110 -85 85 -45 85 -30 c 3
 85 -20 105 -15 135 5 c 0
 225 65 420 250 625 250 c 3
 792 250 925 75 925 20 c 3
 925 -5 895 -25 875 -25 c 3
 850 -25 845 35 815 85 c 0
 770 160 710 217 605 217 c 3
370 700 m 9
 390 705 l 17
 400 660 425 625 475 600 c 0
 555 560 630 565 630 535 c 3
 630 520 615 495 600 495 c 3
 590 495 580 500 560 500 c 3
 500 500 417 445 417 385 c 3
 417 327 467 262 510 202 c 0
 552 143 600 77 600 15 c 3
 600 -30 555 -75 490 -75 c 3
 435 -75 340 -40 230 10 c 9
 245 25 l 17
 310 5 400 -10 455 -10 c 3
 505 -10 525 10 525 40 c 3
 525 75 497 136 465 185 c 0
 432 235 385 310 385 370 c 3
 385 430 425 480 485 530 c 1
 400 565 375 630 370 700 c 9
EndSplineSet
Fore
SplineSet
260 31 m 1
 322 13 405 -1 456 -1 c 0
 504 -1 524 19 524 48 c 0
 524 81 499 137 469 184 c 1
 392 146 319 84 260 31 c 1
374 688 m 1
 393 693 l 1
 403 649 428 615 476 591 c 0
 554 552 626 557 626 528 c 0
 626 513 612 489 597 489 c 0
 587 489 577 494 558 494 c 0
 500 494 419 440 419 382 c 0
 419 333 456 280 493 229 c 1
 535 243 577 252 621 252 c 0
 783 252 912 81 912 28 c 0
 912 4 884 -15 867 -15 c 0
 843 -15 835 44 806 93 c 0
 762 166 704 219 602 219 c 0
 572 219 542 213 512 202 c 1
 552 146 597 83 597 24 c 0
 597 -20 553 -64 490 -64 c 0
 438 -64 348 -31 244 16 c 1
 190 -34 152 -73 141 -73 c 0
 122 -73 97 -35 97 -20 c 0
 97 -10 117 -5 146 14 c 0
 208 55 319 157 450 213 c 1
 421 260 388 319 388 368 c 0
 388 426 427 475 485 523 c 1
 403 557 379 620 374 688 c 1
EndSplineSet
Validated: 1
EndChar

StartChar: uni3076
Encoding: 12406 12406 61
Width: 1000
VWidth: 0
Flags: HMW
LayerCount: 2
Back
Refer: 94 12441 N 1 0 0 1 -50 -60 2
Refer: 60 12405 N 1 0 0 1 0 0 2
Fore
SplineSet
654 612 m 1
 668 626 l 1
 755 589 794 531 794 505 c 0
 794 492 775 473 756 473 c 0
 732 473 732 549 654 612 c 1
741 667 m 1
 756 681 l 1
 838 656 891 599 891 570 c 0
 891 555 872 536 853 536 c 0
 834 536 823 614 741 667 c 1
260 31 m 1
 322 13 405 -1 456 -1 c 0
 504 -1 524 19 524 48 c 0
 524 81 499 137 469 184 c 1
 392 146 319 84 260 31 c 1
374 688 m 1
 393 693 l 1
 403 649 428 615 476 591 c 0
 554 552 626 557 626 528 c 0
 626 513 612 489 597 489 c 0
 587 489 577 494 558 494 c 0
 500 494 419 440 419 382 c 0
 419 333 456 280 493 229 c 1
 535 243 577 252 621 252 c 0
 783 252 912 81 912 28 c 0
 912 4 884 -15 867 -15 c 0
 843 -15 835 44 806 93 c 0
 762 166 704 219 602 219 c 0
 572 219 542 213 512 202 c 1
 552 146 597 83 597 24 c 0
 597 -20 553 -64 490 -64 c 0
 438 -64 348 -31 244 16 c 1
 190 -34 152 -73 141 -73 c 0
 122 -73 97 -35 97 -20 c 0
 97 -10 117 -5 146 14 c 0
 208 55 319 157 450 213 c 1
 421 260 388 319 388 368 c 0
 388 426 427 475 485 523 c 1
 403 557 379 620 374 688 c 1
EndSplineSet
Validated: 1
EndChar

StartChar: uni3077
Encoding: 12407 12407 62
Width: 1000
VWidth: 0
Flags: HMW
LayerCount: 2
Back
Refer: 95 12442 N 1 0 0 1 -60 -60 2
Refer: 60 12405 N 1 0 0 1 0 0 2
Fore
SplineSet
680 575 m 0
 680 627 723 670 775 670 c 0
 827 670 870 627 870 575 c 0
 870 523 827 480 775 480 c 0
 723 480 680 523 680 575 c 0
709 575 m 0
 709 538 738 509 775 509 c 0
 812 509 841 538 841 575 c 0
 841 612 812 641 775 641 c 0
 738 641 709 612 709 575 c 0
260 31 m 1
 322 13 405 -1 456 -1 c 0
 504 -1 524 19 524 48 c 0
 524 81 499 137 469 184 c 1
 392 146 319 84 260 31 c 1
374 688 m 1
 393 693 l 1
 403 649 428 615 476 591 c 0
 554 552 626 557 626 528 c 0
 626 513 612 489 597 489 c 0
 587 489 577 494 558 494 c 0
 500 494 419 440 419 382 c 0
 419 333 456 280 493 229 c 1
 535 243 577 252 621 252 c 0
 783 252 912 81 912 28 c 0
 912 4 884 -15 867 -15 c 0
 843 -15 835 44 806 93 c 0
 762 166 704 219 602 219 c 0
 572 219 542 213 512 202 c 1
 552 146 597 83 597 24 c 0
 597 -20 553 -64 490 -64 c 0
 438 -64 348 -31 244 16 c 1
 190 -34 152 -73 141 -73 c 0
 122 -73 97 -35 97 -20 c 0
 97 -10 117 -5 146 14 c 0
 208 55 319 157 450 213 c 1
 421 260 388 319 388 368 c 0
 388 426 427 475 485 523 c 1
 403 557 379 620 374 688 c 1
EndSplineSet
Validated: 1
EndChar

StartChar: uni3078
Encoding: 12408 12408 63
Width: 1000
VWidth: 0
Flags: HMW
LayerCount: 2
Back
SplineSet
415 495 m 3
 480 495 600 345 800 225 c 0
 900 165 930 165 930 140 c 3
 930 115 905 90 885 90 c 3
 860 90 785 142 735 182 c 0
 585 302 456 455 410 455 c 3
 365 455 232 265 202 215 c 0
 193 200 185 180 170 180 c 3
 132 180 80 235 65 290 c 9
 80 300 l 17
 93 280 112 265 132 265 c 3
 167 265 340 495 415 495 c 3
EndSplineSet
Fore
SplineSet
418 489 m 0
 481 489 597 343 791 227 c 0
 888 169 917 169 917 145 c 0
 917 121 892 96 873 96 c 0
 849 96 776 147 728 186 c 0
 582 302 458 450 413 450 c 0
 369 450 240 266 211 218 c 0
 202 203 195 184 180 184 c 0
 143 184 93 237 78 290 c 1
 93 300 l 1
 106 281 124 266 143 266 c 0
 177 266 345 489 418 489 c 0
EndSplineSet
Validated: 1
EndChar

StartChar: uni3079
Encoding: 12409 12409 64
Width: 1000
VWidth: 0
Flags: HMW
LayerCount: 2
Back
Refer: 94 12441 N 1 0 0 1 -120 -60 2
Refer: 63 12408 N 1 0 0 1 0 0 2
Fore
SplineSet
584 612 m 1
 598 626 l 1
 685 589 724 531 724 505 c 0
 724 492 705 473 686 473 c 0
 662 473 662 549 584 612 c 1
671 667 m 1
 686 681 l 1
 768 656 821 599 821 570 c 0
 821 555 802 536 783 536 c 0
 764 536 753 614 671 667 c 1
418 489 m 0
 481 489 597 343 791 227 c 0
 888 169 917 169 917 145 c 0
 917 121 892 96 873 96 c 0
 849 96 776 147 728 186 c 0
 582 302 458 450 413 450 c 0
 369 450 240 266 211 218 c 0
 202 203 195 184 180 184 c 0
 143 184 93 237 78 290 c 1
 93 300 l 1
 106 281 124 266 143 266 c 0
 177 266 345 489 418 489 c 0
EndSplineSet
Validated: 1
EndChar

StartChar: uni307A
Encoding: 12410 12410 65
Width: 1000
VWidth: 0
Flags: HMW
AnchorPoint: "Dakuten" 925 725 basechar 0
LayerCount: 2
Back
Refer: 95 12442 N 1 0 0 1 -130 -55 2
Refer: 63 12408 N 1 0 0 1 0 0 2
Fore
SplineSet
610 580 m 0
 610 632 653 675 705 675 c 0
 757 675 800 632 800 580 c 0
 800 528 757 485 705 485 c 0
 653 485 610 528 610 580 c 0
639 580 m 0
 639 543 668 514 705 514 c 0
 742 514 771 543 771 580 c 0
 771 617 742 646 705 646 c 0
 668 646 639 617 639 580 c 0
418 489 m 0
 481 489 597 343 791 227 c 0
 888 169 917 169 917 145 c 0
 917 121 892 96 873 96 c 0
 849 96 776 147 728 186 c 0
 582 302 458 450 413 450 c 0
 369 450 240 266 211 218 c 0
 202 203 195 184 180 184 c 0
 143 184 93 237 78 290 c 1
 93 300 l 1
 106 281 124 266 143 266 c 0
 177 266 345 489 418 489 c 0
EndSplineSet
Validated: 1
EndChar

StartChar: uni307B
Encoding: 12411 12411 66
Width: 1000
VWidth: 0
Flags: HMW
LayerCount: 2
Back
SplineSet
795 673 m 3
 810 673 835 655 835 640 c 3
 835 617 710 582 580 582 c 3
 525 582 475 615 450 655 c 9
 465 665 l 17
 490 640 530 630 575 630 c 3
 705 630 780 673 795 673 c 3
860 460 m 3
 875 460 900 442 900 427 c 3
 900 400 730 340 550 340 c 3
 490 340 435 385 410 435 c 9
 428 440 l 17
 453 410 500 390 555 390 c 3
 740 390 845 460 860 460 c 3
713 365 m 3
 713 215 725 105 725 50 c 3
 725 -45 665 -95 555 -95 c 3
 465 -95 415 -40 415 13 c 3
 415 65 477 115 575 115 c 3
 730 115 910 -3 910 -35 c 3
 910 -52 893 -75 875 -75 c 3
 862 -75 852 -58 822 -35 c 0
 752 20 660 72 550 72 c 3
 492 72 452 48 452 18 c 3
 452 -15 490 -47 545 -47 c 3
 630 -47 665 -15 665 75 c 3
 665 335 660 535 652 595 c 1
 670 590 730 590 730 575 c 1
 730 560 713 555 713 365 c 3
170 705 m 17
 230 665 270 605 270 577 c 3
 270 567 260 560 250 545 c 0
 210 485 165 350 165 190 c 3
 165 150 175 90 185 60 c 9
 288 280 l 25
 305 270 l 17
 255 145 225 35 225 -10 c 3
 225 -50 235 -55 235 -70 c 3
 235 -85 215 -110 195 -110 c 3
 165 -110 120 45 120 155 c 3
 120 395 190 570 190 615 c 3
 190 640 175 670 155 690 c 9
 170 705 l 17
EndSplineSet
Fore
SplineSet
659 61 m 1
 625 72 587 79 548 79 c 0
 492 79 453 55 453 26 c 0
 453 -6 491 -37 544 -37 c 0
 619 -37 654 -10 659 61 c 1
849 455 m 0
 864 455 888 438 888 423 c 0
 888 405 811 372 707 353 c 1
 707 239 714 150 717 92 c 1
 816 56 898 -4 898 -25 c 0
 898 -41 881 -64 864 -64 c 0
 851 -64 841 -47 812 -25 c 0
 784 -3 752 19 717 37 c 1
 709 -42 651 -83 553 -83 c 0
 466 -83 418 -29 418 22 c 0
 418 72 478 121 573 121 c 0
 602 121 631 116 660 109 c 1
 660 197 659 277 658 346 c 1
 623 342 585 339 548 339 c 0
 490 339 437 383 413 431 c 1
 430 436 l 1
 454 407 500 387 553 387 c 0
 591 387 626 390 657 395 c 1
 655 480 653 543 649 577 c 1
 626 575 602 574 578 574 c 0
 525 574 476 605 452 644 c 1
 466 654 l 1
 490 630 529 620 573 620 c 0
 699 620 771 662 786 662 c 0
 801 662 825 645 825 630 c 0
 825 614 764 592 684 581 c 1
 704 579 723 575 723 567 c 0
 723 554 709 548 707 405 c 1
 791 425 839 455 849 455 c 0
180 693 m 1
 238 654 277 596 277 569 c 0
 277 559 268 553 258 538 c 0
 219 480 175 348 175 193 c 0
 175 154 184 96 194 67 c 1
 294 281 l 1
 311 271 l 1
 263 150 233 43 233 -1 c 0
 233 -40 243 -44 243 -59 c 0
 243 -74 223 -98 204 -98 c 0
 175 -98 131 52 131 159 c 0
 131 392 199 562 199 606 c 0
 199 630 184 659 165 678 c 1
 180 693 l 1
EndSplineSet
Validated: 1
EndChar

StartChar: uni307C
Encoding: 12412 12412 67
Width: 1000
VWidth: 0
Flags: HMW
LayerCount: 2
Back
SplineSet
740 658 m 3
 755 658 778 640 778 625 c 3
 778 602 670 582 575 582 c 3
 520 582 475 615 450 653 c 9
 465 663 l 17
 490 640 525 630 570 630 c 3
 670 630 730 658 740 658 c 3
860 460 m 3
 875 460 900 442 900 427 c 3
 900 400 730 340 550 340 c 3
 490 340 435 385 410 435 c 9
 428 440 l 17
 453 410 500 390 555 390 c 3
 740 390 845 460 860 460 c 3
708 365 m 3
 708 215 720 105 720 50 c 3
 720 -45 660 -95 550 -95 c 3
 460 -95 410 -40 410 13 c 3
 410 65 472 115 570 115 c 3
 725 115 905 -3 905 -35 c 3
 905 -52 888 -75 870 -75 c 3
 857 -75 847 -58 817 -35 c 0
 747 20 655 72 545 72 c 3
 487 72 447 48 447 18 c 3
 447 -15 485 -47 540 -47 c 3
 625 -47 660 -15 660 75 c 3
 660 335 655 535 647 595 c 1
 665 590 725 590 725 575 c 1
 725 560 708 555 708 365 c 3
170 705 m 17
 230 665 270 605 270 577 c 3
 270 567 260 560 250 545 c 0
 210 485 165 350 165 190 c 3
 165 150 175 90 185 60 c 9
 288 280 l 25
 305 270 l 17
 255 145 225 35 225 -10 c 3
 225 -50 235 -55 235 -70 c 3
 235 -85 215 -110 195 -110 c 3
 165 -110 120 45 120 155 c 3
 120 395 190 570 190 615 c 3
 190 640 175 670 155 690 c 9
 170 705 l 17
742 729 m 9
 757 744 l 17
 845 703 883 645 883 615 c 0
 883 600 862 583 843 583 c 0
 818 583 820 662 742 729 c 9
828 778 m 9
 844 793 l 17
 928 764 982 705 982 675 c 0
 982 657 960 640 942 640 c 0
 920 640 913 720 828 778 c 9
EndSplineSet
Fore
SplineSet
654 61 m 1
 620 72 583 79 544 79 c 0
 488 79 449 55 449 26 c 0
 449 -6 486 -37 539 -37 c 0
 614 -37 649 -10 654 61 c 1
849 455 m 0
 864 455 888 438 888 423 c 0
 888 405 809 372 702 353 c 1
 702 239 709 149 712 92 c 1
 811 56 893 -4 893 -25 c 0
 893 -41 876 -64 859 -64 c 0
 846 -64 836 -47 807 -25 c 0
 779 -3 747 19 712 37 c 1
 704 -42 646 -83 548 -83 c 0
 461 -83 413 -29 413 22 c 0
 413 72 473 121 568 121 c 0
 597 121 626 116 655 109 c 1
 655 196 654 276 653 345 c 1
 619 341 584 339 548 339 c 0
 490 339 437 383 413 431 c 1
 430 436 l 1
 454 407 500 387 553 387 c 0
 589 387 622 390 652 394 c 1
 650 479 648 543 644 577 c 1
 621 575 596 574 573 574 c 0
 520 574 476 605 452 642 c 1
 466 652 l 1
 490 630 524 620 568 620 c 0
 665 620 723 647 733 647 c 0
 748 647 770 630 770 615 c 0
 770 601 730 589 678 581 c 1
 698 579 718 576 718 567 c 0
 718 554 704 548 702 404 c 1
 789 424 839 455 849 455 c 0
180 693 m 1
 238 654 277 596 277 569 c 0
 277 559 268 553 258 538 c 0
 219 480 175 348 175 193 c 0
 175 154 184 96 194 67 c 1
 294 281 l 1
 311 271 l 1
 263 150 233 43 233 -1 c 0
 233 -40 243 -44 243 -59 c 0
 243 -74 223 -98 204 -98 c 0
 175 -98 131 52 131 159 c 0
 131 392 199 562 199 606 c 0
 199 630 184 659 165 678 c 1
 180 693 l 1
735 716 m 1
 749 731 l 1
 834 691 872 635 872 606 c 0
 872 591 851 575 833 575 c 0
 809 575 811 651 735 716 c 1
818 764 m 1
 834 778 l 1
 915 750 968 693 968 664 c 0
 968 647 946 630 929 630 c 0
 908 630 900 708 818 764 c 1
EndSplineSet
Validated: 1
EndChar

StartChar: uni307D
Encoding: 12413 12413 68
Width: 1000
VWidth: 0
Flags: HMW
LayerCount: 2
Back
SplineSet
730 658 m 3
 745 658 768 640 768 625 c 3
 768 602 665 582 575 582 c 3
 520 582 475 615 450 653 c 9
 465 663 l 17
 490 640 525 630 570 630 c 3
 665 630 720 658 730 658 c 3
860 460 m 3
 875 460 900 442 900 427 c 3
 900 400 730 340 550 340 c 3
 490 340 435 385 410 435 c 9
 428 440 l 17
 453 410 500 390 555 390 c 3
 740 390 845 460 860 460 c 3
708 365 m 3
 708 215 720 105 720 50 c 3
 720 -45 660 -95 550 -95 c 3
 460 -95 410 -40 410 13 c 3
 410 65 472 115 570 115 c 3
 725 115 905 -3 905 -35 c 3
 905 -52 888 -75 870 -75 c 3
 857 -75 847 -58 817 -35 c 0
 747 20 655 72 545 72 c 3
 487 72 447 48 447 18 c 3
 447 -15 485 -47 540 -47 c 3
 625 -47 660 -15 660 75 c 3
 660 335 655 535 647 595 c 1
 665 590 725 590 725 575 c 1
 725 560 708 555 708 365 c 3
170 705 m 17
 230 665 270 605 270 577 c 3
 270 567 260 560 250 545 c 0
 210 485 165 350 165 190 c 3
 165 150 175 90 185 60 c 9
 288 280 l 25
 305 270 l 17
 255 145 225 35 225 -10 c 3
 225 -50 235 -55 235 -70 c 3
 235 -85 215 -110 195 -110 c 3
 165 -110 120 45 120 155 c 3
 120 395 190 570 190 615 c 3
 190 640 175 670 155 690 c 9
 170 705 l 17
EndSplineSet
Refer: 95 12442 N 1 0 0 1 35 40 2
Fore
SplineSet
654 61 m 1
 620 72 583 79 544 79 c 0
 488 79 449 55 449 26 c 0
 449 -6 486 -37 539 -37 c 0
 614 -37 649 -10 654 61 c 1
775 673 m 0
 775 725 817 769 869 769 c 0
 921 769 962 725 962 673 c 0
 962 621 921 578 869 578 c 0
 817 578 775 621 775 673 c 0
805 673 m 0
 805 636 832 607 869 607 c 0
 906 607 933 636 933 673 c 0
 933 710 906 739 869 739 c 0
 832 739 805 710 805 673 c 0
849 455 m 0
 864 455 888 438 888 423 c 0
 888 405 809 372 702 353 c 1
 702 239 709 149 712 92 c 1
 811 56 893 -4 893 -25 c 0
 893 -41 876 -64 859 -64 c 0
 846 -64 836 -47 807 -25 c 0
 779 -3 747 19 712 37 c 1
 704 -42 646 -83 548 -83 c 0
 461 -83 413 -29 413 22 c 0
 413 72 473 121 568 121 c 0
 597 121 626 116 655 109 c 1
 655 196 654 276 653 345 c 1
 619 341 584 339 548 339 c 0
 490 339 437 383 413 431 c 1
 430 436 l 1
 454 407 500 387 553 387 c 0
 589 387 622 390 652 394 c 1
 650 480 648 543 644 577 c 1
 621 575 596 574 573 574 c 0
 520 574 476 605 452 642 c 1
 466 652 l 1
 490 630 524 620 568 620 c 0
 660 620 713 647 723 647 c 0
 738 647 760 630 760 615 c 0
 760 602 723 590 675 582 c 1
 696 580 718 576 718 567 c 0
 718 554 704 548 702 404 c 1
 789 424 839 455 849 455 c 0
180 693 m 1
 238 654 277 596 277 569 c 0
 277 559 268 553 258 538 c 0
 219 480 175 348 175 193 c 0
 175 154 184 96 194 67 c 1
 294 281 l 1
 311 271 l 1
 263 150 233 43 233 -1 c 0
 233 -40 243 -44 243 -59 c 0
 243 -74 223 -98 204 -98 c 0
 175 -98 131 52 131 159 c 0
 131 392 199 562 199 606 c 0
 199 630 184 659 165 678 c 1
 180 693 l 1
EndSplineSet
Validated: 1
EndChar

StartChar: uni307E
Encoding: 12414 12414 69
Width: 1000
VWidth: 0
Flags: HMW
LayerCount: 2
Back
SplineSet
735 581 m 3
 750 581 775 562 775 548 c 3
 775 518 520 445 300 445 c 3
 240 445 185 482 155 537 c 9
 170 547 l 17
 200 512 250 495 305 495 c 3
 440 495 575 527 645 548 c 0
 707 567 725 581 735 581 c 3
397 693 m 9
 392 713 l 17
 407 720 427 723 440 723 c 3
 505 723 550 693 550 677 c 3
 550 669 542 660 537 630 c 0
 532 600 527 480 527 385 c 3
 527 230 535 95 535 35 c 3
 535 -57 480 -113 375 -113 c 3
 270 -113 212 -65 212 -3 c 3
 212 60 280 103 390 103 c 3
 575 103 785 -30 785 -65 c 3
 785 -82 763 -105 745 -105 c 3
 730 -105 715 -85 675 -55 c 0
 595 5 490 60 355 60 c 3
 290 60 250 35 250 2 c 3
 250 -38 290 -64 360 -64 c 3
 410 -64 445 -48 460 -18 c 0
 475 12 480 45 480 265 c 3
 480 530 470 640 465 660 c 0
 460 680 435 694 410 694 c 3
 409 694 403 694 397 693 c 9
725 376 m 3
 740 376 765 357 765 342 c 3
 765 313 520 255 340 255 c 3
 290 255 235 295 212 345 c 9
 230 350 l 17
 255 320 300 305 350 305 c 3
 470 305 585 332 655 352 c 0
 690 362 720 376 725 376 c 3
EndSplineSet
Fore
SplineSet
476 53 m 1
 440 62 401 67 359 67 c 0
 296 67 258 43 258 11 c 0
 258 -28 296 -53 364 -53 c 0
 412 -53 446 -37 461 -8 c 0
 468 6 473 20 476 53 c 1
718 374 m 0
 733 374 757 356 757 341 c 0
 757 322 650 291 527 272 c 1
 529 198 532 133 533 87 c 1
 664 49 776 -29 776 -54 c 0
 776 -70 755 -93 738 -93 c 0
 723 -93 709 -73 670 -44 c 0
 631 -15 586 13 534 34 c 1
 530 -50 477 -101 379 -101 c 0
 277 -101 221 -54 221 6 c 0
 221 67 286 109 393 109 c 0
 421 109 451 105 479 100 c 1
 480 138 481 190 481 265 c 1
 435 259 388 256 345 256 c 0
 297 256 243 296 221 344 c 1
 238 348 l 1
 262 319 306 305 354 305 c 0
 397 305 440 308 480 314 c 1
 480 368 479 414 478 454 c 1
 422 446 363 441 306 441 c 0
 248 441 194 477 165 530 c 1
 180 540 l 1
 209 506 258 489 311 489 c 0
 368 489 425 495 477 503 c 1
 474 593 469 637 466 649 c 0
 461 668 437 682 413 682 c 0
 412 682 406 682 400 681 c 1
 395 701 l 1
 410 708 429 710 442 710 c 0
 505 710 548 682 548 666 c 0
 548 658 541 649 536 620 c 0
 533 604 531 563 529 513 c 1
 574 522 613 533 641 541 c 0
 701 559 718 573 728 573 c 0
 743 573 767 555 767 541 c 0
 767 522 660 484 527 461 c 1
 526 434 526 407 526 382 c 0
 526 361 527 341 527 321 c 1
 575 330 617 341 650 350 c 0
 684 360 713 374 718 374 c 0
EndSplineSet
Validated: 1
EndChar

StartChar: uni307F
Encoding: 12415 12415 70
Width: 1000
VWidth: 0
Flags: HMW
LayerCount: 2
Back
SplineSet
1620 435 m 9
 1625 455 l 17
 1700 445 1755 400 1755 375 c 3
 1755 365 1745 365 1735 345 c 0
 1725 325 1660 -25 1335 -130 c 9
 1325 -115 l 17
 1610 35 1670 340 1670 385 c 3
 1670 405 1650 425 1620 435 c 9
1095 -5 m 3
 1050 -5 1010 35 1010 85 c 3
 1010 210 1130 297 1305 297 c 3
 1425 297 1558 256 1655 210 c 0
 1782 150 1860 90 1860 65 c 3
 1860 45 1845 20 1830 20 c 3
 1805 20 1786 73 1630 160 c 0
 1541 210 1410 260 1280 260 c 3
 1150 260 1060 190 1060 100 c 3
 1060 75 1075 55 1100 55 c 3
 1150 55 1185 90 1285 270 c 0
 1385 450 1430 625 1430 645 c 3
 1430 652 1423 655 1417 655 c 3
 1395 655 1305 615 1250 585 c 0
 1224 571 1220 565 1210 565 c 3
 1185 565 1150 615 1145 668 c 9
 1165 675 l 17
 1170 655 1185 640 1205 640 c 3
 1245 640 1353 672 1403 692 c 0
 1428 702 1430 707 1442 707 c 3
 1462 707 1520 657 1520 637 c 3
 1520 625 1507 620 1477 560 c 0
 1387 380 1337 245 1257 125 c 0
 1197 35 1155 -5 1095 -5 c 3
694 430.95 m 9
 698.85 450.35 l 17
 771.6 440.65 824.95 397 824.95 372.75 c 3
 824.95 363.05 815.25 363.05 805.55 343.65 c 0
 795.85 324.25 732.8 -15.25 417.55 -117.1 c 9
 407.85 -102.55 l 17
 684.3 42.9502 742.5 338.8 742.5 382.45 c 3
 742.5 401.85 723.1 421.25 694 430.95 c 9
184.75 4.15039 m 3
 141.1 4.15039 102.3 42.9502 102.3 91.4502 c 3
 102.3 212.7 218.7 297.09 388.45 297.09 c 3
 504.85 297.09 633.86 257.32 727.95 212.7 c 0
 851.14 154.5 926.8 96.2998 926.8 72.0498 c 3
 926.8 52.6504 912.25 28.4004 897.7 28.4004 c 3
 873.45 28.4004 855.02 79.8096 703.7 164.2 c 0
 617.37 212.7 490.3 261.2 364.2 261.2 c 3
 238.1 261.2 150.8 193.3 150.8 106 c 3
 150.8 81.75 165.35 62.3496 189.6 62.3496 c 3
 238.1 62.3496 272.05 96.2998 369.05 270.9 c 0
 466.05 445.5 509.7 615.25 509.7 634.65 c 3
 509.7 641.44 502.91 644.35 497.09 644.35 c 3
 475.75 644.35 388.45 605.55 335.1 576.45 c 0
 309.88 562.87 306 557.05 296.3 557.05 c 3
 272.05 557.05 238.1 605.55 233.25 656.96 c 9
 252.65 663.75 l 17
 257.5 644.35 272.05 629.8 291.45 629.8 c 3
 330.25 629.8 435.01 660.84 483.51 680.24 c 0
 507.76 689.94 509.7 694.79 521.34 694.79 c 3
 540.74 694.79 597 646.29 597 626.89 c 3
 597 615.25 584.39 610.4 555.29 552.2 c 0
 467.99 377.6 419.49 246.65 341.89 130.25 c 0
 283.69 42.9502 242.95 4.15039 184.75 4.15039 c 3
EndSplineSet
Fore
SplineSet
364 261 m 1
 248 261 160 193 160 116 c 0
 160 92 175 72 199 72 c 0
 242 72 271 95 364 261 c 1
194 14 m 0
 150 14 112 53 112 101 c 0
 112 211 226 295 383 297 c 1
 470 460 505 597 505 620 c 0
 505 627 498 630 492 630 c 0
 471 630 393 591 340 562 c 0
 315 548 311 542 301 542 c 0
 277 542 243 591 238 642 c 1
 258 649 l 1
 263 630 277 615 296 615 c 0
 335 615 431 647 479 666 c 0
 503 676 504 680 516 680 c 0
 535 680 592 631 592 612 c 0
 592 600 579 596 550 538 c 0
 503 443 468 365 434 295 c 1
 523 288 618 262 695 228 c 1
 728 306 738 369 738 387 c 0
 738 406 718 426 689 436 c 1
 694 455 l 1
 767 445 820 402 820 378 c 0
 820 368 811 367 801 348 c 0
 797 340 784 280 749 203 c 1
 850 152 912 104 912 82 c 0
 912 63 898 38 883 38 c 0
 860 38 845 80 723 152 c 1
 667 51 572 -60 413 -112 c 1
 403 -98 l 1
 540 -26 624 83 673 180 c 1
 602 216 510 250 416 259 c 1
 393 214 370 172 342 130 c 0
 284 43 247 14 194 14 c 0
EndSplineSet
Validated: 1
EndChar

StartChar: uni3080
Encoding: 12416 12416 71
Width: 1000
VWidth: 0
Flags: HMW
LayerCount: 2
Back
SplineSet
306 640 m 0
 306 664 287 680 253 678 c 1
 248 698 l 1
 258 701 270 703 282 703 c 0
 332 703 379 674 379 659 c 0
 379 651 369 639 364 620 c 0
250 357 m 3
 305 357 340 310 340 265 c 3
 340 215 275 110 275 35 c 3
 275 -5 325 -35 440 -35 c 3
 585 -35 710 -5 710 40 c 3
 710 80 654 290 654 415 c 3
 654 500 674 542 715 542 c 3
 800 542 915 420 915 350 c 3
 915 330 895 310 875 310 c 3
 863 310 859 323 837 323 c 3
 820 323 777 317 750 312 c 9
 745 332 l 17
 805 352 825 365 825 380 c 3
 825 420 760 505 710 505 c 3
 696 505 686 485 686 430 c 3
 686 315 750 75 770 45 c 0
 780 30 805 15 805 0 c 3
 805 -35 650 -95 475 -95 c 3
 295 -95 227 -50 227 7 c 3
 227 35 240 82 255 127 c 1
 250 120 235 112 220 112 c 3
 165 112 120 155 120 215 c 3
 120 300 182 357 250 357 c 3
490 573 m 3
 510 573 535 555 535 540 c 3
 535 518 385 465 220 465 c 3
 175 465 120 510 100 550 c 9
 115 560 l 17
 135 535 180 515 225 515 c 3
 380 515 475 573 490 573 c 3
240 710 m 9
 245 690 l 17
 280 692 300 675 300 650 c 3
 300 620 293 465 283 345 c 9
 329 305 l 17
 337 425 350 590 360 630 c 0
 365 650 375 662 375 670 c 3
 375 685 327 715 275 715 c 3
 263 715 250 713 240 710 c 9
235 320 m 3
 192 320 159 280 159 225 c 3
 159 187 185 162 219 162 c 3
 260 162 290 200 290 255 c 3
 290 290 270 320 235 320 c 3
EndSplineSet
Fore
SplineSet
248 698 m 1
 258 701 270 703 282 703 c 0
 332 703 379 674 379 659 c 0
 379 651 369 639 364 620 c 0
 360 604 355 566 351 520 c 1
 431 537 480 565 490 565 c 0
 509 565 534 548 534 533 c 0
 534 517 453 485 346 469 c 1
 341 416 337 358 334 308 c 1
 341 295 345 280 345 266 c 0
 345 218 282 116 282 43 c 0
 282 4 330 -25 442 -25 c 0
 583 -25 704 4 704 48 c 0
 704 87 649 291 649 412 c 0
 649 494 669 535 709 535 c 0
 791 535 903 416 903 348 c 0
 903 329 883 310 864 310 c 0
 852 310 848 322 827 322 c 0
 811 322 768 317 742 312 c 1
 738 331 l 1
 796 350 815 363 815 378 c 0
 815 417 752 499 704 499 c 0
 690 499 680 479 680 426 c 0
 680 314 743 82 762 53 c 0
 772 38 796 24 796 9 c 0
 796 -25 646 -83 476 -83 c 0
 301 -83 235 -39 235 16 c 0
 235 43 247 88 262 132 c 1
 257 125 243 118 228 118 c 0
 175 118 131 160 131 218 c 0
 131 300 192 355 258 355 c 0
 270 355 280 353 290 349 c 1
 293 386 296 425 298 463 c 1
 275 461 252 460 228 460 c 0
 184 460 131 503 112 542 c 1
 127 552 l 1
 146 528 189 509 233 509 c 0
 257 509 280 510 301 512 c 1
 304 573 306 624 306 640 c 0
 306 664 288 678 253 678 c 1
 248 698 l 1
243 319 m 0
 201 319 169 280 169 227 c 0
 169 190 194 166 227 166 c 0
 267 166 296 203 296 256 c 0
 296 290 277 319 243 319 c 0
EndSplineSet
Validated: 1
EndChar

StartChar: uni3081
Encoding: 12417 12417 72
Width: 1000
VWidth: 0
Flags: HMW
LayerCount: 2
Back
SplineSet
815 265 m 3
 815 405 725 500 565 500 c 3
 360 500 175 305 175 135 c 3
 175 85 200 50 225 50 c 3
 335 50 565 430 565 640 c 3
 565 660 553 682 525 695 c 9
 530 715 l 17
 590 697 630 660 630 630 c 3
 630 460 385 -20 210 -20 c 3
 165 -20 118 40 118 120 c 3
 118 315 325 535 585 535 c 3
 760 535 890 420 890 260 c 3
 890 45 715 -65 460 -85 c 9
 455 -65 l 17
 675 -25 815 80 815 265 c 3
190 570 m 9
 195 585 l 17
 230 580 275 550 295 530 c 0
 325 500 315 415 385 275 c 0
 435 175 495 140 495 120 c 3
 495 100 475 82 460 82 c 3
 440 82 355 185 315 305 c 0
 265 455 280 505 190 570 c 9
EndSplineSet
Fore
SplineSet
381 179 m 1
 359 215 336 259 321 305 c 0
 312 333 305 357 299 378 c 1
 230 310 185 222 185 140 c 0
 185 92 209 58 233 58 c 0
 272 58 327 106 381 179 c 1
415 230 m 1
 466 309 512 405 539 493 c 1
 465 487 395 457 337 412 c 1
 347 375 361 330 388 276 c 0
 397 259 406 244 415 230 c 1
199 562 m 1
 204 576 l 1
 238 571 282 542 301 523 c 0
 314 510 320 485 328 450 c 1
 392 492 467 521 549 527 c 1
 558 564 563 599 563 630 c 0
 563 649 551 670 524 683 c 1
 529 703 l 1
 587 686 626 649 626 620 c 0
 626 595 621 563 611 527 c 1
 766 515 878 407 878 261 c 0
 878 52 708 -54 461 -73 c 1
 456 -54 l 1
 669 -15 806 87 806 266 c 0
 806 391 732 478 600 492 c 1
 569 397 514 281 449 184 c 1
 475 153 495 136 495 125 c 0
 495 106 476 89 461 89 c 0
 453 89 435 105 413 133 c 1
 349 49 280 -10 219 -10 c 0
 175 -10 129 47 129 125 c 0
 129 229 190 341 287 420 c 1
 270 483 258 520 199 562 c 1
EndSplineSet
Validated: 1
EndChar

StartChar: uni3082
Encoding: 12418 12418 73
Width: 1000
VWidth: 0
Flags: HMW
LayerCount: 2
Back
SplineSet
235 313 m 9
 255 315 l 17
 275 245 338 210 453 210 c 3
 480 210 495 215 505 215 c 3
 520 215 540 190 540 175 c 3
 540 160 515 152 470 152 c 3
 310 152 242 220 235 313 c 9
255 590 m 17
 275 515 385 495 485 491 c 0
 505 490 525 460 525 440 c 3
 525 433 517 427 507 427 c 3
 497 427 470 435 440 435 c 3
 410 435 375 423 310 390 c 9
 305 405 l 25
 370 454 l 17
 310 465 245 500 235 585 c 9
 255 590 l 17
520 -67 m 3
 620 -67 687 15 687 110 c 3
 687 190 640 270 565 345 c 9
 575 360 l 17
 685 280 755 190 755 80 c 3
 755 -30 655 -127 525 -127 c 3
 420 -127 345 -45 345 85 c 3
 345 295 440 590 440 665 c 3
 440 685 420 705 385 708 c 9
 383 728 l 17
 387 729 398 730 403 730 c 3
 475 730 530 675 530 655 c 3
 530 648 525 645 515 630 c 0
 485 585 387 270 387 95 c 3
 387 -10 435 -67 520 -67 c 3
EndSplineSet
Fore
SplineSet
524 -56 m 0
 621 -56 686 24 686 116 c 0
 686 194 641 271 573 344 c 1
 582 358 l 1
 684 280 752 194 752 87 c 0
 752 -20 655 -114 529 -114 c 0
 427 -114 354 -35 354 91 c 0
 354 123 357 158 361 193 c 1
 277 216 238 269 233 337 c 1
 253 339 l 1
 267 289 304 257 367 244 c 1
 376 306 389 369 402 427 c 1
 359 438 314 455 287 484 c 0
 270 503 256 532 253 562 c 1
 272 567 l 1
 286 515 345 490 413 479 c 1
 431 560 447 624 447 654 c 0
 447 673 427 693 393 696 c 1
 391 715 l 1
 395 716 406 717 411 717 c 0
 481 717 534 663 534 644 c 0
 534 637 529 635 519 620 c 0
 508 603 487 545 465 472 c 1
 475 471 485 471 495 471 c 0
 514 470 534 442 534 423 c 0
 534 416 526 411 516 411 c 0
 507 411 481 412 449 417 c 1
 434 360 419 297 409 238 c 1
 420 237 432 237 445 237 c 0
 471 237 485 242 495 242 c 0
 510 242 529 218 529 203 c 0
 529 188 505 181 461 181 c 0
 439 181 419 182 401 184 c 1
 397 154 395 126 395 101 c 0
 395 -1 442 -56 524 -56 c 0
EndSplineSet
Validated: 1
EndChar

StartChar: uni3083
Encoding: 12419 12419 74
Width: 1000
VWidth: 0
Flags: HMW
LayerCount: 2
Back
SplineSet
669 372 m 3
 549 372 311 213 260 179 c 0
 235 162 230 155 220 155 c 3
 199 155 155 198 143 250 c 9
 162 258 l 17
 171 239 186 228 200 228 c 3
 270 228 535 409 686 409 c 3
 785 409 850 355 850 280 c 3
 850 205 775 139 669 139 c 3
 610 139 542 168 500 205 c 9
 510 222 l 17
 548 201 606 188 648 188 c 3
 731 188 783 235 783 290 c 3
 783 335 740 372 669 372 c 3
456 552 m 9
 470 562 l 17
 525 540 578 474 578 440 c 3
 578 425 562 402 542 402 c 3
 528 402 529 418 504 435 c 0
 479 452 428 460 373 460 c 3
 345 460 320 432 320 411 c 3
 320 348 535 -49 535 -133 c 3
 535 -150 515 -170 495 -170 c 3
 472 -170 472 -122 430 5 c 0
 388 132 314 304 280 355 c 0
 272 368 257 382 257 390 c 3
 257 428 325 485 369 485 c 3
 407 485 465 481 508 475 c 1
 504 496 481 532 456 552 c 9
EndSplineSet
Fore
SplineSet
457 544 m 1
 471 554 l 1
 524 533 576 469 576 436 c 0
 576 421 560 399 541 399 c 0
 527 399 528 415 504 431 c 0
 480 447 430 455 377 455 c 0
 350 455 325 428 325 408 c 0
 325 391 341 348 365 294 c 1
 467 344 593 406 680 406 c 0
 776 406 840 354 840 281 c 0
 840 208 767 144 664 144 c 0
 607 144 541 172 500 208 c 1
 510 224 l 1
 547 204 603 191 644 191 c 0
 725 191 775 237 775 290 c 0
 775 334 733 370 664 370 c 0
 591 370 472 308 382 255 c 1
 444 117 534 -67 534 -120 c 0
 534 -136 514 -156 495 -156 c 0
 473 -156 473 -109 432 14 c 0
 409 83 377 166 347 234 c 1
 310 211 281 192 267 183 c 0
 243 167 238 159 228 159 c 0
 208 159 166 202 154 252 c 1
 172 259 l 1
 181 241 195 230 209 230 c 0
 231 230 275 249 328 275 c 1
 312 310 298 337 287 353 c 0
 279 366 264 379 264 387 c 0
 264 424 330 479 373 479 c 0
 410 479 466 476 508 470 c 1
 504 490 481 525 457 544 c 1
EndSplineSet
Validated: 1
EndChar

StartChar: uni3084
Encoding: 12420 12420 75
Width: 1000
VWidth: 0
Flags: HMW
LayerCount: 2
Back
SplineSet
700 505 m 3
 555 505 270 315 210 275 c 0
 180 255 180 250 170 250 c 3
 145 250 93 295 80 358 c 9
 100 365 l 17
 111 342 128 330 145 330 c 3
 230 330 535 545 720 545 c 3
 835 545 910 480 910 395 c 3
 910 310 823 230 700 230 c 3
 630 230 550 265 500 310 c 9
 510 325 l 17
 555 300 625 284 675 284 c 3
 775 284 837 340 837 406 c 3
 837 460 785 505 700 505 c 3
450 715 m 9
 465 725 l 17
 530 700 590 620 590 580 c 3
 590 565 570 540 550 540 c 3
 535 540 535 560 505 580 c 0
 475 600 415 610 350 610 c 3
 315 610 285 575 285 550 c 3
 285 475 539 5 539 -95 c 3
 539 -115 514 -135 494 -135 c 3
 469 -135 470 -80 420 70 c 0
 370 220 280 425 240 485 c 0
 230 500 215 515 215 525 c 3
 215 570 295 635 345 635 c 3
 390 635 460 632 510 625 c 1
 505 650 480 690 450 715 c 9
EndSplineSet
Fore
SplineSet
452 703 m 1
 466 712 l 1
 529 688 587 611 587 572 c 0
 587 557 567 533 548 533 c 0
 533 533 534 553 505 572 c 0
 476 591 417 601 354 601 c 0
 320 601 291 566 291 542 c 0
 291 521 311 471 340 405 c 1
 460 465 607 538 713 538 c 0
 825 538 898 474 898 392 c 0
 898 310 813 232 694 232 c 0
 626 232 548 266 500 310 c 1
 510 324 l 1
 554 300 622 284 670 284 c 0
 767 284 827 339 827 403 c 0
 827 455 776 499 694 499 c 0
 606 499 466 427 358 364 c 1
 431 201 538 -19 538 -83 c 0
 538 -102 513 -122 494 -122 c 0
 470 -122 470 -69 422 77 c 0
 395 159 355 259 319 340 c 1
 273 312 236 287 219 276 c 0
 190 257 190 252 180 252 c 0
 156 252 106 295 93 356 c 1
 112 363 l 1
 123 341 140 329 156 329 c 0
 184 329 235 353 298 384 c 1
 278 426 261 460 248 479 c 0
 238 494 224 508 224 518 c 0
 224 562 302 625 350 625 c 0
 394 625 462 622 510 615 c 1
 505 639 481 679 452 703 c 1
EndSplineSet
Validated: 1
EndChar

StartChar: uni3085
Encoding: 12421 12421 76
Width: 1000
VWidth: 0
Flags: HMW
LayerCount: 2
Back
SplineSet
240 73 m 3
 240 40 252 32 252 18 c 3
 252 6 231 -9 217 -9 c 3
 198 -9 164 82 164 154 c 3
 164 272 200 386 200 411 c 3
 200 428 195 445 177 462 c 9
 190 477 l 17
 235 456 264 420 264 403 c 3
 264 386 204 297 204 187 c 1
 204 166 206 145 208 132 c 1
 290 305 445 442 623 442 c 3
 752 442 845 357 845 238 c 3
 845 100 733 7 593 7 c 3
 454 7 364 124 364 263 c 3
 364 425 435 542 508 542 c 3
 580 542 638 435 638 272 c 3
 638 57 575 -73 411 -164 c 9
 400 -150 l 17
 523 -53 581 73 581 263 c 3
 581 410 553 508 502 508 c 3
 451 508 397 405 397 289 c 3
 397 141 470 58 584 58 c 3
 697 58 782 137 782 251 c 3
 782 340 722 408 614 408 c 3
 382 408 240 153 240 73 c 3
EndSplineSet
Fore
SplineSet
560 432 m 1
 547 476 528 502 502 502 c 0
 465 502 426 445 409 369 c 1
 455 401 506 422 560 432 c 1
605 66 m 1
 703 76 774 149 774 252 c 0
 774 336 718 402 618 405 c 1
 628 368 634 323 634 273 c 0
 634 193 625 124 605 66 c 1
402 327 m 1
 401 315 400 302 400 289 c 0
 400 160 458 82 550 68 c 1
 569 125 579 189 579 264 c 0
 579 317 574 364 567 402 c 1
 503 393 448 364 402 327 c 1
248 80 m 0
 248 48 259 40 259 26 c 0
 259 14 239 0 225 0 c 0
 207 0 174 88 174 158 c 0
 174 272 209 384 209 408 c 0
 209 424 204 441 187 457 c 1
 199 472 l 1
 243 452 271 416 271 400 c 0
 271 384 213 297 213 190 c 0
 213 170 215 150 217 137 c 1
 255 217 309 289 374 343 c 1
 392 458 450 535 508 535 c 0
 549 535 585 499 608 438 c 1
 612 438 615 438 619 438 c 0
 744 438 835 355 835 240 c 0
 835 106 726 16 590 16 c 0
 588 16 585 16 583 16 c 1
 548 -52 493 -106 414 -150 c 1
 403 -136 l 1
 461 -91 503 -39 532 23 c 1
 431 50 368 150 368 264 c 0
 368 275 368 286 369 297 c 1
 291 220 248 124 248 80 c 0
EndSplineSet
Validated: 1
EndChar

StartChar: uni3086
Encoding: 12422 12422 77
Width: 1000
VWidth: 0
Flags: HMW
LayerCount: 2
Back
SplineSet
190 150 m 3
 190 110 204 100 204 85 c 3
 204 72 180 55 165 55 c 3
 145 55 105 160 105 245 c 3
 105 385 147 520 147 550 c 3
 147 570 140 590 120 610 c 9
 130 625 l 17
 180 600 215 560 215 540 c 3
 215 520 147 415 147 285 c 1
 147 260 150 235 155 220 c 1
 255 420 440 585 645 585 c 3
 795 585 905 485 905 345 c 3
 905 185 775 73 610 73 c 3
 445 73 342 210 342 375 c 3
 342 565 425 705 510 705 c 3
 595 705 660 575 660 385 c 3
 660 130 585 -20 395 -130 c 9
 385 -115 l 17
 530 0 600 150 600 375 c 3
 600 555 565 670 502 670 c 3
 442 670 375 550 375 405 c 3
 375 230 465 130 600 130 c 3
 735 130 837 225 837 360 c 3
 837 465 765 550 635 550 c 3
 360 550 190 245 190 150 c 3
EndSplineSet
Fore
SplineSet
576 571 m 1
 560 627 535 659 502 659 c 0
 456 659 406 588 387 489 c 1
 445 530 509 559 576 571 c 1
620 136 m 1
 739 146 827 235 827 358 c 0
 827 458 759 540 636 542 c 1
 648 497 655 442 655 382 c 0
 655 286 644 205 620 136 c 1
381 447 m 1
 380 432 379 417 379 402 c 0
 379 248 451 154 562 138 c 1
 585 206 597 283 597 373 c 0
 597 438 592 494 583 539 c 1
 505 528 437 493 381 447 c 1
199 154 m 0
 199 115 213 106 213 91 c 0
 213 78 190 62 175 62 c 0
 156 62 117 165 117 247 c 0
 117 383 158 513 158 542 c 0
 158 561 150 582 131 601 c 1
 141 615 l 1
 189 591 224 552 224 533 c 0
 224 514 158 411 158 285 c 0
 158 261 160 237 165 222 c 1
 211 314 276 400 353 463 c 1
 374 600 442 693 510 693 c 0
 558 693 600 649 626 576 c 1
 631 576 636 576 641 576 c 0
 787 576 893 480 893 344 c 0
 893 189 767 80 607 80 c 0
 603 80 600 80 596 80 c 1
 555 -1 490 -64 398 -117 c 1
 388 -103 l 1
 456 -49 507 14 542 88 c 1
 420 119 347 236 347 373 c 0
 347 388 347 403 348 418 c 1
 252 326 199 207 199 154 c 0
EndSplineSet
Validated: 1
EndChar

StartChar: uni3087
Encoding: 12423 12423 78
Width: 1000
VWidth: 0
Flags: HMW
LayerCount: 2
Back
SplineSet
686 379 m 3
 705 379 730 360 730 347 c 3
 730 320 620 300 551 300 c 3
 530 300 500 312 485 330 c 9
 485 362 l 17
 502 354 525 350 542 350 c 3
 622 350 668 379 686 379 c 3
382 542 m 9
 379 562 l 17
 387 565 403 567 413 567 c 3
 470 567 511 538 511 520 c 3
 511 510 502 505 498 480 c 0
 494 455 489 380 489 296 c 3
 489 169 502 58 502 -8 c 3
 502 -107 445 -145 348 -145 c 3
 260 -145 214 -93 214 -42 c 3
 214 13 276 58 373 58 c 3
 540 58 730 -65 730 -98 c 3
 730 -112 708 -132 690 -132 c 3
 675 -132 665 -107 581 -56 c 0
 496 -5 415 17 344 17 c 3
 291 17 253 -6 253 -36 c 3
 253 -70 287 -98 344 -98 c 0
 410 -98 442 -71 442 9 c 3
 442 123 441 464 435 506 c 0
 431 535 410 542 382 542 c 9
EndSplineSet
Fore
SplineSet
444 13 m 1
 411 22 379 25 349 25 c 0
 298 25 260 3 260 -26 c 0
 260 -59 294 -86 349 -86 c 0
 412 -86 443 -61 444 13 c 1
386 535 m 1
 383 554 l 1
 391 557 406 559 416 559 c 0
 471 559 511 530 511 513 c 0
 511 503 502 499 498 475 c 0
 495 457 492 413 490 358 c 1
 506 352 526 348 541 348 c 0
 619 348 663 377 680 377 c 0
 698 377 723 359 723 346 c 0
 723 320 616 300 549 300 c 0
 530 300 505 310 490 325 c 1
 490 316 489 306 489 296 c 0
 489 198 498 110 501 46 c 1
 621 11 723 -62 723 -86 c 0
 723 -100 701 -119 684 -119 c 0
 669 -119 660 -94 579 -45 c 0
 553 -29 527 -17 502 -7 c 1
 499 -97 444 -132 353 -132 c 0
 268 -132 223 -81 223 -32 c 0
 223 21 283 65 377 65 c 0
 399 65 422 63 444 59 c 1
 444 194 442 464 437 500 c 0
 433 528 413 535 386 535 c 1
EndSplineSet
Validated: 1
EndChar

StartChar: uni3088
Encoding: 12424 12424 79
Width: 1000
VWidth: 0
Flags: HMW
LayerCount: 2
Back
SplineSet
720 497 m 3
 740 497 770 477 770 462 c 3
 770 432 635 409 560 409 c 3
 535 409 497 427 480 447 c 9
 480 478 l 17
 502 467 530 462 550 462 c 3
 645 462 700 497 720 497 c 3
373 696 m 3
 371 696 365 696 360 695 c 9
 358 715 l 17
 368 718 385 720 397 720 c 3
 462 720 510 685 510 665 c 3
 510 657 500 650 495 620 c 0
 490 590 482 502 482 402 c 3
 482 252 500 120 500 42 c 3
 500 -68 435 -118 320 -118 c 3
 218 -118 165 -56 165 2 c 3
 165 64 235 117 350 117 c 3
 545 117 770 -30 770 -63 c 3
 770 -78 745 -103 725 -103 c 3
 710 -103 698 -73 598 -13 c 0
 498 47 405 73 315 73 c 3
 250 73 205 44 205 9 c 3
 205 -31 245 -67 315 -67 c 0
 397 -67 435 -33 435 62 c 3
 435 197 430 600 425 650 c 0
 422 680 398 696 373 696 c 3
EndSplineSet
Fore
SplineSet
437 65 m 1
 397 75 359 80 321 80 c 0
 258 80 214 52 214 18 c 0
 214 -21 253 -56 321 -56 c 0
 399 -56 436 -24 437 65 c 1
377 684 m 0
 375 684 369 684 364 683 c 1
 362 703 l 1
 372 706 388 707 400 707 c 0
 463 707 510 673 510 654 c 0
 510 646 500 639 495 610 c 0
 491 588 486 536 484 471 c 1
 505 461 530 457 548 457 c 0
 640 457 694 491 713 491 c 0
 732 491 762 472 762 457 c 0
 762 428 631 406 558 406 c 0
 535 406 500 422 483 440 c 1
 483 427 483 413 483 399 c 0
 483 282 494 176 498 100 c 1
 639 58 762 -28 762 -52 c 0
 762 -67 737 -91 718 -91 c 0
 703 -91 692 -62 595 -4 c 0
 563 15 531 32 500 44 c 1
 498 -59 435 -105 325 -105 c 0
 226 -105 175 -45 175 11 c 0
 175 71 242 122 354 122 c 0
 381 122 409 119 437 114 c 1
 436 273 431 596 427 640 c 0
 424 669 401 684 377 684 c 0
EndSplineSet
Validated: 1
EndChar

StartChar: uni3089
Encoding: 12425 12425 80
Width: 1000
VWidth: 0
Flags: HMW
LayerCount: 2
Back
SplineSet
305 715 m 9
 320 725 l 17
 355 660 440 640 525 640 c 3
 555 640 575 600 575 585 c 3
 575 575 567 570 552 570 c 3
 537 570 510 575 490 575 c 3
 415 575 305 550 305 505 c 3
 305 475 340 465 340 440 c 3
 340 410 300 265 300 195 c 3
 300 180 305 175 310 175 c 3
 335 175 470 285 635 285 c 3
 745 285 825 210 825 125 c 3
 825 -50 590 -118 395 -123 c 9
 390 -105 l 17
 560 -83 750 -20 750 130 c 3
 750 195 690 250 605 250 c 3
 505 250 395 165 345 115 c 0
 315 85 305 60 290 60 c 3
 275 60 240 95 240 115 c 3
 240 195 278 370 278 435 c 3
 278 455 272 475 272 485 c 3
 272 530 330 575 400 605 c 1
 355 625 320 670 305 715 c 9
EndSplineSet
Fore
SplineSet
311 703 m 1
 325 712 l 1
 359 649 442 630 524 630 c 0
 553 630 573 591 573 576 c 0
 573 566 565 562 550 562 c 0
 535 562 509 567 490 567 c 0
 417 567 311 543 311 499 c 0
 311 470 345 460 345 436 c 0
 345 407 306 266 306 198 c 0
 306 183 311 179 316 179 c 0
 340 179 471 285 631 285 c 0
 738 285 815 212 815 130 c 0
 815 -40 587 -105 398 -110 c 1
 393 -93 l 1
 558 -72 742 -11 742 135 c 0
 742 198 684 252 602 252 c 0
 505 252 398 169 350 121 c 0
 321 92 311 67 296 67 c 0
 281 67 248 102 248 121 c 0
 248 199 285 368 285 431 c 0
 285 450 279 469 279 479 c 0
 279 523 335 567 403 596 c 1
 359 615 326 659 311 703 c 1
EndSplineSet
Validated: 1
EndChar

StartChar: uni308A
Encoding: 12426 12426 81
Width: 1000
VWidth: 0
Flags: HMW
LayerCount: 2
Back
SplineSet
325 420 m 1
 325 405 327 370 330 360 c 1
 375 535 485 625 555 625 c 3
 635 625 705 505 705 365 c 3
 705 155 625 -45 375 -135 c 9
 365 -120 l 17
 570 -5 632 165 632 360 c 3
 632 485 600 580 538 580 c 3
 465 580 355 415 355 285 c 3
 355 245 374 225 374 210 c 3
 374 195 350 180 340 180 c 3
 320 180 282 280 282 370 c 3
 282 510 322 620 322 650 c 3
 322 670 310 695 285 715 c 9
 295 730 l 17
 350 710 390 660 390 640 c 3
 390 620 325 530 325 420 c 1
EndSplineSet
Fore
SplineSet
330 416 m 0
 330 401 332 368 335 358 c 1
 379 528 485 615 553 615 c 0
 631 615 699 499 699 363 c 0
 699 159 621 -35 379 -122 c 1
 369 -107 l 1
 568 5 628 169 628 358 c 0
 628 479 597 572 537 572 c 0
 466 572 359 411 359 285 c 0
 359 246 378 228 378 213 c 0
 378 198 355 184 345 184 c 0
 326 184 289 281 289 368 c 0
 289 504 327 611 327 640 c 0
 327 659 315 684 291 703 c 1
 301 717 l 1
 354 698 393 649 393 630 c 0
 393 611 330 523 330 416 c 0
EndSplineSet
Validated: 1
EndChar

StartChar: uni308B
Encoding: 12427 12427 82
Width: 1000
VWidth: 0
Flags: HMW
LayerCount: 2
Back
SplineSet
235 670 m 9
 255 680 l 17
 265 649 280 635 305 635 c 3
 355 635 505 678 535 690 c 0
 572 705 577 711 589 711 c 3
 615 711 680 665 680 640 c 3
 680 615 620 605 345 270 c 1
 415 325 510 363 600 363 c 3
 730 363 840 280 840 162 c 3
 840 -25 645 -125 480 -125 c 3
 340 -125 283 -60 283 -5 c 3
 283 50 335 93 400 93 c 3
 485 93 545 10 560 -70 c 9
 495 -80 l 17
 485 -15 445 55 385 55 c 3
 345 55 320 30 320 0 c 3
 320 -45 380 -77 455 -77 c 3
 615 -77 765 5 765 165 c 3
 765 255 690 325 585 325 c 3
 485 325 380 285 292 197 c 0
 220 125 202 75 182 75 c 3
 167 75 147 100 147 115 c 3
 147 140 215 195 305 295 c 0
 440 445 595 630 595 650 c 3
 595 655 590 660 582 660 c 3
 547 660 405 600 365 580 c 0
 335 565 320 555 310 555 c 3
 285 555 240 610 235 670 c 9
EndSplineSet
Fore
SplineSet
494 -64 m 1
 483 -2 445 62 388 62 c 0
 349 62 325 38 325 9 c 0
 325 -35 383 -66 456 -66 c 0
 469 -66 481 -65 494 -64 c 1
243 659 m 1
 262 669 l 1
 272 639 287 625 311 625 c 0
 359 625 505 666 534 678 c 0
 570 693 574 699 586 699 c 0
 611 699 675 654 675 630 c 0
 675 606 617 596 350 271 c 1
 418 324 510 361 597 361 c 0
 723 361 830 280 830 166 c 0
 830 -15 641 -112 481 -112 c 0
 345 -112 290 -49 290 4 c 0
 290 57 340 99 403 99 c 0
 484 99 541 22 557 -54 c 1
 669 -27 757 48 757 169 c 0
 757 256 684 324 582 324 c 0
 485 324 383 285 298 200 c 0
 228 130 211 82 192 82 c 0
 177 82 158 106 158 121 c 0
 158 145 224 198 311 295 c 0
 442 441 592 621 592 640 c 0
 592 645 588 649 580 649 c 0
 546 649 408 591 369 572 c 0
 340 557 326 547 316 547 c 0
 292 547 248 601 243 659 c 1
EndSplineSet
Validated: 1
EndChar

StartChar: uni308C
Encoding: 12428 12428 83
Width: 1000
VWidth: 0
Flags: HMW
LayerCount: 2
Back
SplineSet
105 315 m 17
 95 330 90 340 90 355 c 3
 90 405 165 470 340 500 c 1
 360 500 385 470 385 455 c 3
 385 435 345 395 310 345 c 1
 300 320 l 1
 320 305 l 1
 450 445 605 565 715 565 c 3
 765 565 795 515 795 460 c 3
 795 375 740 150 740 55 c 3
 740 20 755 0 780 0 c 3
 835 0 895 55 950 170 c 9
 970 165 l 17
 925 15 865 -70 760 -70 c 3
 715 -70 675 -35 675 25 c 3
 675 120 725 370 725 450 c 3
 725 500 700 523 680 523 c 3
 605 523 460 405 325 270 c 9
 305 265 l 17
 165 90 130 0 112 0 c 3
 95 0 75 25 75 40 c 3
 75 65 139 120 295 325 c 1
 305 355 l 1
 295 430 l 1
 225 420 123 385 123 338 c 3
 123 333 124 325 125 320 c 9
 105 315 l 17
220 700 m 9
 225 720 l 17
 305 718 355 669 355 650 c 3
 355 643 347 637 342 612 c 0
 337 587 328 495 328 260 c 3
 328 80 334 -5 334 -55 c 3
 334 -90 300 -122 275 -122 c 3
 260 -122 265 -95 260 -75 c 0
 250 -35 210 25 180 65 c 9
 190 80 l 25
 277 5 l 17
 282 75 285 180 285 340 c 3
 285 585 280 645 270 665 c 0
 260 685 235 698 220 700 c 9
EndSplineSet
Fore
SplineSet
228 688 m 1
 233 707 l 1
 311 705 359 658 359 640 c 0
 359 633 352 627 347 603 c 0
 344 590 340 557 337 493 c 1
 339 493 343 494 345 494 c 0
 364 494 388 465 388 450 c 0
 388 434 362 405 334 368 c 1
 334 351 333 333 333 313 c 1
 457 445 605 557 709 557 c 0
 757 557 786 508 786 455 c 0
 786 373 733 154 733 62 c 0
 733 28 748 9 772 9 c 0
 825 9 883 62 936 174 c 1
 956 169 l 1
 912 23 854 -59 752 -59 c 0
 708 -59 670 -25 670 33 c 0
 670 125 718 368 718 446 c 0
 718 494 694 516 675 516 c 0
 603 516 463 404 333 274 c 1
 333 270 333 265 333 261 c 0
 333 86 339 4 339 -44 c 0
 339 -78 306 -109 282 -109 c 0
 267 -109 272 -83 267 -64 c 0
 257 -25 219 33 190 72 c 1
 199 87 l 1
 284 14 l 1
 288 66 290 139 291 241 c 1
 172 88 141 9 124 9 c 0
 108 9 88 33 88 48 c 0
 88 72 147 124 291 312 c 1
 291 321 291 330 291 339 c 0
 291 371 291 399 291 425 c 1
 224 414 134 380 134 337 c 0
 134 332 135 324 136 319 c 1
 117 315 l 1
 107 330 102 338 102 353 c 0
 102 396 160 451 291 483 c 1
 289 603 284 639 277 654 c 0
 267 673 243 686 228 688 c 1
EndSplineSet
Validated: 1
EndChar

StartChar: uni308D
Encoding: 12429 12429 84
Width: 1000
VWidth: 0
Flags: HMW
LayerCount: 2
Back
SplineSet
245 683 m 17
 250 660 267 640 290 640 c 3
 335 640 450 670 510 690 c 0
 540 700 565 715 580 715 c 3
 610 715 672 663 672 640 c 3
 672 620 620 605 325 260 c 1
 400 320 510 375 630 375 c 3
 750 375 858 292 858 175 c 3
 858 -30 610 -120 375 -125 c 9
 370 -105 l 17
 550 -80 783 -10 783 180 c 3
 783 262 710 335 600 335 c 3
 485 335 345 260 265 180 c 0
 200 115 188 85 173 85 c 3
 153 85 133 110 133 130 c 3
 133 150 230 225 400 415 c 0
 485 510 585 638 585 658 c 3
 585 663 580 668 573 668 c 3
 535 668 380 600 340 580 c 0
 320 570 309 560 298 560 c 3
 273 560 232 615 225 673 c 9
 245 683 l 17
EndSplineSet
Fore
SplineSet
253 672 m 1
 258 650 274 630 296 630 c 0
 340 630 452 659 510 678 c 0
 539 688 563 703 578 703 c 0
 607 703 667 652 667 630 c 0
 667 611 616 596 330 261 c 1
 403 319 510 373 626 373 c 0
 742 373 847 292 847 179 c 0
 847 -20 607 -107 379 -112 c 1
 374 -93 l 1
 549 -69 775 0 775 184 c 0
 775 264 704 334 597 334 c 0
 485 334 350 262 272 184 c 0
 209 121 198 91 183 91 c 0
 164 91 144 116 144 135 c 0
 144 154 238 228 403 412 c 0
 485 504 582 628 582 647 c 0
 582 652 578 657 571 657 c 0
 534 657 384 591 345 572 c 0
 326 562 315 552 304 552 c 0
 280 552 240 606 233 662 c 1
 253 672 l 1
EndSplineSet
Validated: 1
EndChar

StartChar: uni308E
Encoding: 12430 12430 85
Width: 1000
VWidth: 0
Flags: HMW
LayerCount: 2
Back
SplineSet
143 323 m 9
 155 337 l 17
 163 328 176 320 187 320 c 3
 246 320 370 385 390 385 c 3
 400 385 427 355 427 340 c 3
 427 325 395 275 369 230 c 9
 369 210 l 17
 445 300 557 358 669 358 c 3
 780 358 865 275 865 170 c 3
 865 -10 697 -95 510 -120 c 9
 505 -100 l 17
 650 -60 795 10 795 170 c 3
 795 250 730 315 644 315 c 3
 552 315 455 262 365 175 c 9
 344 166 l 17
 230 43 187 -45 166 -45 c 3
 153 -45 137 -24 137 -7 c 3
 137 14 200 56 352 246 c 9
 352 332 l 17
 250 295 227 260 208 260 c 3
 190 260 157 295 143 323 c 9
282 540 m 9
 286 560 l 17
 365 554 400 508 400 487 c 3
 400 480 391 474 387 453 c 0
 383 432 378 360 378 190 c 3
 378 27 385 -62 385 -104 c 3
 385 -130 358 -160 335 -160 c 3
 316 -160 322 -132 305 -98 c 0
 297 -81 271 -43 250 -22 c 9
 260 -7 l 25
 330 -60 l 17
 333 3 337 128 337 259 c 3
 337 458 331 507 314 524 c 0
 306 532 292 538 282 540 c 9
EndSplineSet
Fore
SplineSet
289 533 m 1
 292 552 l 1
 369 546 403 501 403 481 c 0
 403 474 394 468 390 448 c 0
 388 438 387 418 385 381 c 1
 389 382 391 382 393 382 c 0
 403 382 429 354 429 339 c 0
 429 326 405 286 382 247 c 1
 382 239 382 231 382 223 c 1
 455 305 560 356 664 356 c 0
 772 356 854 276 854 174 c 0
 854 -1 691 -83 510 -107 c 1
 505 -88 l 1
 646 -49 786 19 786 174 c 0
 786 252 723 315 640 315 c 0
 555 315 466 268 382 191 c 1
 382 35 388 -51 388 -92 c 0
 388 -117 362 -146 340 -146 c 0
 322 -146 327 -119 311 -86 c 0
 303 -70 278 -32 258 -12 c 1
 267 2 l 1
 335 -49 l 1
 337 -4 340 74 341 162 c 1
 236 47 196 -35 176 -35 c 0
 163 -35 148 -14 148 2 c 0
 148 22 205 60 342 229 c 1
 342 239 342 250 342 260 c 0
 342 284 342 305 342 325 c 1
 256 291 234 261 217 261 c 0
 200 261 168 295 154 322 c 1
 165 336 l 1
 173 327 185 319 196 319 c 0
 233 319 296 345 341 364 c 1
 339 472 333 504 320 517 c 0
 312 525 299 531 289 533 c 1
EndSplineSet
Validated: 1
EndChar

StartChar: uni308F
Encoding: 12431 12431 86
Width: 1000
VWidth: 0
Flags: HMW
LayerCount: 2
Back
SplineSet
80 445 m 9
 90 460 l 17
 100 450 120 440 130 440 c 3
 200 440 340 515 370 515 c 3
 380 515 410 480 410 465 c 3
 410 450 375 390 345 335 c 9
 345 310 l 17
 435 415 570 485 700 485 c 3
 830 485 930 385 930 265 c 3
 930 55 735 -45 515 -75 c 9
 510 -55 l 17
 680 -10 855 75 855 265 c 3
 855 360 780 440 670 440 c 3
 560 440 440 375 335 270 c 9
 315 260 l 17
 180 115 130 10 105 10 c 3
 90 10 70 35 70 55 c 3
 70 80 145 130 325 355 c 9
 325 460 l 17
 205 415 175 375 155 375 c 3
 135 375 95 415 80 445 c 9
245 705 m 9
 250 725 l 17
 335 715 379 665 379 640 c 3
 379 633 369 625 364 600 c 0
 359 575 353 490 353 285 c 3
 353 95 362 -10 362 -60 c 3
 362 -90 330 -125 305 -125 c 3
 285 -125 290 -90 270 -50 c 0
 260 -30 230 15 205 40 c 9
 215 55 l 25
 302 -10 l 17
 305 65 310 215 310 370 c 3
 310 605 302 665 282 685 c 0
 272 695 257 702 245 705 c 9
EndSplineSet
Fore
SplineSet
253 693 m 1
 258 712 l 1
 340 702 383 654 383 630 c 0
 383 623 373 615 368 591 c 0
 366 579 363 553 361 506 c 1
 366 508 371 509 374 509 c 0
 384 509 413 475 413 460 c 0
 413 447 385 397 358 348 c 1
 358 338 357 329 357 319 c 1
 444 416 572 479 694 479 c 0
 820 479 917 382 917 266 c 0
 917 62 728 -35 515 -64 c 1
 510 -44 l 1
 675 0 844 82 844 266 c 0
 844 358 772 436 665 436 c 0
 564 436 455 380 357 288 c 1
 357 285 l 2
 357 101 366 0 366 -49 c 0
 366 -78 335 -112 311 -112 c 0
 292 -112 296 -79 277 -40 c 0
 267 -21 238 24 214 48 c 1
 224 62 l 1
 308 -1 l 1
 310 53 313 148 315 255 c 1
 188 118 141 19 117 19 c 0
 102 19 83 43 83 62 c 0
 83 86 152 132 316 335 c 1
 316 346 316 357 316 368 c 0
 316 398 315 425 315 449 c 1
 211 408 184 373 165 373 c 0
 146 373 108 412 93 441 c 1
 102 455 l 1
 112 445 131 436 141 436 c 0
 186 436 261 467 315 489 c 1
 312 618 304 658 289 673 c 0
 279 683 265 690 253 693 c 1
EndSplineSet
Validated: 1
EndChar

StartChar: uni3090
Encoding: 12432 12432 87
Width: 1000
VWidth: 0
Flags: HMW
LayerCount: 2
Back
SplineSet
435 320 m 0
 355 120 315 -55 255 -55 c 3
 200 -55 120 45 120 110 c 3
 120 255 450 450 665 450 c 3
 780 450 885 355 885 215 c 3
 885 25 760 -105 600 -105 c 3
 495 -105 450 -50 450 0 c 3
 450 52 500 90 560 90 c 3
 620 90 695 50 730 -10 c 1
 705 -35 l 1
 675 -45 l 1
 650 5 600 55 545 55 c 3
 510 55 485 35 485 5 c 3
 485 -26 515 -60 580 -60 c 3
 730 -60 810 55 810 225 c 3
 810 335 745 410 635 410 c 3
 480 410 165 240 165 120 c 3
 165 80 210 15 240 15 c 3
 275 15 315 145 395 345 c 0
 455 495 500 618 500 648 c 3
 500 653 495 658 488 658 c 3
 460 658 390 625 340 595 c 0
 315 580 310 575 300 575 c 3
 280 575 235 620 225 675 c 9
 242 685 l 17
 250 665 265 650 285 650 c 3
 325 650 420 675 470 695 c 0
 495 705 500 712 510 712 c 3
 530 712 590 665 590 645 c 3
 590 630 555 620 435 320 c 0
EndSplineSet
Fore
SplineSet
668 -32 m 1
 643 16 596 62 544 62 c 0
 510 62 485 43 485 14 c 0
 485 -16 515 -49 578 -49 c 0
 612 -49 642 -43 668 -32 c 1
395 336 m 1
 279 277 175 193 175 125 c 0
 175 86 219 24 248 24 c 0
 282 24 319 146 395 336 c 1
437 319 m 0
 359 125 320 -44 262 -44 c 0
 209 -44 131 53 131 116 c 0
 131 207 264 317 414 384 c 1
 464 511 500 612 500 638 c 0
 500 643 495 647 488 647 c 0
 461 647 393 615 345 586 c 0
 321 571 316 567 306 567 c 0
 287 567 243 611 233 664 c 1
 250 673 l 1
 258 654 272 640 291 640 c 0
 330 640 423 664 471 683 c 0
 495 693 500 700 510 700 c 0
 529 700 587 654 587 635 c 0
 587 622 561 612 474 408 c 1
 539 431 603 446 660 446 c 0
 772 446 873 354 873 218 c 0
 873 34 752 -93 597 -93 c 0
 495 -93 452 -39 452 9 c 0
 452 59 500 96 558 96 c 0
 615 96 686 59 721 3 c 1
 773 51 801 129 801 227 c 0
 801 334 738 407 631 407 c 0
 583 407 520 390 455 363 c 1
 449 349 443 334 437 319 c 0
EndSplineSet
Validated: 1
EndChar

StartChar: uni3091
Encoding: 12433 12433 88
Width: 1000
VWidth: 0
Flags: HMW
LayerCount: 2
Back
SplineSet
650 -70 m 17
 779 -35 795 -25 795 -10 c 3
 795 10 760 80 685 80 c 3
 635 80 555 35 535 -65 c 0
 531 -85 490 -95 475 -95 c 3
 450 -95 450 40 350 40 c 3
 315 40 265 15 235 -15 c 0
 170 -80 150 -125 130 -125 c 3
 110 -125 90 -100 90 -80 c 3
 90 -55 200 10 300 90 c 0
 400 170 495 240 495 280 c 3
 495 295 480 310 460 310 c 3
 430 310 400 290 400 265 c 3
 400 245 430 225 485 225 c 3
 605 225 680 290 680 370 c 3
 680 420 635 470 550 470 c 3
 485 470 420 445 360 385 c 0
 305 330 285 290 265 290 c 3
 250 290 230 315 230 330 c 3
 230 350 325 420 425 510 c 0
 525 600 585 660 585 675 c 3
 585 678 583 680 580 680 c 3
 550 680 465 640 415 610 c 0
 400 601 392 595 382 595 c 3
 357 595 312 640 302 690 c 9
 320 700 l 17
 325 680 345 665 365 665 c 3
 400 665 495 690 545 710 c 0
 570 720 575 725 585 725 c 3
 610 725 665 675 665 650 c 3
 665 630 615 640 415 450 c 1
 465 485 520 500 570 500 c 3
 665 500 745 445 745 365 c 3
 745 260 640 188 500 188 c 3
 410 188 365 221 365 260 c 3
 365 300 420 340 480 340 c 3
 515 340 540 315 540 290 c 3
 540 235 430 160 325 55 c 1
 335 60 355 70 385 70 c 3
 465 70 485 -10 495 -10 c 3
 505 -10 590 115 705 115 c 3
 805 115 895 -20 895 -60 c 3
 895 -75 875 -100 855 -100 c 3
 835 -100 835 -75 790 -75 c 3
 770 -75 720 -80 655 -90 c 9
 650 -70 l 17
EndSplineSet
Fore
SplineSet
464 228 m 1
 484 249 495 267 495 281 c 0
 495 296 480 310 461 310 c 0
 432 310 403 290 403 266 c 0
 403 249 425 233 464 228 c 1
646 -59 m 1
 771 -25 786 -16 786 -1 c 0
 786 18 752 87 679 87 c 0
 631 87 553 43 534 -54 c 0
 530 -73 491 -83 476 -83 c 0
 452 -83 451 48 354 48 c 0
 320 48 272 23 243 -6 c 0
 180 -69 160 -112 141 -112 c 0
 122 -112 102 -88 102 -69 c 0
 102 -45 209 18 306 96 c 0
 353 133 398 168 433 199 c 1
 390 211 369 235 369 261 c 0
 369 300 423 339 481 339 c 0
 515 339 539 314 539 290 c 0
 539 272 526 251 505 228 c 1
 610 235 675 295 675 368 c 0
 675 416 630 465 548 465 c 0
 485 465 422 440 364 382 c 0
 311 329 291 290 272 290 c 0
 257 290 238 314 238 329 c 0
 238 348 330 417 427 504 c 0
 524 591 582 649 582 664 c 0
 582 667 581 669 578 669 c 0
 549 669 466 630 418 601 c 0
 403 592 396 586 386 586 c 0
 362 586 318 630 308 678 c 1
 325 688 l 1
 330 669 350 654 369 654 c 0
 403 654 495 679 544 698 c 0
 568 708 572 712 582 712 c 0
 606 712 660 664 660 640 c 0
 660 621 612 630 418 446 c 1
 466 480 520 494 568 494 c 0
 660 494 738 441 738 363 c 0
 738 261 636 191 500 191 c 0
 490 191 480 192 471 193 c 1
 432 156 380 112 330 62 c 1
 340 67 359 77 388 77 c 0
 466 77 485 -1 495 -1 c 0
 505 -1 587 121 699 121 c 0
 796 121 883 -10 883 -49 c 0
 883 -64 863 -88 844 -88 c 0
 825 -88 825 -64 781 -64 c 0
 762 -64 713 -68 650 -78 c 1
 646 -59 l 1
EndSplineSet
Validated: 1
EndChar

StartChar: uni3092
Encoding: 12434 12434 89
Width: 1000
VWidth: 0
Flags: HMW
LayerCount: 2
Back
SplineSet
272 4 m 3
 272 132 475 237 725 347 c 0
 750 358 770 372 770 382 c 3
 770 397 755 412 740 422 c 9
 755 437 l 17
 805 412 850 362 850 332 c 3
 850 317 809 314 750 292 c 0
 420 172 315 97 315 12 c 3
 315 -43 385 -65 510 -65 c 3
 635 -65 695 -43 715 -43 c 3
 733 -43 765 -73 765 -88 c 3
 765 -110 665 -123 530 -123 c 3
 350 -123 272 -68 272 4 c 3
530 235 m 3
 530 75 525 25 500 25 c 3
 485 25 459 41 459 55 c 3
 459 65 470 135 470 245 c 3
 470 310 450 355 405 355 c 3
 370 355 315 320 285 290 c 0
 225 230 193 167 173 167 c 3
 158 167 142 196 142 210 c 3
 142 236 185 240 325 460 c 0
 395 570 434 658 434 674 c 3
 434 686 415 701 392 701 c 3
 391 701 387 701 382 700 c 9
 379 721 l 17
 389 724 402 725 412 725 c 3
 462 725 515 693 515 676 c 3
 515 668 507 666 492 645 c 0
 482 631 405 490 280 320 c 1
 325 362 380 390 430 390 c 3
 490 390 530 330 530 235 c 3
585 610 m 3
 600 610 625 595 625 580 c 3
 625 560 475 499 300 499 c 3
 253 499 200 537 175 582 c 9
 190 592 l 17
 215 567 260 547 305 547 c 3
 470 547 568 610 585 610 c 3
EndSplineSet
Fore
SplineSet
582 601 m 0
 597 601 621 587 621 572 c 0
 621 557 531 516 410 500 c 1
 377 449 336 386 287 319 c 1
 331 360 384 387 432 387 c 0
 486 387 523 337 528 256 c 1
 585 286 650 316 718 346 c 0
 742 357 762 370 762 380 c 0
 762 395 748 408 733 418 c 1
 747 433 l 1
 795 409 840 360 840 331 c 0
 840 316 799 313 742 292 c 0
 656 261 586 233 529 207 c 1
 528 76 523 33 500 33 c 0
 485 33 460 48 460 62 c 0
 460 69 466 111 469 177 c 1
 360 120 321 73 321 21 c 0
 321 -32 389 -54 510 -54 c 0
 631 -54 690 -33 709 -33 c 0
 726 -33 757 -61 757 -76 c 0
 757 -97 660 -110 529 -110 c 0
 354 -110 279 -57 279 13 c 0
 279 90 355 159 471 225 c 1
 471 232 471 240 471 247 c 0
 471 310 452 353 408 353 c 0
 374 353 320 319 291 290 c 0
 233 232 202 171 183 171 c 0
 168 171 153 199 153 213 c 0
 153 238 194 242 330 455 c 0
 339 469 347 482 355 495 c 1
 339 494 322 493 306 493 c 0
 260 493 209 530 185 574 c 1
 199 583 l 1
 223 559 267 540 311 540 c 0
 337 540 361 541 383 544 c 1
 418 607 436 652 436 663 c 0
 436 675 417 689 395 689 c 0
 394 689 391 689 386 688 c 1
 383 708 l 1
 393 711 405 712 415 712 c 0
 463 712 515 681 515 665 c 0
 515 657 507 655 492 635 c 0
 488 629 471 599 444 554 c 1
 524 572 571 601 582 601 c 0
EndSplineSet
Validated: 1
EndChar

StartChar: uni3093
Encoding: 12435 12435 90
Width: 1000
VWidth: 0
Flags: HMW
LayerCount: 2
Back
SplineSet
300 205 m 1
 350 265 400 292 452 292 c 3
 520 292 550 235 570 100 c 0
 581.815 20.248 600 -45 665 -45 c 3
 790 -45 880 135 925 295 c 9
 945 290 l 17
 925 110 825 -108 675 -108 c 3
 580 -108 520 -60 505 90 c 0
 495 190 480 250 420 250 c 3
 365 250 295 180 235 80 c 0
 175 -20 165 -95 135 -95 c 3
 115 -95 95 -70 95 -50 c 3
 95 -20 177.162 93.7237 265 245 c 0
 355 400 483 629 483 664 c 3
 483 679 469 700 445 710 c 9
 455 725 l 17
 530 707 570 655 570 635 c 3
 570 625 556 615 540 595 c 0
 500 545 395 380 300 205 c 1
EndSplineSet
Fore
SplineSet
306 208 m 1
 354 266 403 292 453 292 c 0
 519 292 549 237 568 106 c 0
 579 29 597 -35 660 -35 c 0
 781 -35 868 140 912 295 c 1
 932 290 l 1
 913 115 816 -96 670 -96 c 0
 578 -96 520 -50 505 96 c 0
 495 193 480 252 422 252 c 0
 369 252 301 184 243 87 c 0
 185 -10 175 -83 146 -83 c 0
 127 -83 107 -59 107 -40 c 0
 107 -11 187 100 272 247 c 0
 359 397 484 619 484 653 c 0
 484 668 470 688 447 698 c 1
 456 712 l 1
 529 695 568 644 568 625 c 0
 568 615 555 605 539 586 c 0
 500 538 398 378 306 208 c 1
EndSplineSet
Validated: 1
EndChar

StartChar: uni3094
Encoding: 12436 12436 91
Width: 1000
VWidth: 0
Flags: HMW
LayerCount: 2
Back
Refer: 94 12441 N 1 0 0 1 -40 5 2
Refer: 13 12358 N 1 0 0 1 0 0 2
Fore
SplineSet
664 677 m 1
 678 691 l 1
 765 654 804 596 804 570 c 0
 804 557 785 538 766 538 c 0
 742 538 742 614 664 677 c 1
751 732 m 1
 766 746 l 1
 848 721 901 664 901 635 c 0
 901 620 882 601 863 601 c 0
 844 601 833 679 751 732 c 1
253 450 m 1
 272 455 l 1
 277 431 295 414 311 414 c 0
 345 414 452 470 544 470 c 0
 636 470 713 392 713 271 c 0
 713 62 568 -78 364 -122 c 1
 354 -107 l 1
 519 -44 641 72 641 281 c 0
 641 368 597 431 529 431 c 0
 471 431 383 377 359 358 c 0
 335 339 331 333 321 333 c 0
 297 333 253 387 253 450 c 1
345 707 m 1
 359 717 l 1
 383 673 451 649 529 649 c 0
 548 649 572 651 582 651 c 0
 606 651 631 620 631 601 c 0
 631 594 624 587 616 587 c 0
 606 587 597 588 582 588 c 0
 552 588 476 569 408 538 c 1
 398 552 l 1
 481 606 l 1
 399 616 360 654 345 707 c 1
EndSplineSet
Validated: 1
EndChar

StartChar: uni3095
Encoding: 12437 12437 92
Width: 1000
VWidth: 0
Flags: HMW
LayerCount: 2
Back
SplineSet
670 350 m 9
 683 370 l 17
 780 332 865 240 865 147 c 3
 865 127 843 100 830 100 c 3
 813 100 812 121 787 121 c 3
 779 121 730 118 700 115 c 9
 693 135 l 17
 765 155 793 167 793 187 c 3
 793 221 760 295 670 350 c 9
422 327 m 0
 321 73 233 -140 196 -140 c 3
 181 -140 164 -122 164 -104 c 3
 164 -80 211 -43 342 253 c 0
 393 367 422 477 422 501 c 3
 422 517 403 528 378 530 c 9
 382 550 l 17
 386 551 399 553 407 553 c 3
 460 553 507 520 507 500 c 3
 507 493 498.209 486.858 490 475 c 0
 481 462 456 411 422 327 c 0
170 340 m 17
 176 321 187 308 204 308 c 3
 255 308 395 367 496 367 c 3
 555 367 602 305 602 211 c 3
 602 86 550 -57 502 -105 c 0
 475 -132 442 -145 417 -145 c 3
 405 -145 401 -134 397 -121 c 0
 391 -103 370 -85 327 -60 c 9
 337 -42 l 17
 375 -59 411 -73 432 -73 c 3
 445 -73 454 -68 462 -60 c 0
 508 -14 553 133 553 230 c 3
 553 290 525 332 483 332 c 3
 420 332 324 295 290 278 c 0
 256 261 233 237 220 237 c 3
 200 237 161 273 151 330 c 9
 170 340 l 17
EndSplineSet
Fore
SplineSet
665 348 m 1
 678 368 l 1
 772 331 854 242 854 152 c 0
 854 133 833 106 820 106 c 0
 804 106 802 126 778 126 c 0
 770 126 723 124 694 121 c 1
 687 140 l 1
 757 159 784 171 784 190 c 0
 784 223 752 295 665 348 c 1
180 339 m 1
 186 321 197 308 213 308 c 0
 245 308 314 332 385 349 c 1
 411 421 424 479 424 495 c 0
 424 511 406 521 382 523 c 1
 386 542 l 1
 390 543 402 545 410 545 c 0
 461 545 507 513 507 494 c 0
 507 487 498 482 490 470 c 0
 483 459 464 422 438 360 c 1
 458 363 478 365 496 365 c 0
 553 365 599 305 599 214 c 0
 599 93 549 -46 502 -93 c 0
 476 -119 443 -132 419 -132 c 0
 407 -132 404 -121 400 -108 c 0
 394 -91 374 -73 332 -49 c 1
 342 -32 l 1
 379 -48 414 -62 434 -62 c 0
 447 -62 455 -57 463 -49 c 0
 508 -4 551 138 551 232 c 0
 551 290 525 331 484 331 c 0
 466 331 444 328 423 323 c 1
 326 78 241 -127 205 -127 c 0
 190 -127 174 -109 174 -92 c 0
 174 -69 220 -33 347 254 c 0
 355 272 362 291 369 308 c 1
 338 298 311 286 296 279 c 0
 263 263 241 239 228 239 c 0
 209 239 171 274 161 329 c 1
 180 339 l 1
EndSplineSet
Validated: 1
EndChar

StartChar: uni3096
Encoding: 12438 12438 93
Width: 1000
VWidth: 0
Flags: HMW
LayerCount: 2
Back
SplineSet
240.75 535.75 m 9
 253.5 548.5 l 17
 296 518.75 335.95 463.5 335.95 442.25 c 3
 335.95 432.05 328.3 426.1 313 399.75 c 0
 279 340.25 245 238.25 245 140.5 c 3
 245 89.5 249.25 47 257.75 21.5 c 9
 364 246.75 l 25
 381 238.25 l 17
 334.25 127.75 291.75 0.25 291.75 -42.25 c 3
 291.75 -72 304.5 -84.75 304.5 -97.5 c 3
 304.5 -114.5 287.5 -131.5 270.5 -131.5 c 3
 245 -131.5 206.75 -8.25 206.75 103.95 c 3
 206.75 293.5 270.5 425.25 270.5 472 c 3
 270.5 493.25 257.75 518.75 240.75 535.75 c 9
657.25 514.5 m 0
 654.7 527.25 637.7 540 610.5 540 c 9
 606.25 557 l 17
 614.75 559.55 630.9 561.25 639.4 561.25 c 3
 687 561.25 729.5 535.75 729.5 518.75 c 3
 729.5 512.8 723.55 501.75 721 489 c 0
 716.75 467.75 714.2 404 714.2 348.75 c 3
 714.2 272.25 716.75 229.75 716.75 170.25 c 3
 716.75 47 670 -101.75 495.75 -165.5 c 9
 487.25 -152.75 l 17
 623.25 -72 665.75 34.25 665.75 255.25 c 9
 665.75 340.25 l 17
 665.75 459.25 661.5 493.25 657.25 514.5 c 0
818.75 395.5 m 3
 831.5 395.5 848.5 375.95 848.5 363.2 c 3
 848.5 344.5 678.5 297.75 555.25 297.75 c 3
 525.5 297.75 491.5 327.5 466 361.5 c 9
 474.5 374.25 l 17
 500 353 534 340.25 563.75 340.25 c 3
 704 340.25 806 395.5 818.75 395.5 c 3
1060 534 m 9
 1075 548 l 17
 1118 518 1160 465 1160 441 c 3
 1160 430 1150 421 1135 395 c 0
 1101 336 1069 238 1069 141 c 3
 1069 95 1074 55 1080 30 c 9
 1185 250 l 25
 1204 240 l 17
 1157 130 1115 0 1115 -40 c 3
 1115 -70 1128 -84 1128 -97 c 3
 1128 -115 1110 -132 1092 -132 c 3
 1065 -132 1025 -15 1025 105 c 3
 1025 290 1090 424 1090 470 c 3
 1090 491 1077 517 1060 534 c 9
1465 513 m 0
 1461.76 525.943 1445 535 1420 535 c 9
 1415 556 l 17
 1423 559 1442 561 1450 561 c 3
 1500 561 1544 535 1544 517 c 3
 1544 511 1537 498 1534 485 c 0
 1530 464 1527 403 1527 348 c 3
 1527 272 1530 229 1530 170 c 3
 1530 40 1480 -100 1305 -164 c 9
 1295 -150 l 17
 1430 -70 1474 40 1474 255 c 9
 1474 340 l 17
 1474 458 1469 497 1465 513 c 0
1627 397 m 3
 1640 397 1660 377 1660 364 c 3
 1660 337 1490 298 1380 298 c 3
 1350 298 1315 327 1290 364 c 9
 1300 379 l 17
 1325 357 1358 346 1388 346 c 3
 1523 346 1614 397 1627 397 c 3
EndSplineSet
Fore
SplineSet
248 527 m 1
 262 541 l 1
 304 512 345 460 345 437 c 0
 345 426 336 417 321 392 c 0
 288 335 257 240 257 146 c 0
 257 101 261 62 267 38 c 1
 369 252 l 1
 387 242 l 1
 341 135 301 9 301 -30 c 0
 301 -59 314 -72 314 -85 c 0
 314 -102 296 -119 279 -119 c 0
 253 -119 214 -5 214 111 c 0
 214 290 277 420 277 465 c 0
 277 485 264 511 248 527 c 1
807 394 m 0
 820 394 840 375 840 362 c 0
 840 347 782 327 711 313 c 1
 712 259 713 222 713 174 c 0
 713 48 665 -88 495 -150 c 1
 485 -136 l 1
 616 -58 659 47 659 256 c 2
 659 304 l 1
 622 299 585 295 553 295 c 0
 524 295 490 323 466 359 c 1
 476 374 l 1
 500 353 532 342 561 342 c 0
 597 342 630 346 659 351 c 1
 659 456 654 492 650 507 c 0
 647 520 631 528 607 528 c 1
 602 548 l 1
 610 551 628 553 636 553 c 0
 684 553 727 527 727 510 c 0
 727 504 720 492 717 479 c 0
 713 461 711 411 711 362 c 1
 765 377 800 394 807 394 c 0
EndSplineSet
Validated: 1
EndChar

StartChar: uni3099
Encoding: 12441 12441 94
Width: 1000
VWidth: 0
Flags: HMW
LayerCount: 2
Back
SplineSet
710 683 m 9
 725 698 l 17
 815 660 855 600 855 573 c 3
 855 560 835 540 815 540 c 3
 790 540 790 618 710 683 c 9
800 740 m 9
 815 755 l 17
 900 729 955 670 955 640 c 3
 955 625 935 605 915 605 c 3
 895 605 885 685 800 740 c 9
EndSplineSet
Fore
SplineSet
704 672 m 1
 718 686 l 1
 805 649 844 591 844 565 c 0
 844 552 825 533 806 533 c 0
 782 533 782 609 704 672 c 1
791 727 m 1
 806 741 l 1
 888 716 941 659 941 630 c 0
 941 615 922 596 903 596 c 0
 884 596 873 674 791 727 c 1
EndSplineSet
Validated: 1
EndChar

StartChar: uni309A
Encoding: 12442 12442 95
Width: 0
VWidth: 0
Flags: HMW
AnchorPoint: "Dakuten" 912 712 basechar 0
LayerCount: 2
Back
SplineSet
747 645 m 0
 747 699 791 743 845 743 c 0
 899 743 943 699 943 645 c 0
 943 591 899 547 845 547 c 0
 791 547 747 591 747 645 c 0
777 645 m 0
 777 607 807 577 845 577 c 0
 883 577 913 607 913 645 c 0
 913 683 883 713 845 713 c 0
 807 713 777 683 777 645 c 0
EndSplineSet
Fore
SplineSet
740 635 m 0
 740 687 783 730 835 730 c 0
 887 730 930 687 930 635 c 0
 930 583 887 540 835 540 c 0
 783 540 740 583 740 635 c 0
769 635 m 0
 769 598 798 569 835 569 c 0
 872 569 901 598 901 635 c 0
 901 672 872 701 835 701 c 0
 798 701 769 672 769 635 c 0
EndSplineSet
Validated: 1
EndChar

StartChar: uni309B
Encoding: 12443 12443 96
Width: 1000
VWidth: 0
Flags: HMW
LayerCount: 2
Back
SplineSet
40 683 m 9
 55 698 l 17
 145 660 185 600 185 573 c 3
 185 560 165 540 145 540 c 3
 120 540 120 618 40 683 c 9
130 740 m 9
 145 755 l 17
 230 729 285 670 285 640 c 3
 285 625 265 605 245 605 c 3
 225 605 215 685 130 740 c 9
EndSplineSet
Fore
SplineSet
54 672 m 1
 68 686 l 1
 155 649 194 591 194 565 c 0
 194 552 175 533 156 533 c 0
 132 533 132 609 54 672 c 1
141 727 m 1
 156 741 l 1
 238 716 291 659 291 630 c 0
 291 615 272 596 253 596 c 0
 234 596 223 674 141 727 c 1
EndSplineSet
Validated: 1
EndChar

StartChar: uni309C
Encoding: 12444 12444 97
Width: 1000
VWidth: 0
Flags: HMW
LayerCount: 2
Back
SplineSet
57 645 m 0
 57 699 101 743 155 743 c 0
 209 743 253 699 253 645 c 0
 253 591 209 547 155 547 c 0
 101 547 57 591 57 645 c 0
87 645 m 0
 87 607 117 577 155 577 c 0
 193 577 223 607 223 645 c 0
 223 683 193 713 155 713 c 0
 117 713 87 683 87 645 c 0
EndSplineSet
Fore
SplineSet
70 635 m 0
 70 687 113 730 165 730 c 0
 217 730 260 687 260 635 c 0
 260 583 217 540 165 540 c 0
 113 540 70 583 70 635 c 0
99 635 m 0
 99 598 128 569 165 569 c 0
 202 569 231 598 231 635 c 0
 231 672 202 701 165 701 c 0
 128 701 99 672 99 635 c 0
EndSplineSet
Validated: 1
EndChar

StartChar: uni309D
Encoding: 12445 12445 98
Width: 1000
VWidth: 0
Flags: HMW
LayerCount: 2
Back
SplineSet
340 585 m 17
 352 460 440 390 530 330 c 0
 620 270 675 225 675 185 c 3
 675 170 655 140 635 140 c 3
 620 140 615 150 585 150 c 3
 555 150 470 110 375 60 c 9
 365 78 l 17
 500 175 550 205 550 220 c 1
 550 260 325 335 320 575 c 9
 340 585 l 17
EndSplineSet
Fore
SplineSet
345 576 m 1
 357 455 442 387 529 329 c 0
 616 271 670 227 670 188 c 0
 670 173 650 145 631 145 c 0
 616 145 611 154 582 154 c 0
 553 154 471 115 379 67 c 1
 369 85 l 1
 500 179 548 207 548 222 c 0
 548 261 330 334 325 567 c 1
 345 576 l 1
EndSplineSet
Validated: 1
EndChar

StartChar: uni309E
Encoding: 12446 12446 99
Width: 1000
VWidth: 0
Flags: HMW
LayerCount: 2
Back
Refer: 94 12441 N 1 0 0 1 -80 -100 2
Refer: 98 12445 N 1 0 0 1 0 0 2
Fore
SplineSet
624 572 m 1
 638 586 l 1
 725 549 764 491 764 465 c 0
 764 452 745 433 726 433 c 0
 702 433 702 509 624 572 c 1
711 627 m 1
 726 641 l 1
 808 616 861 559 861 530 c 0
 861 515 842 496 823 496 c 0
 804 496 793 574 711 627 c 1
345 576 m 1
 357 455 442 387 529 329 c 0
 616 271 670 227 670 188 c 0
 670 173 650 145 631 145 c 0
 616 145 611 154 582 154 c 0
 553 154 471 115 379 67 c 1
 369 85 l 1
 500 179 548 207 548 222 c 0
 548 261 330 334 325 567 c 1
 345 576 l 1
EndSplineSet
Validated: 1
EndChar

StartChar: uni309F
Encoding: 12447 12447 100
Width: 1000
VWidth: 0
Flags: HMW
LayerCount: 2
Back
SplineSet
770 510 m 3
 790 510 815 490 815 475 c 3
 815 445 650 412 545 412 c 3
 500 412 465 435 440 460 c 9
 455 486 l 17
 480 470 505 460 535 460 c 3
 680 460 750 510 770 510 c 3
203 -70 m 0
 188 -70 165 -45 165 -25 c 3
 165 0 195.193 71.8965 245 170 c 0
 410 495 465 625 465 655 c 3
 465 670 450 695 420 705 c 9
 430 720 l 17
 500 715 550 660 550 640 c 3
 550 615 505 610 300 160 c 1
 380 230 485 283 590 283 c 3
 685 283 755 220 755 125 c 3
 755 0 655 -115 535 -115 c 3
 460 -115 395 -70 360 25 c 9
 375 35 l 17
 415 -30 465 -60 525 -60 c 3
 610 -60 685 35 685 135 c 3
 685 200 635 245 570 245 c 3
 445 245 322.21 155.815 285 100 c 0
 225 10 235 -70 203 -70 c 0
EndSplineSet
Fore
SplineSet
212 -59 m 0
 197 -59 175 -34 175 -15 c 0
 175 9 205 79 253 174 c 0
 413 489 466 615 466 644 c 0
 466 659 451 683 422 693 c 1
 432 707 l 1
 500 702 548 649 548 630 c 0
 548 614 530 606 460 478 c 1
 483 464 506 455 534 455 c 0
 675 455 743 504 762 504 c 0
 781 504 806 485 806 470 c 0
 806 441 646 409 544 409 c 0
 503 409 469 429 445 452 c 1
 410 387 365 294 306 164 c 1
 384 232 485 284 587 284 c 0
 679 284 747 222 747 130 c 0
 747 9 650 -103 534 -103 c 0
 461 -103 398 -59 364 33 c 1
 379 43 l 1
 418 -20 466 -49 524 -49 c 0
 606 -49 679 43 679 140 c 0
 679 203 631 247 568 247 c 0
 447 247 327 160 291 106 c 0
 233 19 243 -59 212 -59 c 0
EndSplineSet
Validated: 1
EndChar

StartChar: uni30A0
Encoding: 12448 12448 101
Width: 1000
VWidth: 0
Flags: HMW
LayerCount: 2
Back
SplineSet
400 300 m 0
 400 355 445 400 500 400 c 0
 555 400 600 355 600 300 c 0
 600 245 555 200 500 200 c 0
 445 200 400 245 400 300 c 0
EndSplineSet
Fore
SplineSet
400 300 m 0
 400 355 445 400 500 400 c 0
 555 400 600 355 600 300 c 0
 600 245 555 200 500 200 c 0
 445 200 400 245 400 300 c 0
EndSplineSet
Validated: 1
EndChar

StartChar: uni30A1
Encoding: 12449 12449 102
Width: 1000
VWidth: 0
Flags: HMW
LayerCount: 2
Back
SplineSet
400 300 m 0
 400 355 445 400 500 400 c 0
 555 400 600 355 600 300 c 0
 600 245 555 200 500 200 c 0
 445 200 400 245 400 300 c 0
EndSplineSet
Fore
SplineSet
400 300 m 0
 400 355 445 400 500 400 c 0
 555 400 600 355 600 300 c 0
 600 245 555 200 500 200 c 0
 445 200 400 245 400 300 c 0
EndSplineSet
Validated: 1
EndChar

StartChar: uni30A2
Encoding: 12450 12450 103
Width: 1000
VWidth: 0
Flags: HMW
LayerCount: 2
Back
SplineSet
400 300 m 0
 400 355 445 400 500 400 c 0
 555 400 600 355 600 300 c 0
 600 245 555 200 500 200 c 0
 445 200 400 245 400 300 c 0
EndSplineSet
Fore
SplineSet
400 300 m 0
 400 355 445 400 500 400 c 0
 555 400 600 355 600 300 c 0
 600 245 555 200 500 200 c 0
 445 200 400 245 400 300 c 0
EndSplineSet
Validated: 1
EndChar

StartChar: uni30A3
Encoding: 12451 12451 104
Width: 1000
VWidth: 0
Flags: HMW
LayerCount: 2
Back
SplineSet
400 300 m 0
 400 355 445 400 500 400 c 0
 555 400 600 355 600 300 c 0
 600 245 555 200 500 200 c 0
 445 200 400 245 400 300 c 0
EndSplineSet
Fore
SplineSet
400 300 m 0
 400 355 445 400 500 400 c 0
 555 400 600 355 600 300 c 0
 600 245 555 200 500 200 c 0
 445 200 400 245 400 300 c 0
EndSplineSet
Validated: 1
EndChar

StartChar: uni30A4
Encoding: 12452 12452 105
Width: 1000
VWidth: 0
Flags: HMW
LayerCount: 2
Back
SplineSet
525 380 m 1
 540 395 610 350 610 330 c 3
 610 315 600 305 600 235 c 3
 600 135 602 0 602 -25 c 3
 602 -50 570 -78 550 -78 c 3
 540 -78 535 -65 535 -55 c 3
 535 -15 550 185 550 325 c 3
 550 350 545 365 525 380 c 1
617 662 m 9
 627 677 l 17
 705 662 750 610 750 588 c 3
 750 575 737.838 576.946 725 560 c 0
 600 395 430 215 140 130 c 9
 130 145 l 17
 475 300 657 575 657 620 c 3
 657 635 638 652 617 662 c 9
EndSplineSet
Fore
SplineSet
613 651 m 1
 623 666 l 1
 699 651 742 600 742 579 c 0
 742 566 730 568 718 552 c 0
 673 492 621 430 560 372 c 1
 583 361 607 341 607 329 c 0
 607 314 597 305 597 237 c 0
 597 140 599 9 599 -15 c 0
 599 -39 567 -67 548 -67 c 0
 538 -67 534 -54 534 -44 c 0
 534 -5 548 188 548 324 c 0
 548 337 547 347 543 356 c 1
 443 265 317 184 151 135 c 1
 141 150 l 1
 476 300 652 566 652 610 c 0
 652 625 633 641 613 651 c 1
EndSplineSet
Validated: 1
EndChar

StartChar: uni30A5
Encoding: 12453 12453 106
Width: 1000
VWidth: 0
Flags: HMW
LayerCount: 2
Back
SplineSet
400 300 m 0
 400 355 445 400 500 400 c 0
 555 400 600 355 600 300 c 0
 600 245 555 200 500 200 c 0
 445 200 400 245 400 300 c 0
EndSplineSet
Fore
SplineSet
400 300 m 0
 400 355 445 400 500 400 c 0
 555 400 600 355 600 300 c 0
 600 245 555 200 500 200 c 0
 445 200 400 245 400 300 c 0
EndSplineSet
Validated: 1
EndChar

StartChar: uni30A6
Encoding: 12454 12454 107
Width: 1000
VWidth: 0
Flags: HMW
LayerCount: 2
Back
SplineSet
400 300 m 0
 400 355 445 400 500 400 c 0
 555 400 600 355 600 300 c 0
 600 245 555 200 500 200 c 0
 445 200 400 245 400 300 c 0
EndSplineSet
Fore
SplineSet
400 300 m 0
 400 355 445 400 500 400 c 0
 555 400 600 355 600 300 c 0
 600 245 555 200 500 200 c 0
 445 200 400 245 400 300 c 0
EndSplineSet
Validated: 1
EndChar

StartChar: uni30A7
Encoding: 12455 12455 108
Width: 1000
VWidth: 0
Flags: HMW
LayerCount: 2
Back
SplineSet
400 300 m 0
 400 355 445 400 500 400 c 0
 555 400 600 355 600 300 c 0
 600 245 555 200 500 200 c 0
 445 200 400 245 400 300 c 0
EndSplineSet
Fore
SplineSet
400 300 m 0
 400 355 445 400 500 400 c 0
 555 400 600 355 600 300 c 0
 600 245 555 200 500 200 c 0
 445 200 400 245 400 300 c 0
EndSplineSet
Validated: 1
EndChar

StartChar: uni30A8
Encoding: 12456 12456 109
Width: 1000
VWidth: 0
Flags: HMW
LayerCount: 2
Back
SplineSet
400 300 m 0
 400 355 445 400 500 400 c 0
 555 400 600 355 600 300 c 0
 600 245 555 200 500 200 c 0
 445 200 400 245 400 300 c 0
EndSplineSet
Fore
SplineSet
400 300 m 0
 400 355 445 400 500 400 c 0
 555 400 600 355 600 300 c 0
 600 245 555 200 500 200 c 0
 445 200 400 245 400 300 c 0
EndSplineSet
Validated: 1
EndChar

StartChar: uni30A9
Encoding: 12457 12457 110
Width: 1000
VWidth: 0
Flags: HMW
LayerCount: 2
Back
SplineSet
400 300 m 0
 400 355 445 400 500 400 c 0
 555 400 600 355 600 300 c 0
 600 245 555 200 500 200 c 0
 445 200 400 245 400 300 c 0
EndSplineSet
Fore
SplineSet
400 300 m 0
 400 355 445 400 500 400 c 0
 555 400 600 355 600 300 c 0
 600 245 555 200 500 200 c 0
 445 200 400 245 400 300 c 0
EndSplineSet
Validated: 1
EndChar

StartChar: uni30AA
Encoding: 12458 12458 111
Width: 1000
VWidth: 0
Flags: HMW
LayerCount: 2
Back
SplineSet
400 300 m 0
 400 355 445 400 500 400 c 0
 555 400 600 355 600 300 c 0
 600 245 555 200 500 200 c 0
 445 200 400 245 400 300 c 0
EndSplineSet
Fore
SplineSet
400 300 m 0
 400 355 445 400 500 400 c 0
 555 400 600 355 600 300 c 0
 600 245 555 200 500 200 c 0
 445 200 400 245 400 300 c 0
EndSplineSet
Validated: 1
EndChar

StartChar: uni30AB
Encoding: 12459 12459 112
Width: 1000
VWidth: 0
Flags: HMW
LayerCount: 2
Back
SplineSet
400 300 m 0
 400 355 445 400 500 400 c 0
 555 400 600 355 600 300 c 0
 600 245 555 200 500 200 c 0
 445 200 400 245 400 300 c 0
EndSplineSet
Fore
SplineSet
400 300 m 0
 400 355 445 400 500 400 c 0
 555 400 600 355 600 300 c 0
 600 245 555 200 500 200 c 0
 445 200 400 245 400 300 c 0
EndSplineSet
Validated: 1
EndChar

StartChar: uni30AC
Encoding: 12460 12460 113
Width: 1000
VWidth: 0
Flags: HMW
LayerCount: 2
Back
SplineSet
400 300 m 0
 400 355 445 400 500 400 c 0
 555 400 600 355 600 300 c 0
 600 245 555 200 500 200 c 0
 445 200 400 245 400 300 c 0
EndSplineSet
Fore
SplineSet
400 300 m 0
 400 355 445 400 500 400 c 0
 555 400 600 355 600 300 c 0
 600 245 555 200 500 200 c 0
 445 200 400 245 400 300 c 0
EndSplineSet
Validated: 1
EndChar

StartChar: uni30AD
Encoding: 12461 12461 114
Width: 1000
VWidth: 0
Flags: HMW
LayerCount: 2
Back
SplineSet
400 300 m 0
 400 355 445 400 500 400 c 0
 555 400 600 355 600 300 c 0
 600 245 555 200 500 200 c 0
 445 200 400 245 400 300 c 0
EndSplineSet
Fore
SplineSet
400 300 m 0
 400 355 445 400 500 400 c 0
 555 400 600 355 600 300 c 0
 600 245 555 200 500 200 c 0
 445 200 400 245 400 300 c 0
EndSplineSet
Validated: 1
EndChar

StartChar: uni30AE
Encoding: 12462 12462 115
Width: 1000
VWidth: 0
Flags: HMW
LayerCount: 2
Back
SplineSet
400 300 m 0
 400 355 445 400 500 400 c 0
 555 400 600 355 600 300 c 0
 600 245 555 200 500 200 c 0
 445 200 400 245 400 300 c 0
EndSplineSet
Fore
SplineSet
400 300 m 0
 400 355 445 400 500 400 c 0
 555 400 600 355 600 300 c 0
 600 245 555 200 500 200 c 0
 445 200 400 245 400 300 c 0
EndSplineSet
Validated: 1
EndChar

StartChar: uni30AF
Encoding: 12463 12463 116
Width: 1000
VWidth: 0
Flags: HMW
LayerCount: 2
Back
SplineSet
475 500 m 1
 485 490 515 485 535 485 c 3
 560 485 660 495 685 500 c 0
 700 503 710 525 720 525 c 3
 740 525 797 485 797 465 c 3
 797 452 778.271 450.809 765 425 c 0
 675 250 500 10 155 -55 c 9
 150 -35 l 17
 540 90 687 420 687 451 c 3
 687 454 684 457 680 457 c 3
 627 457 550 440 525 440 c 3
 505 440 490 475 475 500 c 1
445 645 m 9
 452 665 l 17
 527 660 577 617 577 595 c 3
 577 582 564.223 579.155 555 560 c 0
 490 425 400 260 159 162 c 9
 150 180 l 17
 410 340 485 570 485 610 c 3
 485 627 470 640 445 645 c 9
EndSplineSet
Fore
SplineSet
456 635 m 1
 463 654 l 1
 536 649 584 607 584 586 c 0
 584 573 572 571 563 552 c 0
 552 529 540 504 527 480 c 1
 533 479 539 479 544 479 c 0
 568 479 665 489 689 494 c 0
 704 497 713 518 723 518 c 0
 742 518 798 479 798 460 c 0
 798 447 780 446 767 421 c 0
 680 251 510 19 175 -44 c 1
 170 -25 l 1
 548 96 691 416 691 446 c 0
 691 449 688 452 684 452 c 0
 633 452 558 436 534 436 c 0
 525 436 518 442 511 452 c 1
 449 347 355 238 179 166 c 1
 170 184 l 1
 422 339 495 562 495 601 c 0
 495 617 480 630 456 635 c 1
EndSplineSet
Validated: 1
EndChar

StartChar: uni30B0
Encoding: 12464 12464 117
Width: 1000
VWidth: 0
Flags: HMW
LayerCount: 2
Back
SplineSet
400 300 m 0
 400 355 445 400 500 400 c 0
 555 400 600 355 600 300 c 0
 600 245 555 200 500 200 c 0
 445 200 400 245 400 300 c 0
EndSplineSet
Fore
SplineSet
400 300 m 0
 400 355 445 400 500 400 c 0
 555 400 600 355 600 300 c 0
 600 245 555 200 500 200 c 0
 445 200 400 245 400 300 c 0
EndSplineSet
Validated: 1
EndChar

StartChar: uni30B1
Encoding: 12465 12465 118
Width: 1000
VWidth: 0
Flags: HMW
LayerCount: 2
Back
SplineSet
530 410 m 1
 555 445 667 390 667 355 c 3
 667 343 655.236 337.298 645 310 c 0
 585 150 500 5 268 -72 c 9
 260 -55 l 17
 515 80 580 310 580 370 c 3
 580 395 550 410 530 410 c 1
835 418 m 3
 825 418 805 422 768 422 c 3
 630 422 445 380 415 380 c 3
 385 380 365 414 345 450 c 1
 355 440 385 425 410 425 c 3
 465 425 670 460 720 470 c 0
 760 478 770 490 780 490 c 3
 805 490 857 450 857 430 c 3
 857 424 850 418 835 418 c 3
360 643 m 9
 365 663 l 17
 435 662 490 622 490 600 c 3
 490 587 474.865 583.833 465 565 c 0
 410 460 320 335 155 250 c 9
 145 265 l 17
 340 415 395 585 395 610 c 3
 395 625 385 640 360 643 c 9
EndSplineSet
Fore
SplineSet
364 633 m 1
 369 652 l 1
 437 651 490 612 490 591 c 0
 490 578 476 575 466 557 c 0
 444 516 417 471 382 427 c 1
 392 423 403 421 413 421 c 0
 466 421 665 455 713 465 c 0
 752 473 762 484 772 484 c 0
 796 484 846 445 846 426 c 0
 846 420 840 414 825 414 c 0
 815 414 796 418 760 418 c 0
 711 418 656 413 604 406 c 1
 635 393 662 370 662 353 c 0
 662 341 651 336 641 310 c 0
 583 155 500 14 275 -61 c 1
 267 -44 l 1
 514 87 578 310 578 368 c 0
 578 382 568 392 556 399 c 1
 488 388 433 378 418 378 c 0
 399 378 383 392 369 412 c 1
 319 353 253 297 165 252 c 1
 156 266 l 1
 345 412 398 577 398 601 c 0
 398 616 388 630 364 633 c 1
EndSplineSet
Validated: 1
EndChar

StartChar: uni30B2
Encoding: 12466 12466 119
Width: 1000
VWidth: 0
Flags: HMW
LayerCount: 2
Back
SplineSet
699 650 m 9
 713 667 l 17
 806 638 854 581 854 554 c 3
 854 541 836 519 817 519 c 3
 792 519 785 594 699 650 c 9
783 717 m 9
 797 733 l 17
 885 715 947 660 947 630 c 3
 947 615 928 593 910 593 c 3
 890 593 872 670 783 717 c 9
EndSplineSet
Refer: 118 12465 N 1 0 0 1 0 0 2
Fore
SplineSet
364 633 m 1
 369 652 l 1
 437 651 490 612 490 591 c 0
 490 578 476 575 466 557 c 0
 444 516 417 471 382 427 c 1
 392 423 403 421 413 421 c 0
 466 421 665 455 713 465 c 0
 752 473 762 484 772 484 c 0
 796 484 846 445 846 426 c 0
 846 420 840 414 825 414 c 0
 815 414 796 418 760 418 c 0
 711 418 656 413 604 406 c 1
 635 393 662 370 662 353 c 0
 662 341 651 336 641 310 c 0
 583 155 500 14 275 -61 c 1
 267 -44 l 1
 514 87 578 310 578 368 c 0
 578 382 568 392 556 399 c 1
 488 388 433 378 418 378 c 0
 399 378 383 392 369 412 c 1
 319 353 253 297 165 252 c 1
 156 266 l 1
 345 412 398 577 398 601 c 0
 398 616 388 630 364 633 c 1
693 640 m 1
 707 656 l 1
 797 628 843 572 843 546 c 0
 843 533 825 512 807 512 c 0
 783 512 776 586 693 640 c 1
775 704 m 1
 788 720 l 1
 873 703 934 649 934 620 c 0
 934 605 915 584 898 584 c 0
 879 584 861 658 775 704 c 1
EndSplineSet
Validated: 1
EndChar

StartChar: uni30B3
Encoding: 12467 12467 120
Width: 1000
VWidth: 0
Flags: HMW
LayerCount: 2
Back
SplineSet
400 300 m 0
 400 355 445 400 500 400 c 0
 555 400 600 355 600 300 c 0
 600 245 555 200 500 200 c 0
 445 200 400 245 400 300 c 0
EndSplineSet
Fore
SplineSet
400 300 m 0
 400 355 445 400 500 400 c 0
 555 400 600 355 600 300 c 0
 600 245 555 200 500 200 c 0
 445 200 400 245 400 300 c 0
EndSplineSet
Validated: 1
EndChar

StartChar: uni30B4
Encoding: 12468 12468 121
Width: 1000
VWidth: 0
Flags: HMW
LayerCount: 2
Back
SplineSet
400 300 m 0
 400 355 445 400 500 400 c 0
 555 400 600 355 600 300 c 0
 600 245 555 200 500 200 c 0
 445 200 400 245 400 300 c 0
EndSplineSet
Fore
SplineSet
400 300 m 0
 400 355 445 400 500 400 c 0
 555 400 600 355 600 300 c 0
 600 245 555 200 500 200 c 0
 445 200 400 245 400 300 c 0
EndSplineSet
Validated: 1
EndChar

StartChar: uni30B5
Encoding: 12469 12469 122
Width: 1000
VWidth: 0
Flags: HMW
LayerCount: 2
Back
SplineSet
400 300 m 0
 400 355 445 400 500 400 c 0
 555 400 600 355 600 300 c 0
 600 245 555 200 500 200 c 0
 445 200 400 245 400 300 c 0
EndSplineSet
Fore
SplineSet
400 300 m 0
 400 355 445 400 500 400 c 0
 555 400 600 355 600 300 c 0
 600 245 555 200 500 200 c 0
 445 200 400 245 400 300 c 0
EndSplineSet
Validated: 1
EndChar

StartChar: uni30B6
Encoding: 12470 12470 123
Width: 1000
VWidth: 0
Flags: HMW
LayerCount: 2
Back
SplineSet
400 300 m 0
 400 355 445 400 500 400 c 0
 555 400 600 355 600 300 c 0
 600 245 555 200 500 200 c 0
 445 200 400 245 400 300 c 0
EndSplineSet
Fore
SplineSet
400 300 m 0
 400 355 445 400 500 400 c 0
 555 400 600 355 600 300 c 0
 600 245 555 200 500 200 c 0
 445 200 400 245 400 300 c 0
EndSplineSet
Validated: 1
EndChar

StartChar: uni30B7
Encoding: 12471 12471 124
Width: 1000
VWidth: 0
Flags: HMW
LayerCount: 2
Back
SplineSet
400 300 m 0
 400 355 445 400 500 400 c 0
 555 400 600 355 600 300 c 0
 600 245 555 200 500 200 c 0
 445 200 400 245 400 300 c 0
EndSplineSet
Fore
SplineSet
400 300 m 0
 400 355 445 400 500 400 c 0
 555 400 600 355 600 300 c 0
 600 245 555 200 500 200 c 0
 445 200 400 245 400 300 c 0
EndSplineSet
Validated: 1
EndChar

StartChar: uni30B8
Encoding: 12472 12472 125
Width: 1000
VWidth: 0
Flags: HMW
LayerCount: 2
Back
SplineSet
400 300 m 0
 400 355 445 400 500 400 c 0
 555 400 600 355 600 300 c 0
 600 245 555 200 500 200 c 0
 445 200 400 245 400 300 c 0
EndSplineSet
Fore
SplineSet
400 300 m 0
 400 355 445 400 500 400 c 0
 555 400 600 355 600 300 c 0
 600 245 555 200 500 200 c 0
 445 200 400 245 400 300 c 0
EndSplineSet
Validated: 1
EndChar

StartChar: uni30B9
Encoding: 12473 12473 126
Width: 1000
VWidth: 0
Flags: HMW
LayerCount: 2
Back
SplineSet
400 300 m 0
 400 355 445 400 500 400 c 0
 555 400 600 355 600 300 c 0
 600 245 555 200 500 200 c 0
 445 200 400 245 400 300 c 0
EndSplineSet
Fore
SplineSet
400 300 m 0
 400 355 445 400 500 400 c 0
 555 400 600 355 600 300 c 0
 600 245 555 200 500 200 c 0
 445 200 400 245 400 300 c 0
EndSplineSet
Validated: 1
EndChar

StartChar: uni30BA
Encoding: 12474 12474 127
Width: 1000
VWidth: 0
Flags: HMW
LayerCount: 2
Back
SplineSet
400 300 m 0
 400 355 445 400 500 400 c 0
 555 400 600 355 600 300 c 0
 600 245 555 200 500 200 c 0
 445 200 400 245 400 300 c 0
EndSplineSet
Fore
SplineSet
400 300 m 0
 400 355 445 400 500 400 c 0
 555 400 600 355 600 300 c 0
 600 245 555 200 500 200 c 0
 445 200 400 245 400 300 c 0
EndSplineSet
Validated: 1
EndChar

StartChar: uni30BB
Encoding: 12475 12475 128
Width: 1000
VWidth: 0
Flags: HMW
LayerCount: 2
Back
SplineSet
400 300 m 0
 400 355 445 400 500 400 c 0
 555 400 600 355 600 300 c 0
 600 245 555 200 500 200 c 0
 445 200 400 245 400 300 c 0
EndSplineSet
Fore
SplineSet
400 300 m 0
 400 355 445 400 500 400 c 0
 555 400 600 355 600 300 c 0
 600 245 555 200 500 200 c 0
 445 200 400 245 400 300 c 0
EndSplineSet
Validated: 1
EndChar

StartChar: uni30BC
Encoding: 12476 12476 129
Width: 1000
VWidth: 0
Flags: HMW
LayerCount: 2
Back
SplineSet
400 300 m 0
 400 355 445 400 500 400 c 0
 555 400 600 355 600 300 c 0
 600 245 555 200 500 200 c 0
 445 200 400 245 400 300 c 0
EndSplineSet
Fore
SplineSet
400 300 m 0
 400 355 445 400 500 400 c 0
 555 400 600 355 600 300 c 0
 600 245 555 200 500 200 c 0
 445 200 400 245 400 300 c 0
EndSplineSet
Validated: 1
EndChar

StartChar: uni30BD
Encoding: 12477 12477 130
Width: 1000
VWidth: 0
Flags: HMW
LayerCount: 2
Back
SplineSet
400 300 m 0
 400 355 445 400 500 400 c 0
 555 400 600 355 600 300 c 0
 600 245 555 200 500 200 c 0
 445 200 400 245 400 300 c 0
EndSplineSet
Fore
SplineSet
400 300 m 0
 400 355 445 400 500 400 c 0
 555 400 600 355 600 300 c 0
 600 245 555 200 500 200 c 0
 445 200 400 245 400 300 c 0
EndSplineSet
Validated: 1
EndChar

StartChar: uni30BE
Encoding: 12478 12478 131
Width: 1000
VWidth: 0
Flags: HMW
LayerCount: 2
Back
SplineSet
400 300 m 0
 400 355 445 400 500 400 c 0
 555 400 600 355 600 300 c 0
 600 245 555 200 500 200 c 0
 445 200 400 245 400 300 c 0
EndSplineSet
Fore
SplineSet
400 300 m 0
 400 355 445 400 500 400 c 0
 555 400 600 355 600 300 c 0
 600 245 555 200 500 200 c 0
 445 200 400 245 400 300 c 0
EndSplineSet
Validated: 1
EndChar

StartChar: uni30BF
Encoding: 12479 12479 132
Width: 1000
VWidth: 0
Flags: HMW
LayerCount: 2
Back
SplineSet
400 300 m 0
 400 355 445 400 500 400 c 0
 555 400 600 355 600 300 c 0
 600 245 555 200 500 200 c 0
 445 200 400 245 400 300 c 0
EndSplineSet
Fore
SplineSet
400 300 m 0
 400 355 445 400 500 400 c 0
 555 400 600 355 600 300 c 0
 600 245 555 200 500 200 c 0
 445 200 400 245 400 300 c 0
EndSplineSet
Validated: 1
EndChar

StartChar: uni30C0
Encoding: 12480 12480 133
Width: 1000
VWidth: 0
Flags: HMW
LayerCount: 2
Back
SplineSet
400 300 m 0
 400 355 445 400 500 400 c 0
 555 400 600 355 600 300 c 0
 600 245 555 200 500 200 c 0
 445 200 400 245 400 300 c 0
EndSplineSet
Fore
SplineSet
400 300 m 0
 400 355 445 400 500 400 c 0
 555 400 600 355 600 300 c 0
 600 245 555 200 500 200 c 0
 445 200 400 245 400 300 c 0
EndSplineSet
Validated: 1
EndChar

StartChar: uni30C1
Encoding: 12481 12481 134
Width: 1000
VWidth: 0
Flags: HMW
LayerCount: 2
Back
SplineSet
400 300 m 0
 400 355 445 400 500 400 c 0
 555 400 600 355 600 300 c 0
 600 245 555 200 500 200 c 0
 445 200 400 245 400 300 c 0
EndSplineSet
Fore
SplineSet
400 300 m 0
 400 355 445 400 500 400 c 0
 555 400 600 355 600 300 c 0
 600 245 555 200 500 200 c 0
 445 200 400 245 400 300 c 0
EndSplineSet
Validated: 1
EndChar

StartChar: uni30C2
Encoding: 12482 12482 135
Width: 1000
VWidth: 0
Flags: HMW
LayerCount: 2
Back
SplineSet
400 300 m 0
 400 355 445 400 500 400 c 0
 555 400 600 355 600 300 c 0
 600 245 555 200 500 200 c 0
 445 200 400 245 400 300 c 0
EndSplineSet
Fore
SplineSet
400 300 m 0
 400 355 445 400 500 400 c 0
 555 400 600 355 600 300 c 0
 600 245 555 200 500 200 c 0
 445 200 400 245 400 300 c 0
EndSplineSet
Validated: 1
EndChar

StartChar: uni30C3
Encoding: 12483 12483 136
Width: 1000
VWidth: 0
Flags: HMW
LayerCount: 2
Back
SplineSet
400 300 m 0
 400 355 445 400 500 400 c 0
 555 400 600 355 600 300 c 0
 600 245 555 200 500 200 c 0
 445 200 400 245 400 300 c 0
EndSplineSet
Fore
SplineSet
400 300 m 0
 400 355 445 400 500 400 c 0
 555 400 600 355 600 300 c 0
 600 245 555 200 500 200 c 0
 445 200 400 245 400 300 c 0
EndSplineSet
Validated: 1
EndChar

StartChar: uni30C4
Encoding: 12484 12484 137
Width: 1000
VWidth: 0
Flags: HMW
LayerCount: 2
Back
SplineSet
400 300 m 0
 400 355 445 400 500 400 c 0
 555 400 600 355 600 300 c 0
 600 245 555 200 500 200 c 0
 445 200 400 245 400 300 c 0
EndSplineSet
Fore
SplineSet
400 300 m 0
 400 355 445 400 500 400 c 0
 555 400 600 355 600 300 c 0
 600 245 555 200 500 200 c 0
 445 200 400 245 400 300 c 0
EndSplineSet
Validated: 1
EndChar

StartChar: uni30C5
Encoding: 12485 12485 138
Width: 1000
VWidth: 0
Flags: HMW
LayerCount: 2
Back
SplineSet
400 300 m 0
 400 355 445 400 500 400 c 0
 555 400 600 355 600 300 c 0
 600 245 555 200 500 200 c 0
 445 200 400 245 400 300 c 0
EndSplineSet
Fore
SplineSet
400 300 m 0
 400 355 445 400 500 400 c 0
 555 400 600 355 600 300 c 0
 600 245 555 200 500 200 c 0
 445 200 400 245 400 300 c 0
EndSplineSet
Validated: 1
EndChar

StartChar: uni30C6
Encoding: 12486 12486 139
Width: 1000
VWidth: 0
Flags: HMW
LayerCount: 2
Back
SplineSet
400 300 m 0
 400 355 445 400 500 400 c 0
 555 400 600 355 600 300 c 0
 600 245 555 200 500 200 c 0
 445 200 400 245 400 300 c 0
EndSplineSet
Fore
SplineSet
400 300 m 0
 400 355 445 400 500 400 c 0
 555 400 600 355 600 300 c 0
 600 245 555 200 500 200 c 0
 445 200 400 245 400 300 c 0
EndSplineSet
Validated: 1
EndChar

StartChar: uni30C7
Encoding: 12487 12487 140
Width: 1000
VWidth: 0
Flags: HMW
LayerCount: 2
Back
SplineSet
400 300 m 0
 400 355 445 400 500 400 c 0
 555 400 600 355 600 300 c 0
 600 245 555 200 500 200 c 0
 445 200 400 245 400 300 c 0
EndSplineSet
Fore
SplineSet
400 300 m 0
 400 355 445 400 500 400 c 0
 555 400 600 355 600 300 c 0
 600 245 555 200 500 200 c 0
 445 200 400 245 400 300 c 0
EndSplineSet
Validated: 1
EndChar

StartChar: uni30C8
Encoding: 12488 12488 141
Width: 1000
VWidth: 0
Flags: HMW
LayerCount: 2
Back
SplineSet
400 300 m 0
 400 355 445 400 500 400 c 0
 555 400 600 355 600 300 c 0
 600 245 555 200 500 200 c 0
 445 200 400 245 400 300 c 0
EndSplineSet
Fore
SplineSet
400 300 m 0
 400 355 445 400 500 400 c 0
 555 400 600 355 600 300 c 0
 600 245 555 200 500 200 c 0
 445 200 400 245 400 300 c 0
EndSplineSet
Validated: 1
EndChar

StartChar: uni30C9
Encoding: 12489 12489 142
Width: 1000
VWidth: 0
Flags: HMW
LayerCount: 2
Back
SplineSet
400 300 m 0
 400 355 445 400 500 400 c 0
 555 400 600 355 600 300 c 0
 600 245 555 200 500 200 c 0
 445 200 400 245 400 300 c 0
EndSplineSet
Fore
SplineSet
400 300 m 0
 400 355 445 400 500 400 c 0
 555 400 600 355 600 300 c 0
 600 245 555 200 500 200 c 0
 445 200 400 245 400 300 c 0
EndSplineSet
Validated: 1
EndChar

StartChar: uni30CA
Encoding: 12490 12490 143
Width: 1000
VWidth: 0
Flags: HMW
LayerCount: 2
Back
SplineSet
400 300 m 0
 400 355 445 400 500 400 c 0
 555 400 600 355 600 300 c 0
 600 245 555 200 500 200 c 0
 445 200 400 245 400 300 c 0
EndSplineSet
Fore
SplineSet
400 300 m 0
 400 355 445 400 500 400 c 0
 555 400 600 355 600 300 c 0
 600 245 555 200 500 200 c 0
 445 200 400 245 400 300 c 0
EndSplineSet
Validated: 1
EndChar

StartChar: uni30CB
Encoding: 12491 12491 144
Width: 1000
VWidth: 0
Flags: HMW
LayerCount: 2
Back
SplineSet
260 485 m 17
 272 470 295 463 335 463 c 3
 395 463 495 469 590 479 c 0
 622.21 482.391 645 493 655 493 c 3
 675 493 730 452 730 432 c 3
 730 425 723 418 710 418 c 3
 693 418 655 425 605 425 c 3
 565 425 480 421 410 415 c 0
 374.773 411.981 338 402 325 402 c 3
 295 402 260 440 245 475 c 9
 260 485 l 17
160 222 m 17
 172 202 205 190 225 190 c 3
 275 190 495 198 670 211 c 0
 719.23 214.657 750 229 760 229 c 3
 785 229 840 179 840 159 c 3
 840 151 830 144 817 144 c 3
 800 144 760 153 695 153 c 3
 630 153 450 149 310 137 c 0
 270.808 133.641 245 125 230 125 c 3
 200 125 160 167 145 212 c 9
 160 222 l 17
EndSplineSet
Fore
SplineSet
267 479 m 1
 279 464 301 458 340 458 c 0
 398 458 495 464 587 474 c 0
 618 477 640 487 650 487 c 0
 669 487 723 447 723 428 c 0
 723 421 717 414 704 414 c 0
 688 414 650 421 602 421 c 0
 563 421 481 418 413 412 c 0
 379 409 343 399 330 399 c 0
 301 399 268 436 253 470 c 1
 267 479 l 1
170 224 m 1
 182 205 214 193 233 193 c 0
 281 193 495 201 665 214 c 0
 713 218 742 231 752 231 c 0
 776 231 830 182 830 163 c 0
 830 155 820 149 807 149 c 0
 791 149 752 157 689 157 c 0
 626 157 452 154 316 142 c 0
 278 139 253 130 238 130 c 0
 209 130 171 171 156 215 c 1
 170 224 l 1
EndSplineSet
Validated: 1
EndChar

StartChar: uni30CC
Encoding: 12492 12492 145
Width: 1000
VWidth: 0
Flags: HMW
LayerCount: 2
Back
SplineSet
400 300 m 0
 400 355 445 400 500 400 c 0
 555 400 600 355 600 300 c 0
 600 245 555 200 500 200 c 0
 445 200 400 245 400 300 c 0
EndSplineSet
Fore
SplineSet
400 300 m 0
 400 355 445 400 500 400 c 0
 555 400 600 355 600 300 c 0
 600 245 555 200 500 200 c 0
 445 200 400 245 400 300 c 0
EndSplineSet
Validated: 1
EndChar

StartChar: uni30CD
Encoding: 12493 12493 146
Width: 1000
VWidth: 0
Flags: HMW
LayerCount: 2
Back
SplineSet
400 300 m 0
 400 355 445 400 500 400 c 0
 555 400 600 355 600 300 c 0
 600 245 555 200 500 200 c 0
 445 200 400 245 400 300 c 0
EndSplineSet
Fore
SplineSet
400 300 m 0
 400 355 445 400 500 400 c 0
 555 400 600 355 600 300 c 0
 600 245 555 200 500 200 c 0
 445 200 400 245 400 300 c 0
EndSplineSet
Validated: 1
EndChar

StartChar: uni30CE
Encoding: 12494 12494 147
Width: 1000
VWidth: 0
Flags: HMW
LayerCount: 2
Back
SplineSet
400 300 m 0
 400 355 445 400 500 400 c 0
 555 400 600 355 600 300 c 0
 600 245 555 200 500 200 c 0
 445 200 400 245 400 300 c 0
EndSplineSet
Fore
SplineSet
400 300 m 0
 400 355 445 400 500 400 c 0
 555 400 600 355 600 300 c 0
 600 245 555 200 500 200 c 0
 445 200 400 245 400 300 c 0
EndSplineSet
Validated: 1
EndChar

StartChar: uni30CF
Encoding: 12495 12495 148
Width: 1000
VWidth: 0
Flags: HMW
LayerCount: 2
Back
SplineSet
400 300 m 0
 400 355 445 400 500 400 c 0
 555 400 600 355 600 300 c 0
 600 245 555 200 500 200 c 0
 445 200 400 245 400 300 c 0
EndSplineSet
Fore
SplineSet
400 300 m 0
 400 355 445 400 500 400 c 0
 555 400 600 355 600 300 c 0
 600 245 555 200 500 200 c 0
 445 200 400 245 400 300 c 0
EndSplineSet
Validated: 1
EndChar

StartChar: uni30D0
Encoding: 12496 12496 149
Width: 1000
VWidth: 0
Flags: HMW
LayerCount: 2
Back
SplineSet
400 300 m 0
 400 355 445 400 500 400 c 0
 555 400 600 355 600 300 c 0
 600 245 555 200 500 200 c 0
 445 200 400 245 400 300 c 0
EndSplineSet
Fore
SplineSet
400 300 m 0
 400 355 445 400 500 400 c 0
 555 400 600 355 600 300 c 0
 600 245 555 200 500 200 c 0
 445 200 400 245 400 300 c 0
EndSplineSet
Validated: 1
EndChar

StartChar: uni30D1
Encoding: 12497 12497 150
Width: 1000
VWidth: 0
Flags: HMW
LayerCount: 2
Back
SplineSet
400 300 m 0
 400 355 445 400 500 400 c 0
 555 400 600 355 600 300 c 0
 600 245 555 200 500 200 c 0
 445 200 400 245 400 300 c 0
EndSplineSet
Fore
SplineSet
400 300 m 0
 400 355 445 400 500 400 c 0
 555 400 600 355 600 300 c 0
 600 245 555 200 500 200 c 0
 445 200 400 245 400 300 c 0
EndSplineSet
Validated: 1
EndChar

StartChar: uni30D2
Encoding: 12498 12498 151
Width: 1000
VWidth: 0
Flags: HMW
LayerCount: 2
Back
SplineSet
400 300 m 0
 400 355 445 400 500 400 c 0
 555 400 600 355 600 300 c 0
 600 245 555 200 500 200 c 0
 445 200 400 245 400 300 c 0
EndSplineSet
Fore
SplineSet
400 300 m 0
 400 355 445 400 500 400 c 0
 555 400 600 355 600 300 c 0
 600 245 555 200 500 200 c 0
 445 200 400 245 400 300 c 0
EndSplineSet
Validated: 1
EndChar

StartChar: uni30D3
Encoding: 12499 12499 152
Width: 1000
VWidth: 0
Flags: HMW
LayerCount: 2
Back
SplineSet
400 300 m 0
 400 355 445 400 500 400 c 0
 555 400 600 355 600 300 c 0
 600 245 555 200 500 200 c 0
 445 200 400 245 400 300 c 0
EndSplineSet
Fore
SplineSet
400 300 m 0
 400 355 445 400 500 400 c 0
 555 400 600 355 600 300 c 0
 600 245 555 200 500 200 c 0
 445 200 400 245 400 300 c 0
EndSplineSet
Validated: 1
EndChar

StartChar: uni30D4
Encoding: 12500 12500 153
Width: 1000
VWidth: 0
Flags: HMW
LayerCount: 2
Back
SplineSet
400 300 m 0
 400 355 445 400 500 400 c 0
 555 400 600 355 600 300 c 0
 600 245 555 200 500 200 c 0
 445 200 400 245 400 300 c 0
EndSplineSet
Fore
SplineSet
400 300 m 0
 400 355 445 400 500 400 c 0
 555 400 600 355 600 300 c 0
 600 245 555 200 500 200 c 0
 445 200 400 245 400 300 c 0
EndSplineSet
Validated: 1
EndChar

StartChar: uni30D5
Encoding: 12501 12501 154
Width: 1000
VWidth: 0
Flags: HMW
LayerCount: 2
Back
SplineSet
400 300 m 0
 400 355 445 400 500 400 c 0
 555 400 600 355 600 300 c 0
 600 245 555 200 500 200 c 0
 445 200 400 245 400 300 c 0
EndSplineSet
Fore
SplineSet
400 300 m 0
 400 355 445 400 500 400 c 0
 555 400 600 355 600 300 c 0
 600 245 555 200 500 200 c 0
 445 200 400 245 400 300 c 0
EndSplineSet
Validated: 1
EndChar

StartChar: uni30D6
Encoding: 12502 12502 155
Width: 1000
VWidth: 0
Flags: HMW
LayerCount: 2
Back
SplineSet
400 300 m 0
 400 355 445 400 500 400 c 0
 555 400 600 355 600 300 c 0
 600 245 555 200 500 200 c 0
 445 200 400 245 400 300 c 0
EndSplineSet
Fore
SplineSet
400 300 m 0
 400 355 445 400 500 400 c 0
 555 400 600 355 600 300 c 0
 600 245 555 200 500 200 c 0
 445 200 400 245 400 300 c 0
EndSplineSet
Validated: 1
EndChar

StartChar: uni30D7
Encoding: 12503 12503 156
Width: 1000
VWidth: 0
Flags: HMW
LayerCount: 2
Back
SplineSet
400 300 m 0
 400 355 445 400 500 400 c 0
 555 400 600 355 600 300 c 0
 600 245 555 200 500 200 c 0
 445 200 400 245 400 300 c 0
EndSplineSet
Fore
SplineSet
400 300 m 0
 400 355 445 400 500 400 c 0
 555 400 600 355 600 300 c 0
 600 245 555 200 500 200 c 0
 445 200 400 245 400 300 c 0
EndSplineSet
Validated: 1
EndChar

StartChar: uni30D8
Encoding: 12504 12504 157
Width: 1000
VWidth: 0
Flags: HMW
LayerCount: 2
Back
SplineSet
400 300 m 0
 400 355 445 400 500 400 c 0
 555 400 600 355 600 300 c 0
 600 245 555 200 500 200 c 0
 445 200 400 245 400 300 c 0
EndSplineSet
Fore
SplineSet
400 300 m 0
 400 355 445 400 500 400 c 0
 555 400 600 355 600 300 c 0
 600 245 555 200 500 200 c 0
 445 200 400 245 400 300 c 0
EndSplineSet
Validated: 1
EndChar

StartChar: uni30D9
Encoding: 12505 12505 158
Width: 1000
VWidth: 0
Flags: HMW
LayerCount: 2
Back
SplineSet
400 300 m 0
 400 355 445 400 500 400 c 0
 555 400 600 355 600 300 c 0
 600 245 555 200 500 200 c 0
 445 200 400 245 400 300 c 0
EndSplineSet
Fore
SplineSet
400 300 m 0
 400 355 445 400 500 400 c 0
 555 400 600 355 600 300 c 0
 600 245 555 200 500 200 c 0
 445 200 400 245 400 300 c 0
EndSplineSet
Validated: 1
EndChar

StartChar: uni30DA
Encoding: 12506 12506 159
Width: 1000
VWidth: 0
Flags: HMW
LayerCount: 2
Back
SplineSet
400 300 m 0
 400 355 445 400 500 400 c 0
 555 400 600 355 600 300 c 0
 600 245 555 200 500 200 c 0
 445 200 400 245 400 300 c 0
EndSplineSet
Fore
SplineSet
400 300 m 0
 400 355 445 400 500 400 c 0
 555 400 600 355 600 300 c 0
 600 245 555 200 500 200 c 0
 445 200 400 245 400 300 c 0
EndSplineSet
Validated: 1
EndChar

StartChar: uni30DB
Encoding: 12507 12507 160
Width: 1000
VWidth: 0
Flags: HMW
LayerCount: 2
Back
SplineSet
400 300 m 0
 400 355 445 400 500 400 c 0
 555 400 600 355 600 300 c 0
 600 245 555 200 500 200 c 0
 445 200 400 245 400 300 c 0
EndSplineSet
Fore
SplineSet
400 300 m 0
 400 355 445 400 500 400 c 0
 555 400 600 355 600 300 c 0
 600 245 555 200 500 200 c 0
 445 200 400 245 400 300 c 0
EndSplineSet
Validated: 1
EndChar

StartChar: uni30DC
Encoding: 12508 12508 161
Width: 1000
VWidth: 0
Flags: HMW
LayerCount: 2
Back
SplineSet
400 300 m 0
 400 355 445 400 500 400 c 0
 555 400 600 355 600 300 c 0
 600 245 555 200 500 200 c 0
 445 200 400 245 400 300 c 0
EndSplineSet
Fore
SplineSet
400 300 m 0
 400 355 445 400 500 400 c 0
 555 400 600 355 600 300 c 0
 600 245 555 200 500 200 c 0
 445 200 400 245 400 300 c 0
EndSplineSet
Validated: 1
EndChar

StartChar: uni30DD
Encoding: 12509 12509 162
Width: 1000
VWidth: 0
Flags: HMW
LayerCount: 2
Back
SplineSet
400 300 m 0
 400 355 445 400 500 400 c 0
 555 400 600 355 600 300 c 0
 600 245 555 200 500 200 c 0
 445 200 400 245 400 300 c 0
EndSplineSet
Fore
SplineSet
400 300 m 0
 400 355 445 400 500 400 c 0
 555 400 600 355 600 300 c 0
 600 245 555 200 500 200 c 0
 445 200 400 245 400 300 c 0
EndSplineSet
Validated: 1
EndChar

StartChar: uni30DE
Encoding: 12510 12510 163
Width: 1000
VWidth: 0
Flags: HMW
LayerCount: 2
Back
SplineSet
400 300 m 0
 400 355 445 400 500 400 c 0
 555 400 600 355 600 300 c 0
 600 245 555 200 500 200 c 0
 445 200 400 245 400 300 c 0
EndSplineSet
Fore
SplineSet
400 300 m 0
 400 355 445 400 500 400 c 0
 555 400 600 355 600 300 c 0
 600 245 555 200 500 200 c 0
 445 200 400 245 400 300 c 0
EndSplineSet
Validated: 1
EndChar

StartChar: uni30DF
Encoding: 12511 12511 164
Width: 1000
VWidth: 0
Flags: HMW
LayerCount: 2
Back
SplineSet
400 300 m 0
 400 355 445 400 500 400 c 0
 555 400 600 355 600 300 c 0
 600 245 555 200 500 200 c 0
 445 200 400 245 400 300 c 0
EndSplineSet
Fore
SplineSet
400 300 m 0
 400 355 445 400 500 400 c 0
 555 400 600 355 600 300 c 0
 600 245 555 200 500 200 c 0
 445 200 400 245 400 300 c 0
EndSplineSet
Validated: 1
EndChar

StartChar: uni30E0
Encoding: 12512 12512 165
Width: 1000
VWidth: 0
Flags: HMW
LayerCount: 2
Back
SplineSet
400 300 m 0
 400 355 445 400 500 400 c 0
 555 400 600 355 600 300 c 0
 600 245 555 200 500 200 c 0
 445 200 400 245 400 300 c 0
EndSplineSet
Fore
SplineSet
400 300 m 0
 400 355 445 400 500 400 c 0
 555 400 600 355 600 300 c 0
 600 245 555 200 500 200 c 0
 445 200 400 245 400 300 c 0
EndSplineSet
Validated: 1
EndChar

StartChar: uni30E1
Encoding: 12513 12513 166
Width: 1000
VWidth: 0
Flags: HMW
LayerCount: 2
Back
SplineSet
400 300 m 0
 400 355 445 400 500 400 c 0
 555 400 600 355 600 300 c 0
 600 245 555 200 500 200 c 0
 445 200 400 245 400 300 c 0
EndSplineSet
Fore
SplineSet
400 300 m 0
 400 355 445 400 500 400 c 0
 555 400 600 355 600 300 c 0
 600 245 555 200 500 200 c 0
 445 200 400 245 400 300 c 0
EndSplineSet
Validated: 1
EndChar

StartChar: uni30E2
Encoding: 12514 12514 167
Width: 1000
VWidth: 0
Flags: HMW
LayerCount: 2
Back
SplineSet
400 300 m 0
 400 355 445 400 500 400 c 0
 555 400 600 355 600 300 c 0
 600 245 555 200 500 200 c 0
 445 200 400 245 400 300 c 0
EndSplineSet
Fore
SplineSet
400 300 m 0
 400 355 445 400 500 400 c 0
 555 400 600 355 600 300 c 0
 600 245 555 200 500 200 c 0
 445 200 400 245 400 300 c 0
EndSplineSet
Validated: 1
EndChar

StartChar: uni30E3
Encoding: 12515 12515 168
Width: 1000
VWidth: 0
Flags: HMW
LayerCount: 2
Back
SplineSet
400 300 m 0
 400 355 445 400 500 400 c 0
 555 400 600 355 600 300 c 0
 600 245 555 200 500 200 c 0
 445 200 400 245 400 300 c 0
EndSplineSet
Fore
SplineSet
400 300 m 0
 400 355 445 400 500 400 c 0
 555 400 600 355 600 300 c 0
 600 245 555 200 500 200 c 0
 445 200 400 245 400 300 c 0
EndSplineSet
Validated: 1
EndChar

StartChar: uni30E4
Encoding: 12516 12516 169
Width: 1000
VWidth: 0
Flags: HMW
LayerCount: 2
Back
SplineSet
400 300 m 0
 400 355 445 400 500 400 c 0
 555 400 600 355 600 300 c 0
 600 245 555 200 500 200 c 0
 445 200 400 245 400 300 c 0
EndSplineSet
Fore
SplineSet
400 300 m 0
 400 355 445 400 500 400 c 0
 555 400 600 355 600 300 c 0
 600 245 555 200 500 200 c 0
 445 200 400 245 400 300 c 0
EndSplineSet
Validated: 1
EndChar

StartChar: uni30E5
Encoding: 12517 12517 170
Width: 1000
VWidth: 0
Flags: HMW
LayerCount: 2
Back
SplineSet
400 300 m 0
 400 355 445 400 500 400 c 0
 555 400 600 355 600 300 c 0
 600 245 555 200 500 200 c 0
 445 200 400 245 400 300 c 0
EndSplineSet
Fore
SplineSet
400 300 m 0
 400 355 445 400 500 400 c 0
 555 400 600 355 600 300 c 0
 600 245 555 200 500 200 c 0
 445 200 400 245 400 300 c 0
EndSplineSet
Validated: 1
EndChar

StartChar: uni30E6
Encoding: 12518 12518 171
Width: 1000
VWidth: 0
Flags: HMW
LayerCount: 2
Back
SplineSet
400 300 m 0
 400 355 445 400 500 400 c 0
 555 400 600 355 600 300 c 0
 600 245 555 200 500 200 c 0
 445 200 400 245 400 300 c 0
EndSplineSet
Fore
SplineSet
400 300 m 0
 400 355 445 400 500 400 c 0
 555 400 600 355 600 300 c 0
 600 245 555 200 500 200 c 0
 445 200 400 245 400 300 c 0
EndSplineSet
Validated: 1
EndChar

StartChar: uni30E7
Encoding: 12519 12519 172
Width: 1000
VWidth: 0
Flags: HMW
LayerCount: 2
Back
SplineSet
400 300 m 0
 400 355 445 400 500 400 c 0
 555 400 600 355 600 300 c 0
 600 245 555 200 500 200 c 0
 445 200 400 245 400 300 c 0
EndSplineSet
Fore
SplineSet
400 300 m 0
 400 355 445 400 500 400 c 0
 555 400 600 355 600 300 c 0
 600 245 555 200 500 200 c 0
 445 200 400 245 400 300 c 0
EndSplineSet
Validated: 1
EndChar

StartChar: uni30E8
Encoding: 12520 12520 173
Width: 1000
VWidth: 0
Flags: HMW
LayerCount: 2
Back
SplineSet
400 300 m 0
 400 355 445 400 500 400 c 0
 555 400 600 355 600 300 c 0
 600 245 555 200 500 200 c 0
 445 200 400 245 400 300 c 0
EndSplineSet
Fore
SplineSet
400 300 m 0
 400 355 445 400 500 400 c 0
 555 400 600 355 600 300 c 0
 600 245 555 200 500 200 c 0
 445 200 400 245 400 300 c 0
EndSplineSet
Validated: 1
EndChar

StartChar: uni30E9
Encoding: 12521 12521 174
Width: 1000
VWidth: 0
Flags: HMW
LayerCount: 2
Back
SplineSet
400 300 m 0
 400 355 445 400 500 400 c 0
 555 400 600 355 600 300 c 0
 600 245 555 200 500 200 c 0
 445 200 400 245 400 300 c 0
EndSplineSet
Fore
SplineSet
400 300 m 0
 400 355 445 400 500 400 c 0
 555 400 600 355 600 300 c 0
 600 245 555 200 500 200 c 0
 445 200 400 245 400 300 c 0
EndSplineSet
Validated: 1
EndChar

StartChar: uni30EA
Encoding: 12522 12522 175
Width: 1000
VWidth: 0
Flags: HMW
LayerCount: 2
Back
SplineSet
400 300 m 0
 400 355 445 400 500 400 c 0
 555 400 600 355 600 300 c 0
 600 245 555 200 500 200 c 0
 445 200 400 245 400 300 c 0
EndSplineSet
Fore
SplineSet
400 300 m 0
 400 355 445 400 500 400 c 0
 555 400 600 355 600 300 c 0
 600 245 555 200 500 200 c 0
 445 200 400 245 400 300 c 0
EndSplineSet
Validated: 1
EndChar

StartChar: uni30EB
Encoding: 12523 12523 176
Width: 1000
VWidth: 0
Flags: HMW
LayerCount: 2
Back
SplineSet
400 300 m 0
 400 355 445 400 500 400 c 0
 555 400 600 355 600 300 c 0
 600 245 555 200 500 200 c 0
 445 200 400 245 400 300 c 0
EndSplineSet
Fore
SplineSet
400 300 m 0
 400 355 445 400 500 400 c 0
 555 400 600 355 600 300 c 0
 600 245 555 200 500 200 c 0
 445 200 400 245 400 300 c 0
EndSplineSet
Validated: 1
EndChar

StartChar: uni30EC
Encoding: 12524 12524 177
Width: 1000
VWidth: 0
Flags: HMW
LayerCount: 2
Back
SplineSet
400 300 m 0
 400 355 445 400 500 400 c 0
 555 400 600 355 600 300 c 0
 600 245 555 200 500 200 c 0
 445 200 400 245 400 300 c 0
EndSplineSet
Fore
SplineSet
400 300 m 0
 400 355 445 400 500 400 c 0
 555 400 600 355 600 300 c 0
 600 245 555 200 500 200 c 0
 445 200 400 245 400 300 c 0
EndSplineSet
Validated: 1
EndChar

StartChar: uni30ED
Encoding: 12525 12525 178
Width: 1000
VWidth: 0
Flags: HMW
LayerCount: 2
Back
SplineSet
400 300 m 0
 400 355 445 400 500 400 c 0
 555 400 600 355 600 300 c 0
 600 245 555 200 500 200 c 0
 445 200 400 245 400 300 c 0
EndSplineSet
Fore
SplineSet
400 300 m 0
 400 355 445 400 500 400 c 0
 555 400 600 355 600 300 c 0
 600 245 555 200 500 200 c 0
 445 200 400 245 400 300 c 0
EndSplineSet
Validated: 1
EndChar

StartChar: uni30EE
Encoding: 12526 12526 179
Width: 1000
VWidth: 0
Flags: HMW
LayerCount: 2
Back
SplineSet
400 300 m 0
 400 355 445 400 500 400 c 0
 555 400 600 355 600 300 c 0
 600 245 555 200 500 200 c 0
 445 200 400 245 400 300 c 0
EndSplineSet
Fore
SplineSet
400 300 m 0
 400 355 445 400 500 400 c 0
 555 400 600 355 600 300 c 0
 600 245 555 200 500 200 c 0
 445 200 400 245 400 300 c 0
EndSplineSet
Validated: 1
EndChar

StartChar: uni30EF
Encoding: 12527 12527 180
Width: 1000
VWidth: 0
Flags: HMW
LayerCount: 2
Back
SplineSet
400 300 m 0
 400 355 445 400 500 400 c 0
 555 400 600 355 600 300 c 0
 600 245 555 200 500 200 c 0
 445 200 400 245 400 300 c 0
EndSplineSet
Fore
SplineSet
400 300 m 0
 400 355 445 400 500 400 c 0
 555 400 600 355 600 300 c 0
 600 245 555 200 500 200 c 0
 445 200 400 245 400 300 c 0
EndSplineSet
Validated: 1
EndChar

StartChar: uni30F0
Encoding: 12528 12528 181
Width: 1000
VWidth: 0
Flags: HMW
LayerCount: 2
Back
SplineSet
400 300 m 0
 400 355 445 400 500 400 c 0
 555 400 600 355 600 300 c 0
 600 245 555 200 500 200 c 0
 445 200 400 245 400 300 c 0
EndSplineSet
Fore
SplineSet
400 300 m 0
 400 355 445 400 500 400 c 0
 555 400 600 355 600 300 c 0
 600 245 555 200 500 200 c 0
 445 200 400 245 400 300 c 0
EndSplineSet
Validated: 1
EndChar

StartChar: uni30F1
Encoding: 12529 12529 182
Width: 1000
VWidth: 0
Flags: HMW
LayerCount: 2
Back
SplineSet
400 300 m 0
 400 355 445 400 500 400 c 0
 555 400 600 355 600 300 c 0
 600 245 555 200 500 200 c 0
 445 200 400 245 400 300 c 0
EndSplineSet
Fore
SplineSet
400 300 m 0
 400 355 445 400 500 400 c 0
 555 400 600 355 600 300 c 0
 600 245 555 200 500 200 c 0
 445 200 400 245 400 300 c 0
EndSplineSet
Validated: 1
EndChar

StartChar: uni30F2
Encoding: 12530 12530 183
Width: 1000
VWidth: 0
Flags: HMW
LayerCount: 2
Back
SplineSet
400 300 m 0
 400 355 445 400 500 400 c 0
 555 400 600 355 600 300 c 0
 600 245 555 200 500 200 c 0
 445 200 400 245 400 300 c 0
EndSplineSet
Fore
SplineSet
400 300 m 0
 400 355 445 400 500 400 c 0
 555 400 600 355 600 300 c 0
 600 245 555 200 500 200 c 0
 445 200 400 245 400 300 c 0
EndSplineSet
Validated: 1
EndChar

